<svg id="Capa_1" data-name="Capa 1" xmlns="http://www.w3.org/2000/svg" viewBox="0 0 1152.31 911"><defs><style>.cls-1{fill:#62438e;}.cls-2{fill:#5d4891;}.cls-3{fill:#2c9446;}.cls-4{fill:#2d8e49;}.cls-5{fill:#515296;}.cls-6{fill:#485b8d;}.cls-7{fill:#1f8155;}.cls-8{fill:#1d6f6f;}.cls-9{fill:#1d7468;}.cls-10{fill:#3f5e86;}.cls-11{fill:#396480;}.cls-12{fill:#416d80;}.cls-13{fill:#2c7c63;}.cls-14{fill:#619d67;}.cls-15{fill:#fefffe;}</style></defs><title>LOGO1</title><path class="cls-1" d="M340,166.35a6.43,6.43,0,0,1,3.16-1c1,.84,1.88-.06,2.69-.34,6-2.12,11.92-4.38,17.9-6.52,3.68-1.32,7.46,1.08,8.27,5.13a1.16,1.16,0,0,1-1.22.45.82.82,0,0,0-1-.37l-13.27,4.88a1.42,1.42,0,0,0-1.05,1.24,2.16,2.16,0,0,1-1.79.68c-.82-.82-1-.22-1.16.51a2.1,2.1,0,0,1-1.79.65c-.79-.81-1-.22-1.15.47a2.34,2.34,0,0,1-1.8.7c-.8-.79-1-.21-1.15.5a9,9,0,0,1-3.3,1.41l-.76.75c.2,2.47.34,5.11-.86,7.22-2.3,4.07-.74,7.24,1.58,10.46.81,1.11,1.57,2.26,2.29,3.43.84,1.34,1.73,1.65,3.39,1.12a30.66,30.66,0,0,1,18-.55c17.28,5.08,22.87,20.08,18.71,35.53-3.23,12-14.48,19.18-27.09,19.07a27,27,0,0,1-25.73-19.29c-1-3.23-2.62-4.15-5.57-4.17q-25.17-.21-50.34-.52a2.72,2.72,0,0,0-2.94,1.81,18.88,18.88,0,0,1-4.5,6.84c-2.33,2-2.26,4.07-1.11,6.71q9.44,21.72,18.6,43.56c1,2.33,2.19,3,4.59,2.87,5.91-.34,11.62.08,17.08,3.12,15.35,8.54,17.45,30.83,7.17,42.12-2,2.24-2.72,4.07-1,6.89C322,353.43,329,365.24,336,377.05c1,1.68,2,2.26,4,1.71,5.67-1.51,11.52-1.1,17.26-.6,2.45.22,3.53-.39,4.63-2.29,6.37-11,12.75-22.09,19.28-33,1.41-2.37,1.19-3.88-.69-5.86-11.34-11.94-12.45-28.81-2.66-42,5.1-6.85,11.81-11.36,20.55-12.29-2.95,2.25-2.9,4.79.17,7.48a7.45,7.45,0,0,1,2.34,3.31c1.24,4,2.29,8.13,3.37,12.22.15.56.05,1.26.57,1.6,2.41,1.57,2.57,4.56,3.26,6.71a101.41,101.41,0,0,1,3,11.34c1.31,6.79,4.11,13.3,6.35,19.9a1.86,1.86,0,0,1-.43,2.13c-.69.64-1.39,0-1.78-.42a2.72,2.72,0,0,0-2.32-1,4.68,4.68,0,0,1-2.8.5c-.45-.59-.81-.45-1.11.14a26.1,26.1,0,0,1-11,0l.07-.05a7.82,7.82,0,0,1-3.83-1c-.24-.64-.57-.89-1.11-.27l-1.59-.41.06-.05c-1.39-.24-1.89.81-2.42,1.73-6.53,11.3-13,22.61-19.59,33.89-1,1.64-.8,2.73.6,4,3,2.81,6.15,5.57,8.06,9.3,8.9,17.36,2.74,40.19-18.2,47.14-5.35,1.78-5.35,1.78-5.34,7.6,0,6.58.16,13.16,0,19.73-.06,3.15,1,4.48,4.25,5.23,12.74,2.91,21.86,10.73,24.48,23.48,3,14.75.57,26.17-13.74,35.89a32,32,0,0,1-37.22-1.44,33.69,33.69,0,0,1-12.41-19.13c-.33-1.45-.71-2.6-2.56-2.58-12.66.14-25.29-.84-37.94-1.18-2.35-.06-3.54.58-4.45,3-4.56,12.08-14.17,17.9-27.5,17-10.13-.68-19.58-9.19-21.92-20.1a25.21,25.21,0,0,1,1.35-15.59,3.22,3.22,0,0,0-1-4.34c-7-6-13.93-12.08-20.9-18.13C191,458,176.63,445.63,162.4,433.14c-2.37-2.07-4.18-2.76-7.39-1.22-15.25,7.32-32.77-1.07-36.34-17.5-3.26-14.95,5.55-28,20.64-31.06,2.42-.5,3.2-1.55,3.58-3.73,3.08-17.69,6.24-35.35,9.35-53,.91-5.12,1.66-10.26,2.65-15.37a3.82,3.82,0,0,0-1.74-4.41,22.45,22.45,0,0,1-8.34-24.58c2.55-8.72,10.78-15.21,20.28-15.88a20.08,20.08,0,0,1,12.34,3.19c2.2,1.38,3.8,1.15,5.75-.39,8-6.32,16.12-12.52,24.17-18.78,7.21-5.61,14.31-11.34,21.63-16.79,2.59-1.93,3.42-3.66,2.73-7-3.77-18.41,12.43-29.07,24.56-27.16a22.22,22.22,0,0,1,10.46,4.4,3.56,3.56,0,0,0,4.7.3q17.08-10.43,34.28-20.68a4,4,0,0,0,2.1-4.09c-.2-4.65.83-8.93,4.18-12.46,7-7.39,16.75-8.14,24.82-1.84.84.66,1.58,1.5,2.79,1.43ZM191.27,415v.38c-6.57,0-13.15,0-19.72,0-1.12,0-2.28-.21-3.11,1.08-3.84,5.89-3.66,7.31,1.78,11.83.31.26.62.5.91.75l42,36.46c6.07,5.27,12.18,10.51,18.22,15.82,1.69,1.49,3.13,1.82,5.14.38a23.65,23.65,0,0,1,11.12-4.36,25.82,25.82,0,0,1,28.16,19.36c.4,1.54.73,2.67,2.73,2.73q19.41.58,38.82,1.38c1.68.07,2.41-.51,2.84-2.15a36.4,36.4,0,0,1,3.66-9.58A32.55,32.55,0,0,1,343.29,474c2-.59,2.77-1.51,2.71-3.71-.23-8.33-.27-16.68-.27-25,0-1.91-.67-2.69-2.54-3.18-13.77-3.62-22.44-12.32-25.53-26.3-.5-2.28-1.43-2.9-3.72-2.83-13.82.45-27.66.07-41.49.88-3.19.18-4.89.77-6.23,4C260.81,431.1,247.71,438,234.37,435c-9.65-2.22-16.48-8-20.15-17.24a3.68,3.68,0,0,0-4.11-2.72C203.84,415.15,197.55,415,191.27,415Zm101.49-10.48v-.71c7.26,0,14.52-.07,21.78,0,2.21,0,3.34-.67,3.93-2.89a29.57,29.57,0,0,1,9.09-14.84c1.87-1.65,1.78-3.05.59-5Q317.5,363.51,307,345.76c-1.13-1.91-2.33-2.53-4.7-1.92-16.83,4.28-32-5.19-35.27-22.14-.64-3.39-2.17-4.37-5.17-5-23.87-5.09-47.74-10.22-71.55-15.6-3.67-.83-6-.25-8.25,2.69-1.57,2-1.62,3.29-.29,5.34,6.7,10.27,13.25,20.64,19.86,31,8.24,12.89,16.51,25.77,24.69,38.7,1.36,2.16,2.6,3,5.42,2.24a31.4,31.4,0,0,1,16.3-.11c10.71,2.93,17,10.38,19.65,21,.52,2.08,1.37,2.75,3.56,2.69C278.43,404.45,285.6,404.56,292.76,404.56Zm-26.57-96.1c1.55.22,1.78-1,2.2-2A28,28,0,0,1,277.3,295c2.11-1.61,2.29-3.09,1.26-5.46q-9.56-22-18.84-44.1a2.77,2.77,0,0,0-3.37-1.93,23.53,23.53,0,0,1-16.71-4.29,2.46,2.46,0,0,0-3.38.1c-3.33,2.59-6.72,5.1-10,7.68-12.65,9.78-25.27,19.61-38,29.35-1.68,1.29-2.15,2.5-1.3,4.49a14.05,14.05,0,0,1,1.37,6.87c-.36,3.4,1.43,4.23,4.26,4.84,18.7,4,37.37,8.1,56.06,12.16C254.49,306,260.34,307.21,266.19,308.46Zm-75.44,97.8v-.08c6.18,0,12.37-.05,18.55,0,2,0,3-.5,3.28-2.68A24.92,24.92,0,0,1,219,389.59c1.78-1.9,1.54-3.35.25-5.37q-22.36-34.8-44.53-69.71c-1.84-2.91-3.74-4.18-7.25-3.92-2.53.19-3.52.88-3.94,3.4-1.92,11.61-4,23.19-6.07,34.78-1.89,10.82-3.72,21.65-5.65,32.46-.34,1.91.08,2.92,2,3.83,7.77,3.7,13.09,9.65,15,18.16.6,2.67,1.89,3.14,4.27,3.09C179,406.18,184.86,406.26,190.75,406.26Zm113-187.39v.89c8.44,0,16.88,0,25.31.05,1.69,0,2.46-.45,2.84-2.12.66-2.87,1.38-6,3.41-8.05,4.62-4.59,3.34-8.67-.17-12.92a2.89,2.89,0,0,1-.31-.51c-.91-1.79-2.08-2.44-4.26-1.79-5.79,1.73-11.32,1-16.13-2.87-1.72-1.37-3-1.2-4.73-.17-11,6.68-21.95,13.38-33,19.91-2.43,1.43-2.29,3.1-1.79,5.36s2.16,2.21,3.82,2.21Q291.22,218.89,303.73,218.87Z"/><path class="cls-2" d="M372,163.63c-.81-4-4.59-6.45-8.27-5.13-6,2.14-11.91,4.4-17.9,6.52-.81.28-1.69,1.18-2.69.34q15.06-5.79,30.13-11.58c5.17-2,5.15-2,5.22-7.38.13-11,6.16-18.29,15.5-22.67,9.57-4.48,18.75-2.48,26.86,4.19a23.66,23.66,0,0,1,4.68,5.24c2.85,4.32,4.6,4.78,9.57,2.56a3.81,3.81,0,0,1,2.26-.41c.6.71.94.4,1.16-.31l1.21-.24c.93,1,1.8-.16,2.69-.07s2.07-.73,2.42,0c.89,1.89,3,2.86,3.55,4.84.26.87-.52,1.32-1.36,1.54-1.16.3-2.54.16-3.22,1.49-3.81.91-7.61,1.87-11.43,2.7-1.7.36-2.48,1.14-2.52,2.95a24.59,24.59,0,0,1-5.24,14.4c-.89,1.19-1.39,2.23-.44,3.69q9,13.8,17.89,27.65c.68,1.06,1.49,1.79,2.91,1.28,4-1.43,8.13-.87,12.22-1.18,14.23-1.07,26.82,11.64,29.43,21.24,3.07,11.28,2.25,22.2-5.52,31.66-1.65,2-1.67,3.38-.12,5.29,3.95,4.86,7.91,9.74,11.64,14.77,2.1,2.82,4.18,4.72,7.79,2.63.75.71,1,.17,1.11-.49a3.16,3.16,0,0,1,2.38-.79c.72.82,1,.32,1.16-.4l1.18-.24c.62.83.95.48,1.18-.29a5.34,5.34,0,0,1,2.94-.1c1.41,3.46,1.38,7.27,3.65,10.64,1.89,2.81,2.36,6.6,3.29,10,.26,1-1,2.21-.17,3.08,2.45,2.42,2.5,5.56,3,8.62a102.67,102.67,0,0,0,4,14.74,36.88,36.88,0,0,1,2.12,14.68,1.11,1.11,0,0,1-1.23.43,4.83,4.83,0,0,0-4.69,1.56c-17,4.29-35.67-7.93-38.88-25.51a32.8,32.8,0,0,1,6.27-26.4c1.13-1.52,1.17-2.57,0-4.07-4.73-5.89-9.36-11.86-14-17.85-1.24-1.63-2.41-2.11-4.45-1.21a33,33,0,0,1-22.72,1.58c-2.28-.65-3.4,0-4.52,1.82-5.23,8.53-10.42,17.1-15.91,25.46-1.91,2.91-1.45,4.6.95,6.86,10.24,9.65,10.9,21.62,7.42,34.23-1.61,5.82-5.47,10.39-10.12,14.17-1.69,1.37-2.27,2.58-1.21,4.63,4.95,9.59,9.81,19.22,14.66,28.86.78,1.54,1.91,1.22,3.22,1.08,5.77-.61,11.67-1.23,17.28.17,21.09,5.28,31.57,24.1,26.15,45.46C481.06,434,471,441.83,457.68,445.45c-2,.55-2.77,1.41-2.75,3.41.05,5.69.07,11.38-.05,17.07,0,1.87.67,2.52,2.44,2.88a37.25,37.25,0,0,1,12.95,5.41c4.06,2.66,3.06,3.18,6.9-.7q30.48-30.74,60.89-61.54c.41-.42.8-.86,1.22-1.28,1.43-1.45,1.66-2.72.21-4.52a28.76,28.76,0,0,1-5.86-12.39c1.19.38,1,1.58,1.37,2.41,1.16,2.7,2.17,5.48,4.08,7.74,3.35,4,3.33,5.76-.37,9.49q-7.87,7.92-15.79,15.78c-2.1,2.07-3.8,4.15-2.59,7.39.28.78-.1,1.92.93,2.26s1.53-.69,2.12-1.28q9.78-9.74,19.55-19.5c.8-.8,1.43-1.93,2.83-1.87-.56.67-1.08,1.38-1.7,2q-26,26.39-52,52.75-5.16,5.24-10.35,10.43c-1.32,1.32-1.83,2.54-.68,4.37a35.24,35.24,0,0,1,5.24,21c-.11,1.89.36,2.79,2.31,3.24q18.46,4.24,36.89,8.74c2.51.61,4,.24,5-2.35a7.41,7.41,0,0,1,2.31-3.66c1,.47,2,.86,1.7,2.31-1.13,5.81-2.68,11.5-4.32,17.18-.56,1.94-1.29,1.37-2.28.52.14-4.13-2.48-5.09-5.94-5.82-11.6-2.47-23.16-5.15-34.69-8-2.83-.68-4.09.2-5.45,2.63a36.12,36.12,0,0,1-58.66,6.83c-9.09-10.11-11.75-22.13-7.57-35.07,4.31-13.35,13.59-21.77,27.47-24.63,2.35-.49,3-1.38,3-3.66-.1-5.29-.09-10.59.12-15.88.1-2.35-.74-3.15-3-3.65-15.83-3.5-26.68-14.63-28.95-30.24-2-13.72,2.8-25.1,13.54-33.81,2.33-1.89,2.49-3.29,1.17-5.8-4.56-8.68-8.88-17.49-13.32-26.23-.65-1.29-1.13-2.75-2.59-3.46a2.72,2.72,0,0,1,2.32,1c.39.44,1.09,1.06,1.78.42a1.86,1.86,0,0,0,.43-2.13c-2.24-6.6-5-13.11-6.35-19.9a101.41,101.41,0,0,0-3-11.34c-.69-2.15-.85-5.14-3.26-6.71-.52-.34-.42-1-.57-1.6-1.08-4.09-2.13-8.19-3.37-12.22a7.45,7.45,0,0,0-2.34-3.31c-3.07-2.69-3.12-5.23-.17-7.48a49.85,49.85,0,0,1,11.19,0c.58,1.38,1.42,1.15,2.35.39l1.19.16c.19.78.48,1.26,1.19.36,1.78.41,2.65-.7,3.46-2,5.27-8.5,10.63-17,15.84-25.48,2.68-4.38,2.64-3.46-.88-7-8.17-8.24-11-18.1-8.91-29.38a31.37,31.37,0,0,1,9.51-17.24c.92-.87,2.36-1.66,1.25-3.4q-8.76-13.6-17.47-27.24a2,2,0,0,0-2.7-.84c-12.66,4.34-23.34,1.54-31.71-9.08a2.41,2.41,0,0,0-3.26-.82C377,162,374.49,162.8,372,163.63Z"/><path class="cls-3" d="M866.06,214.51l2.46-.21a17.87,17.87,0,0,0,8.72,0,3.84,3.84,0,0,1,2.36.26c.23.68.56,1,1.18.32l1.36.45.19.06.87.24.53.28.63.2.62.36.56.21.59.39.59.32.4.34.14.09a27.42,27.42,0,0,0,8.15,8.15l.09.14.33.39.33.6.39.59.21.56.36.62c.07.2.13.41.2.62l.28.54.23.86.06.18.45,1.38c-.69.62-.35.94.33,1.18a3.85,3.85,0,0,1,.25,2.37,18,18,0,0,0,0,8.71l-.21,2.46a.79.79,0,0,0-.29,1l-.48,1.41a.18.18,0,0,0-.12.28l-.24.78c-1,.2-1,.94-.9,1.71l-.3.7c-.09.15-.19.3-.29.45l-.39.74a.27.27,0,0,0-.23.35l-.09.17c-1,.11-1.12.83-1.09,1.64l-.09.14-.44.57c-.29.41-.58.83-.88,1.24l-.32.47c-.08,1.4.81,2.38,1.51,3.42q13.71,20.05,27.41,40.1c1.33,2,2.62,2.57,5.06,1.81,18.1-5.64,37.64,6.94,39.29,27,.85,10.4-3.16,19-11.16,25.65-2.59,2.14-2.84,4.1-1.83,7,3.08,8.9,6,17.85,8.82,26.82.66,2.09,1.64,2.93,3.92,3,11.52.26,21.88,8.89,24.23,17.59,4.53,16.81-2,30.9-19.31,35.68-3.51,1-7.24.61-10.83.16a2.6,2.6,0,0,0-3.06,1.51c-7.19,13.29-14.06,26.74-20.82,40.24-1.08,2.16.14,3.26,1.21,4.6,11.68,14.62,6,39.05-13.92,44.83a31.75,31.75,0,0,1-14.57.34c-1.34-.23-2.4-.41-3.24,1.06-4.57,8-9.22,16-13.83,24a2.79,2.79,0,0,0-.45,2.24c-.15.33,0,.48.32.54l0,.1c0,.82,0,1.57,1.07,1.7l.08.13c0,.8.05,1.53,1.07,1.65l.14,0,0,.15a.2.2,0,0,0,.17.28l.45.79a.32.32,0,0,0,.25.41l.34.76a.28.28,0,0,0,.18.39l.36.89c0,1.16-.15,2.37.89,3.24a32.28,32.28,0,0,1,0,10.1,1.59,1.59,0,0,0-.33,1.53l-.2.8a.75.75,0,0,0-.39.94l-.37.84a.29.29,0,0,0-.19.4l-.36.76a.31.31,0,0,0-.23.41l-.42.78a.23.23,0,0,0-.19.31l-.11.19a27.65,27.65,0,0,0-8.09,8.14.38.38,0,0,1-.42.28,2.15,2.15,0,0,0-2.54,1.37l-.68.24c-.84,0-1.79-.27-2.28.78a39.58,39.58,0,0,1-12.85,0c-.49-1.06-1.44-.77-2.29-.78l-.68-.24c-.15-.85-.69-1-1.42-.75l-1-.52a.31.31,0,0,0-.39-.27l-.13-.09a28.47,28.47,0,0,0-8.12-8.17l-.11-.18a.21.21,0,0,0-.17-.29c-.14-.27-.29-.53-.43-.79a9.52,9.52,0,0,0-1.82-4.54v0a1.65,1.65,0,0,0-.32-1.72,32.35,32.35,0,0,1,0-8.9c.61-.69.38-1.49.31-2.27.4-3.28,2.89-5.49,4.35-8.21a3.72,3.72,0,0,0,.38-3.63c.95-1.08.54-1.58-.73-1.71-.63-.11-.68-.54-.55-1.05-.65-2.57-1.63-5.14-1.06-7.82.34-1.62-.35-3.72,1.74-4.74l1,.06.18.54c-.12.76.24,1.14,1,1.22.06.19.12.38.19.57,1,2.55,2,5.1,4.65,6.48l0,0a1.62,1.62,0,0,0,1,1.71c1.05,1.31,2.31.64,3.5.33a26.58,26.58,0,0,1,14.24,0c2.29.67,3.43,0,4.48-1.86,3.89-6.8,7.75-13.63,11.79-20.35,1.42-2.36,1-3.8-.9-5.73-7-7.26-9.51-16-7.52-26a23.36,23.36,0,0,1,7.47-13.36c2.59-2.28,2.84-4.47,1.21-7.37-1.43-2.56-2.47-5.33-3.72-8-4-8.52-8-17-12-25.55-1-2.1-2-3.13-4.69-2.61a19.84,19.84,0,0,1-8.47.06c-3.93-1-5.11,1-6.44,3.91-5.41,12-11,23.84-16.48,35.76a8,8,0,0,1,.43-3.17c2-4.25,3.72-8.62,5.79-12.85,3.56-7.3,6.81-14.75,10.25-22.11a8.26,8.26,0,0,0,.36-4.6c-2.69-1.8-1.55-3.9-.94-6.1,1.87-6.75.48-13.7.82-20.55.29-5.76,0-11.71-.19-17.57-.11-3.33-.36-6.4-2.19-9.51-3.28-5.56-5.88-11.52-8.79-17.3a6.14,6.14,0,0,1-.83-3.37,13.19,13.19,0,0,1,1,1.41q4.92,9.53,9.8,19.08c.87,1.69,1.79,2.33,4.08,2.14,6.21-.51,12.55-1.11,18.57,1.34a2.56,2.56,0,0,0,3.5-1c2.65-3.52,5.4-7,8.07-10.47q9.35-12.28,18.63-24.6c1-1.27,1.83-2.44.2-4a30,30,0,0,1-8.21-15.95c-.33-1.67-1-2.28-2.64-2.4-3.61-.26-7.21-.68-10.82-1-6.42-.57-12.86-1.1-19.29-1.65,1.37-.53,3.79,1.08,4.08-1.3s.79-5-.45-7.34c1.08,0,2.15,0,3.22.06,7.31.64,14.62,1.37,21.94,1.9,1.46.1,3.66,1.12,4.31-1.17a35.47,35.47,0,0,1,10.75-16.53c1.13-1,1-1.66-.38-2.26-2.71-1.2-4.42-3.45-6-5.82-7.86-11.48-15.78-22.92-23.6-34.42-1.13-1.66-2.19-2.07-4.1-1.35a27.92,27.92,0,0,1-17.88.38c3-1.26,3.82-3.18,2.35-5.83-2.66-4.81-3.21-10.11-3.48-15.45-.09-1.8,0-3.5-1.62-4.76a2.43,2.43,0,0,1-.73-1.52c-.57-4.91-2-9.63-3.17-14.41-.38-1.6-1.19-3.1-1-4.82,1.55-.58,3.44-.6,4.18-2.52l.09-.05.44-.31.73-.3.45-.26.79-.29a.78.78,0,0,0,1-.44l.76-.16A.8.8,0,0,0,866.06,214.51ZM923.8,362c-1.62-.13-2.09,1-2.71,1.81q-13.41,17.35-26.77,34.73c-1.44,1.86-1.5,3.25-.08,5.38,6.51,9.81,6.78,20.13,1.67,30.65-1.39,2.87-3.69,5.07-6,7.18a3.59,3.59,0,0,0-.93,4.85c5.6,11.78,11.09,23.61,16.58,35.44a3.08,3.08,0,0,0,3.38,2c5.56-.18,11.19-.75,16.65,1,1.58.5,2.14-.61,2.67-1.64,6.59-12.71,13.13-25.45,19.76-38.13,1-1.92.53-3.25-.87-4.61a31,31,0,0,1-5.83-7,26.63,26.63,0,0,1,9-35.64c2.76-1.72,3.18-3.25,2.19-6.11-2.69-7.78-5.14-15.64-7.66-23.48-1.52-4.75-1.5-4.8-6.51-4.71S928.34,363.73,923.8,362Z"/><path class="cls-4" d="M849.6,370.87a6.14,6.14,0,0,0,.83,3.37c2.91,5.78,5.51,11.74,8.79,17.3,1.83,3.11,2.08,6.18,2.19,9.51.21,5.86.48,11.81.19,17.57-.34,6.85,1,13.8-.82,20.55-.61,2.2-1.75,4.3.94,6.1a8.26,8.26,0,0,1-.36,4.6c-3.44,7.36-6.69,14.81-10.25,22.11-2.07,4.23-3.78,8.6-5.79,12.85a8,8,0,0,0-.43,3.17v0c-.73.6-.74,1.19,0,1.76h0c.37,2.84,2.37,4.23,4.72,5.3h0a13.53,13.53,0,0,0,4,7.68l.21,1.15c-.88.76-.89,1.38.3,1.79a47.06,47.06,0,0,1,0,10.61,1.14,1.14,0,0,0-.92,1A24.84,24.84,0,0,1,848,527.53c-1,1.29-2.39,2.3-2.53,4.11,0,.63-.19,1.32.52,1.75l0,.08a.92.92,0,0,0,.54,1.11l0,.08c0,1.26.2,2.47,1.7,2.87a.37.37,0,0,1,.18.46,6.33,6.33,0,0,0,3.29,4.86l.19.53c.12,1.11.38,2.12,1.69,2.4l0,0a3.87,3.87,0,0,0,.64,2.27c-2.09,1-1.4,3.12-1.74,4.74-.57,2.68.41,5.25,1.06,7.82-3.65-4.06-6.29-8.81-9.26-13.33-1.67-2.54-3.41-5-5-7.59-1.09-1.72-2.3-2.05-4.37-1.53-11.16,2.78-21,.3-28.91-8.25-5.44-5.9-7.6-13.14-7.06-21.13.12-1.75-.3-3-1.85-3.88l-.89-.48-1-.47-.13-.07-.87-.41c-.33-1.08-1.29-.65-2-.84l-.94-.36a57,57,0,0,0-10.07-5.75,4.5,4.5,0,0,1-2-6c1.14-2.6,2.8-.59,4.17-.31,3.52.71,6.38,3.32,10.07,3.67l1,.38.61.28.25-.05.17.18.92.42,1,.42a1,1,0,0,0,.28.13l.81.25.53.29c2.52,1.3,4.11.33,5.74-1.82,7.89-10.41,18.73-12,30.72-10,2.39.6,2.83-1.41,3.48-2.81q7.62-16.23,15.08-32.52a6.63,6.63,0,0,0,.81-4.26,2.32,2.32,0,0,0-.49-2.2l-.55-.58-.6-.63a2.63,2.63,0,0,0-1.17-2.52c-2.34-1.89-3.45-4.59-4.93-7.09s-1.44-5.6-3.1-8a26.67,26.67,0,0,1,0-6.5l3.88-11.2h0a8.57,8.57,0,0,0,5.29-6.48h0c1.13-.94.91-1.92.07-2.91l0-.05c0-1.46.07-2.95-1.77-3.48v0a3.15,3.15,0,0,0-.42-2c-4.19-8.35-8.34-16.72-12.58-25.06-.49-1-.89-2.22-2.29-2.41l0,0c-.33-2.1-.91-4.07-2.87-5.29l0-.07a.93.93,0,0,0-.68-1c-1.36-.82-2.66.05-4,.19-5.39.54-10.74.67-16-.91-.45-.52-.84-.59-1.11.15h0a.83.83,0,0,0-.75.89l-.07.14c-1.32.14-1.58,1.3-2.07,2.21-1.43,2.63-2.82,5.27-4.22,7.92-2.23-2.31-1.69-5.23-1.83-8-.05-1.1.83-2.67-1.07-3.19,2.34-3.6.81-6-1.84-8.93-7.88-8.73-9.87-19.19-6-30.16,5.53-15.87,21-23.64,37.31-19.44,1.63.42,3,.92,4.15-1.15,6.33-10.95,12.79-21.83,19.29-32.69,1.29-2.16,1.19-3.69-.62-5.61-8.51-9-9.56-19.3-4.86-30.47.41-1,1.2-1.84.87-3a2.57,2.57,0,0,0-2.9-2.86l0-.05c0-1-.7-1.18-1.51-1.2a.19.19,0,0,1-.24-.2l-.4-.34-.19-.15-.46-.43-.13-.11-.51-.47-.09-.08-.53-.51-.06-.05-.56-.52,0,0c-1.74-3.06-3.86-5.67-7.53-6.49l-.1-.08-.53-.48-.07-.06-.56-.51,0,0a14.88,14.88,0,0,0-8.19-7.05l-.05,0-.57-.53,0,0c-1.41-2.59-3-5.27-6.3-5.27-3.67,0-7,1.56-10.25,3.32a25.11,25.11,0,0,1-7,0c-3.11-2-5.39-1.84-7.44.86-2.43,3.2-5.69,5.85-6.74,10l0,0c-3,1.41-4.92,4-6.73,6.64a2.51,2.51,0,0,0-.08,2.54c2.35,4.62,5.35,8.92,7.13,13.83-.08,2.72-.56,5.44.08,8.16-1.59,2.41-1.84,5.5-3.84,7.71-1.78-.14-2.2-1.51-2.39-2.88a76,76,0,0,0-2.44-10.22c-.78-2.83-2.55-5.61-2.62-8.28-.13-5-2.54-9.2-3.22-13.9.15-.25.31-.5.47-.75l0,0a.54.54,0,0,0,.57-.57v0c1.78.09,2.59-1.38,3.42-2.45,3.4-4.39,6.74-8.81,10.49-12.91,1-1.12,2.11-2.55,1.27-4.24-1.92-3.88-4-7.7-6-11.55-.11-2.29-.23-4.59-.34-6.88a.63.63,0,0,0-.6-.68.57.57,0,0,1-.47-.27c-.54-1.71-2.11-2.18-3.52-2.74-9.06-3.64-17.38-8.88-26.55-12.32,0-2-1.45-3.62-1.71-5.57-.1-.76-.36-1.71.25-2.25s1.45.18,2.11.49c3.36,1.57,6.59,3.47,10.41,3.78l.83.34a.53.53,0,0,0,.38.23l.77.29a.58.58,0,0,0,.44.29l.74.3a.59.59,0,0,0,.45.29l.72.28.48.3.64.26c1,1.75,2.65,2,4.39,2.18l1.11.5,0,0,1.14.56,0,0,1.13.55.07,0,1.08.52.12.07L778,164l.13.08,1,.47.19.12,1,.46.22.13.94.43a.85.85,0,0,0,.3.15l.85.28.88.34.15-.06.07.14a2,2,0,0,0,2.23.3l.56-.49h0c.19-.14.37-.29.55-.44a8.34,8.34,0,0,0,4.9-4.66,1,1,0,0,1,1-.75h0l1.07-.57.19-.12,1-.47.21-.13,1-.46.1-.05,1.23-.47.58-.24c8.77-3.53,20.19.75,25.42,9.49,4.42,7.4,4.11,14.91.6,22.51-.57.44-.56.81.15,1.08h0l.54.61h0a13.19,13.19,0,0,0,8,7.18l.11.09.52.47.07.07c1.74,3,4,5.45,7.53,6.44l.13.1.5.46.09.08.54.5.06,0c1.94,3.23,4.32,6,8.13,7.05l.1.08.53.48.07.06a6.33,6.33,0,0,0,5.32,4.3c-.19,1.72.62,3.22,1,4.82,1.14,4.78,2.6,9.5,3.17,14.41a2.43,2.43,0,0,0,.73,1.52c1.62,1.26,1.53,3,1.62,4.76.27,5.34.82,10.64,3.48,15.45,1.47,2.65.68,4.57-2.35,5.83a.41.41,0,0,1-.48.09l-.66.62,0,0c-1.31,0-1.23.95-1.19,1.85a2.36,2.36,0,0,1-.94,1.71,1.43,1.43,0,0,0-.31.42l0,.08c-1.12.13-1.1,1-1.1,1.78h0c-1.67.37-1.68,1.7-1.74,3a1,1,0,0,1-.66,1.11c-1.16.11-1.12,1-1.12,1.8a1,1,0,0,1-.68,1.14c-1.53.42-1.59,1.69-1.69,2.93l0,0c-1.18.1-1.15,1-1.13,1.82a1,1,0,0,1-.67,1.12c-1.6.42-1.64,1.72-1.68,3-1.83,4.34-4.62,8.14-7,12.19-1.25,2.18-1.18,3.75.73,5.57a26.16,26.16,0,0,1,7.76,13.89c.54,2.7,2,3.45,4.39,3.59,3.31.21,6.66-.17,9.94.61,1.68,1.23,3.58.35,5.37.59l4.64.27c1.24,2.37.75,4.95.45,7.34s-2.71.77-4.08,1.3c-5.92-.39-11.84-.75-17.76-1.18-1.31-.09-2.19.09-2.56,1.6a31.09,31.09,0,0,1-9.72,16.05c-1,.9-2.07,1.86-1.64,3.48a47.94,47.94,0,0,0,8.5,17c.05.06.19,0,.29.06Z"/><path class="cls-3" d="M816.53,606.91C818,668.93,764,723.85,698.32,722c-59.75-1.67-113.41-53.21-111.55-118.79,1.69-59.52,53-113.22,119-111.2C765.13,493.85,817.69,544.8,816.53,606.91ZM639.36,690.68l-.05,0a.78.78,0,0,0,.87.76c.11,0,.22-.55.33-.84a23.26,23.26,0,0,0,11.17,7.75l1.73.61,0,0c.2,1.34,1.23,1.57,2.32,1.71a50.26,50.26,0,0,0,5.11,2.85c18.14,7.68,36.84,11,56.51,7.56a108.26,108.26,0,0,0,45.86-19.29c.67-1.58,2.35-1.93,3.57-2.8,3.71-2.65,6.93-5.88,10.62-8.58,2.48-1.8,5.19-3.84,6.29-7.07l0-.24L784,673a2,2,0,0,0,1.54-2.1l0-.22.22,0c.8-.14.91-.77,1-1.41a3.18,3.18,0,0,1,1.05-1.84v.11c.4-.62.79-1.25,1.18-1.88v.12c.4-.63.79-1.27,1.19-1.91V664a.32.32,0,0,1,.31-.38c.82-.15.89-.81,1-1.46l.49-1.21-.05.11,1.21-1.82.05-.08.57-1.17V658l.56-1.26,0,.1.55-1.27,0,.11.56-1.29,0,.12c.19-.44.37-.87.56-1.3l0,.12c.19-.44.37-.87.56-1.3l0,.11.57-1.3,0,.1c.19-.41.38-.83.58-1.25v0c.16-.37.33-.74.5-1.11l.1-.19c3.71-9.92,6.8-20,8.13-30.56A84.66,84.66,0,0,0,802,577.53c.06-.06.18-.16.17-.18a3,3,0,0,0-.28-.34l0,0c-.51-.24,1.3-2.86-1.21-1.14-.54.36-.55-.6-.51-1,.46-4-1.93-7.21-3-10.77-.38-1.27-.93-1-1.49-.11A21.89,21.89,0,0,0,792,553.55c-20.42-33.14-50.38-49.88-89-51.62-.61,0-1.19,0-1.41.74-5.54-1.39-10.9.17-16.62.79l1.46.93c-4.07.5-8.24,0-12.23,1.23-27,8.26-48.71,23.56-62.93,48.42-3.29,5.74-6.68,11.53-7.94,18.2l0,0c-1.39.61-1.2,1.82-1.14,3a4.18,4.18,0,0,1-.53,2.17A58.32,58.32,0,0,0,598,594c-.12.39-.25.78-.37,1.16-.84.83-1.38,1.73-.84,3l-.36,1.77c-.85.53-.86,1.12-.16,1.78v10.1c-.7.63-.64,1.22.12,1.76.74,4.34,1.33,8.71,2.26,13,5.12,23.59,16.13,43.82,34.39,59.87,1.72,1.51,3.28,3.33,5.77,3.68l0-.06C638.52,690.66,638.92,690.69,639.36,690.68Z"/><path class="cls-5" d="M545.76,416.21c-1.4-.06-2,1.07-2.83,1.87q-9.79,9.74-19.55,19.5c-.59.59-1.08,1.63-2.12,1.28s-.65-1.48-.93-2.26c-1.21-3.24.49-5.32,2.59-7.39q7.94-7.84,15.79-15.78c3.7-3.73,3.72-5.53.37-9.49-1.91-2.26-2.92-5-4.08-7.74-.36-.83-.18-2-1.37-2.41a25.94,25.94,0,0,1-.5-11.19c1-.43,1-1,.28-1.73l.18-1.22a8.69,8.69,0,0,0,2.18-6.43,1.06,1.06,0,0,1,.54-1.21c3.13-3.46,5.84-7.3,9.4-10.36a2.75,2.75,0,0,0,1.18-1.92l.1-.07a17.42,17.42,0,0,0,7.5-3.74,14.74,14.74,0,0,1,8.88-1.41,12.13,12.13,0,0,0,.25,2c1.68,5.64,1.85,11.6,2.17,17.28.43,7.67,1.1,15.41.73,23.2-.32,6.46.85,13,.38,19.56a4.65,4.65,0,0,0,.58,2.54,7.39,7.39,0,0,0-.59,1.93c-.23,11.56-1.7,23-2.52,34.56-.94,13.18-2.11,26.34-3.26,39.51-.43,4.89-.55,4.88,4,7-1.38,3.73-1.9,7.69-2.8,11.51-3.42,14.55-7.05,29-12.6,42.91-10.49-1.43-20.64-12.44-21.91-23.78,1,.85,1.72,1.42,2.28-.52,1.64-5.68,3.19-11.37,4.32-17.18.29-1.45-.72-1.84-1.7-2.31,3.71-6,9.33-9.37,15.88-11.29,2.23-.65,3.25-1.8,3.42-4q1.53-19.87,3.08-39.75c.47-5.83,1-11.65,1.51-17.48.51-6.52.9-13.06,1.41-19.58.13-1.65-.45-2.44-2-3a32.08,32.08,0,0,1-7.54-3.2l-.14,0Z"/><path class="cls-6" d="M466.76,128.68c2.44-1.09,5.09-1.38,7.68-1.88,2.2-.43,3-1.47,3-3.76.38-12,6.66-20.12,17.3-25.15a3.78,3.78,0,0,1,.84-.15c-.15.35-.2.9-.46,1-2.29,1.09-1.73,2.27-.33,3.74a64.26,64.26,0,0,1,4.35,5.12c2.75,3.53,5.32,7.2,8.13,10.67,5.33,6.59,9.77,13.8,14.72,20.66,2,2.82,2.11,3.18,4.58.92.58-.53,1.1-1.13,2-1.11a5.3,5.3,0,0,1-1.92,2.87c-1.84,1.84-1.85,3.49-.32,5.63,6,8.45,11.91,17,17.85,25.5a7.35,7.35,0,0,0,2.66,2.68A12.85,12.85,0,0,0,549,182a38.46,38.46,0,0,1,4.26,7.22,132.74,132.74,0,0,0,5.88,12.32c3.47,6.48,5.82,13.41,9.11,20,2.81,5.59,4.59,11.79,6.82,17.72.44,1.19.72,1.2,1.8.89,2.24-.66,4.09-2.38,6.56-2.39a3.22,3.22,0,0,1-.6.62c-13,7.36-26,7.31-38.4-.79s-17.58-20.22-16.08-34.92c.73-7.2,3.95-13.48,8.6-19,1-1.19,2.63-2.27,1.21-4.27-6.53-9.22-13.07-18.44-19.5-27.73-1.25-1.79-2.46-1.82-4.41-1.28-12,3.29-22.85.89-30.35-9.11-3.69-4.92-6.81-6.93-12.42-4.94-2.25-1.28-2.73-4.13-4.93-5.52C465.72,130.27,466.6,129.39,466.76,128.68Z"/><path class="cls-1" d="M536.22,642.74c9.87,2.91,13.82,10.22,15.21,19.31a42.93,42.93,0,0,1-.56,15.81c-2.35,10.66-9.92,17-21.47,17.39-9.61.32-19.23.07-28.85.16-1.64,0-1.93-.57-1.84-2.07,1.76-29.61,1.54-59.24.44-88.87,0-.49-.06-1,0-1.47.05-2-1.33-4.69-.08-6,1.48-1.51,4.28-.54,6.5-.51,7.64.11,15.3-.48,22.94.41,12,1.39,19.14,8.73,20.07,20.79A37.57,37.57,0,0,1,548,628C546.57,635,543.55,638.78,536.22,642.74Zm-16.8,4.44v0c-2.16,0-4.32.08-6.48,0-1.52-.07-2.06.4-2,2q.4,18.09.68,36.19c0,1.44.57,1.83,1.93,1.81,4-.07,8.05,0,12.07,0,6.73-.09,10.61-3,12.45-9.47a40.29,40.29,0,0,0,.38-20.08c-1.54-6.78-5.72-10-12.83-10.32C523.54,647.1,521.48,647.18,519.42,647.18Zm-7.78-25.09H511q0,4.11,0,8.22c0,2.15.07,4.32-.08,6.46-.12,1.65.38,2.22,2.09,2.17,4.11-.13,8.23,0,12.33-.09,5.9-.18,9.2-3,10.33-8.86a40.33,40.33,0,0,0-.14-15.75c-1.26-6.21-5.19-9.35-11.6-9.47-3.23-.07-6.47.12-9.69-.06-2.16-.13-2.67.77-2.64,2.7C511.69,612.3,511.64,617.2,511.64,622.09Z"/><path class="cls-3" d="M270.71,642.68c11.08,3.41,14.62,11.91,15.59,22.12a40.16,40.16,0,0,1-1.61,15.71c-2.73,8.81-9.8,14.2-20.24,14.69-9.11.42-18.26.1-27.38.19-1.59,0-1.71-.63-1.63-1.94,1.75-29.62,1.55-59.25.43-88.89,0-1-.06-2-.12-2.94-.35-5.12-.36-5.19,4.92-5.11,7.45.13,14.91-.42,22.35.42,12.23,1.38,19.54,9.15,20,21.38a37.05,37.05,0,0,1-.41,8.8C281.06,635.14,278.19,639,270.71,642.68Zm-15.57,4.51v0c-1.67,0-3.34.1-5,0s-2.58.28-2.52,2.35q.47,17.79.67,35.57c0,1.74.69,2.12,2.27,2.07,3.23-.1,6.47,0,9.71,0,6.58-.12,10.4-2.9,12.28-9.28a38.6,38.6,0,0,0,.48-20c-1.67-7-5.66-10.23-12.89-10.56C258.47,647.12,256.8,647.19,255.14,647.19Zm-6.76-25.27h-.71c0,5,.06,10,0,15,0,1.49.31,2.08,1.92,2,3.62-.13,7.26,0,10.88-.13,5.25-.24,8.41-2.83,9.58-7.92a37.86,37.86,0,0,0-.14-17.49c-1.19-4.95-4.38-8.09-9.63-8.49-3.41-.26-6.86-.08-10.28-.17-1.7,0-1.58,1.13-1.58,2.19C248.36,611.93,248.38,616.92,248.38,621.92Z"/><path class="cls-1" d="M436.39,614.09c0-4.46,0-8.28,0-12.1,0-.84-.19-1.74,1-2.19,9.61-3.74,19.32-6.56,29.8-4.24,8.37,1.85,13.17,7.28,15.44,15.24a53.5,53.5,0,0,1,1.77,16c-.58,22.18-.44,44.34.9,66.49.09,1.49-.11,2.15-1.79,2.09q-5-.17-10,0c-1.62.06-2-.55-1.89-2,.2-1.94.24-3.9.35-5.89-1.21.14-1.66,1.12-2.28,1.82-5.9,6.74-13.26,9.34-21.95,7.21-8.47-2.07-12.7-8.43-14.87-16.31a41.63,41.63,0,0,1,.09-22.39c2.36-8.59,8-14.44,15.81-18.36,6.81-3.43,14.16-5.15,21.6-6.46,1.74-.31,2.49-.8,2.45-2.76-.13-5.91-.41-11.78-2.09-17.47-2.39-8.07-7.86-11.06-16.06-9-5.82,1.5-10.69,4.79-15.45,8.27Zm36.19,44.63h.28c0-4,0-8,0-12.06.06-6,.08-6-5.92-4.85-14,2.64-20.68,8.84-22.31,21.2-.81,6.16-.6,12.36,2.11,18.17,2.46,5.29,6.28,7.36,11.81,6.57,6.35-.91,13.94-9.43,14-15.79C472.62,667.55,472.58,663.14,472.58,658.72Z"/><path class="cls-7" d="M762.32,156.44c-3.82-.31-7.05-2.21-10.41-3.78-.66-.31-1.38-1.13-2.11-.49s-.35,1.49-.25,2.25c.26,2,1.72,3.54,1.71,5.57-2.64-1.15-5-3.05-8.18-2.71l-.69-.24c-.24-.47-.4-.39-.52.07l-1.35,1.14-.42.38a8.41,8.41,0,0,1-3.21,3.11.53.53,0,0,0-.35.33.29.29,0,0,1-.36.26l-.2.15-.51.47h.11l-1,.53c-.77,0-1.48,0-1.6,1l-.08.18-.2,0-.13.09-.93.52a.31.31,0,0,0-.29.21l-.87.37a.3.3,0,0,0-.28.16l-1,.37-.8.35-1,.24-.74.25-1.59.33c-.68.07-1.41-.14-2,.37a20.06,20.06,0,0,1-6.65,0c-.65-.71-1.31-1.29-2.23-.39l-1.32-.18-1-.29-.73-.12c-.88-.76-1.46-.58-1.73.55l-.11.17c-2.19.31-2.43,2.64-3.88,3.75-1.72,1.31-3.31,1-3.56-1.17-.23-1.93-.78-3.81.2-5.94a5.42,5.42,0,0,0-1.29-6.21,23.13,23.13,0,0,1-6.55-12.14c-.14-.72,0-1.65-1-1.87l-.14-4.12c.82-1.27-.23-1.62-1-1.74-4.08-.62-6-3.41-7.24-6.94-.26-.75-1.64-1.3-.74-2.21.7-.71,1.64.08,2.48.22,3.1.54,6.2,1.57,9.3,0l.33-.54a.53.53,0,0,0,.35-.4l.07-.12c2.95-2.16,4.78-5.3,7-8.06V120l.16,0c1.9-.59,3.94-.94,5.1-2.86l.1-.17.2,0h0l1.25-.53.63-.3,1.1-.29.58-.15a3.75,3.75,0,0,1,2.69-.32,20,20,0,0,0,8.62,0,3.18,3.18,0,0,1,2.5.33c.56,1.08,1.62.48,2.44.73l1.27.49,0,0,1.08.49.12.08,1.11.59h0a.28.28,0,0,1,.38.25c3,2.89,5.62,6.28,9.2,8.59a.33.33,0,0,1,.26.4h0a17.32,17.32,0,0,1,3.41,8.89,8,8,0,0,1,.08,2.63c-1.58,7.66,1.8,12,9,14.05C757.54,153.69,759.87,155.25,762.32,156.44Z"/><path class="cls-8" d="M582.23,115.89c1.14-14.09,10.63-26.47,22.94-29.92-.2.32-.33.8-.62.93-1.88.83-1.79,1.36-.43,3.07,3.71,4.63,6.57,9.93,9.45,15,3.56,6.33,7.78,12.27,11,18.8,2.92,5.91,6.72,11.37,9.38,17.42.94,2.14,2.07,2,3.59.78.86-.71,1.49-2,3-1.21-9.37,10.43-21,12.65-34.19,9.58-.49-.52-.85-.42-1.09.24l-.52.6a.4.4,0,0,0-.16.24v.16l-.15.06-.42.58-.43.7a.5.5,0,0,0-.2.29l-.11.17c-1.87.58-2.46,2.35-3.32,3.78s-1.4,1-2,0c-1.42-2.44-3.57-4.74-1.29-7.86.4-.54.22-1.49.3-2.25a1.7,1.7,0,0,0-.7-1.54,36.4,36.4,0,0,1-12.78-18.61,2.24,2.24,0,0,0-2.41-1.66c-.16-1.77-1.41-2.84-2.51-4s-2.3-2.66-1.06-4.54l4.45-.25C582,116.23,582.12,116.06,582.23,115.89Z"/><path class="cls-3" d="M348.31,680.94c2-9.53,4.09-18.78,5.91-28.09,3.47-17.79,6.38-35.68,9-53.63.3-2.12,1.08-3,3.33-2.78a71.38,71.38,0,0,0,8.53,0c1.78-.07,2.37.15,1.82,2.24C371,621.17,366,643.84,361.65,666.64c-1.7,8.85-3.39,17.7-4.91,26.59-.31,1.81-.95,2.21-2.62,2.17-4.22-.11-8.44-.14-12.66,0-1.91.06-2.36-.63-2.68-2.42-4.78-26.61-9.95-53.14-16.34-79.42-1.22-5-2.46-10.08-3.83-15.08-.45-1.66-.05-2.07,1.57-2,2.94.09,5.89.18,8.82,0,2.2-.16,3,.57,3.35,2.74,1.33,9.12,2.8,18.21,4.25,27.31,2.8,17.51,6.14,34.92,10.16,52.2A2.42,2.42,0,0,0,348.31,680.94Z"/><path class="cls-8" d="M683,471.25l-.81.25c-1.4.16-2.88.11-3.89,1.37l-1.48.45h0a26.77,26.77,0,0,1-15.13.18l-.53-.2-.56-.11c-1.63-4.35-.35-8.79.18-13,1.18-9.38,1.46-18.8,2.1-28.2.5-7.34.47-14.72.68-22.08,8.13-.57,16.18-.73,23.21,4.44l-.09,0a.42.42,0,0,1,.41.35.84.84,0,0,1,.29.27.89.89,0,0,1,.87.74c.22,1.4,1.41,2.08,2.28,3,3.33,3.34,5.58,7,3.71,11.92-.22.61.06,1.39-.1,2-1,4.3-.37,8.72-1,13.07a70.22,70.22,0,0,0-.54,14c.13,2-.06,3.28-1.47,4.58-1.83,1.7-3.54,3.53-5.3,5.31l-.08.2-.22,0,.05,0-1,.51C683.87,470.42,683.1,470.3,683,471.25Z"/><path class="cls-9" d="M640.51,140.8c-1.47-.77-2.1.5-3,1.21-1.52,1.25-2.65,1.36-3.59-.78-2.66-6-6.46-11.51-9.38-17.42-3.23-6.53-7.45-12.47-11-18.8-2.88-5.11-5.74-10.41-9.45-15-1.36-1.71-1.45-2.24.43-3.07.29-.13.42-.61.62-.93a2.66,2.66,0,0,1,.49-.31c22.8-5.93,42.44,7.8,44.22,30.33,0,1,.08,2,.11,3a1,1,0,0,1,0,1.23c1.22,2.56,1.85,5.39,3.52,7.74.44.62,1.14,1.31.77,2-.48.95-1.56.41-2.37.49-1.43.14-2.91-1.48-4.32.1C645.32,134,643.88,138.1,640.51,140.8Z"/><path class="cls-1" d="M386.34,646.07c-.19-15.79-.11-31.6-1.3-47.36-.12-1.63.21-2.32,2-2.25,3,.13,6.09.15,9.12,0,2-.11,2.45.62,2.34,2.52-.82,14.21-1.15,28.43-1.23,42.67s.22,28.45.59,42.68c.06,2.3.86,2.73,2.94,2.7,7.95-.11,15.9,0,23.85-.09,2.08,0,2.64.61,2.62,2.65-.07,5.8,0,5.8-5.85,5.8-11.39,0-22.77,0-34.16,0-1.75,0-2.38-.33-2.23-2.27C386.23,677.48,386.15,661.77,386.34,646.07Z"/><path class="cls-6" d="M549.72,556.56c5.55-13.91,9.18-28.36,12.6-42.91.9-3.82,1.42-7.78,2.8-11.51,3.58.66,6.41,2.78,9.21,4.89,3.34,2.51,3.46,2.58,6.62-.09A142.74,142.74,0,0,1,592.12,498c1.88-.69,2.58-.14,2.5,1.94-.14,3.28,0,6.57-3.23,8.7-.44.29-.63.94-.94,1.43l-.51.36a1.1,1.1,0,0,0-1.28,1,3.92,3.92,0,0,1-2.28,1.91,1.11,1.11,0,0,0-1.27,1l-2.74,2.73a1.24,1.24,0,0,0,.27,1.54c5.88,15.25-2.32,32.6-17.8,37.41C559.89,557.57,554.79,557.13,549.72,556.56Z"/><path class="cls-3" d="M308.83,644.45c0,16.28.13,32.57,1.13,48.83.11,1.76-.44,2.18-2.08,2.11a75.85,75.85,0,0,0-8.53,0c-2.32.17-3-.51-2.78-2.87.94-13,1.16-26.06,1.2-39.11.07-18,.05-35.91-1.19-53.83-.16-2.32.16-3.42,2.84-3.16a41.3,41.3,0,0,0,7.94,0c2.55-.24,2.83.85,2.67,3C309,614.43,308.84,629.44,308.83,644.45Z"/><path class="cls-10" d="M528.58,138.77c-.88,0-1.4.58-2,1.11-2.47,2.26-2.54,1.9-4.58-.92-4.95-6.86-9.39-14.07-14.72-20.66-2.81-3.47-5.38-7.14-8.13-10.67a64.26,64.26,0,0,0-4.35-5.12c-1.4-1.47-2-2.65.33-3.74.26-.13.31-.68.46-1,13-3.9,26.53-.89,34.11,12.34a27.32,27.32,0,0,1,3,7.87c1.93,2,2.67,4.79,4.82,6.64a3.39,3.39,0,0,1,1,2.92,7.82,7.82,0,0,1-1.72.16c-2.81-.37-4.2.77-4.74,3.62A16,16,0,0,1,528.58,138.77Z"/><path class="cls-11" d="M651.69,469.18a9.63,9.63,0,0,1-1.29-.63c-4.24-2.88-4.19-2.82-8,.38-6.46,5.36-12.94,10.69-19.78,15.56l-.23.24a6,6,0,0,1-2.6,2.09,3.48,3.48,0,0,0-2.17.76c-.68.48-1.34,0-1.11-.62,1.15-3.13-.7-7.25,3.1-9.54a2.06,2.06,0,0,0,.93-2c6-4.89,11.94-9.81,18-14.65,1.65-1.32,2.25-2.44,1.19-4.62a32,32,0,0,1-2.41-21.74c.57-2.47-.26-3.48-2.17-4.63-4.27-2.55-8.89-4.5-12.84-7.57-.76-3.17-2.2-6.33,0-9.48,5.72,3.09,11.45,6.14,17.12,9.3,1.72.95,2.87.86,4.27-.7,2.66-3,5.23-6.11,9.19-7.54-.35,2-3.06,2.33-2.92,4.76.66,11.21-1.18,22.33-1.19,33.53a72.55,72.55,0,0,1-1,8.11c-.31,2.72-.89,5.53,2.55,6.93A2.2,2.2,0,0,1,651.69,469.18Z"/><path class="cls-12" d="M651.69,469.18a2.2,2.2,0,0,0-1.39-2.1c-3.44-1.4-2.86-4.21-2.55-6.93a72.55,72.55,0,0,0,1-8.11c0-11.2,1.85-22.32,1.19-33.53-.14-2.43,2.57-2.8,2.92-4.76v0c1.71-.06,3.27-.43,4.15-2.12a2.58,2.58,0,0,1,2-.79l.16-.06a7,7,0,0,1,4.4-.9c-.21,7.36-.18,14.74-.68,22.08-.64,9.4-.92,18.82-2.1,28.2-.53,4.23-1.81,8.67-.18,13A6.29,6.29,0,0,1,657,472c-1.23-1.9-3.17-2.47-5.25-2.74Z"/><path class="cls-9" d="M685.82,469.58c1.76-1.78,3.47-3.61,5.3-5.31,1.41-1.3,1.6-2.56,1.47-4.58a70.22,70.22,0,0,1,.54-14c.6-4.35-.06-8.77,1-13.07.16-.65-.12-1.43.1-2,1.87-5-.38-8.58-3.71-11.92-.87-.88-2.06-1.56-2.28-3a26.93,26.93,0,0,1,9.53,10.44c1.32,2.64,2.86,2.95,5.29,2.15,1.85-.61,3.77-1,5.66-1.54l18.34-5c-.84,1.14-2.2,1.21-3.37,1.53-3.06.84-5.45,1.54-4.45,5.95.46,2,.54,2.91,2.59,2.86-5.65,2.17-11.59,3.4-17.36,5.18-1.82.56-2.67,1.36-2.63,3.47a41.05,41.05,0,0,1-.78,8.57c-.5,2.43.57,3.22,2.53,4q11.91,4.85,23.43,10.59c-1.41-.18-3-.81-4.22-.45-2.13.63.23,2.61-.77,4-.84,1.19.18,2.36,1.46,3.27,1,.73,2.85.49,3,2.3L703.72,463c-1-.43-2-.85-2.93-1.33-2.67-1.35-4.8-1.57-6.94,1.34A18.73,18.73,0,0,1,685.82,469.58Z"/><path class="cls-3" d="M404.49,574.4a3.87,3.87,0,0,1-.33-.79c-.32-6.52.76-7.85,7.27-9,11.71-2,19,3.91,19.59,15.83.38,7.53-2.08,14.25-5.81,20.62A92.44,92.44,0,0,1,413,616.87l-2,2.19c6.14,0,12,.07,17.82,0,1.61,0,2.79-.07,2.45,2-.25,1.53,1.14,3.83-2.31,3.73-7.06-.2-14.12,0-21.19-.09-1.28,0-3.44.77-3.72-.55-.43-2-1-4.45.78-6.42,2.18-2.39,4.34-4.81,6.4-7.3,5.07-6.15,9.83-12.5,11.63-20.5a28.73,28.73,0,0,0,.29-12.55c-1.44-6.64-6.59-9.34-12.87-6.78A22.28,22.28,0,0,0,404.49,574.4Z"/><path class="cls-7" d="M793.43,494c-3.69-.35-6.55-3-10.07-3.67-1.37-.28-3-2.29-4.17.31a4.5,4.5,0,0,0,2,6,57,57,0,0,1,10.07,5.75c-5.93-2-11.37-5.16-17.14-7.57-3.78-1.58-7.45-3.46-11.17-5.2l-.79-.42-.22,0-.14-.18-.84-.43a3.53,3.53,0,0,1-2.24-1l-.19-.1-.84-.37c-.32-1.08-1.26-.72-2-.87l-1.17-.47-.13-.05-1-.41a.41.41,0,0,0-.35-.17l-.71-.25c-1.33-2.13-4-2.17-5.75-3.75-.67-.61-1.68-1.16-1.12-2,1-1.54,0-3.68.8-4.57,1.14-1.3,2.93.7,4.54.63h.88l.65.24c1,1.75,2.68,2,4.45,2.18l1,.47.16.08,1,.4a.45.45,0,0,0,.34.18l.82.31.75.34,1.07.4a.35.35,0,0,0,.27.13c3.23,1.38,6.5,2.65,9.68,4.15C779.08,487.33,786.51,490.1,793.43,494Z"/><path class="cls-13" d="M647.63,130.59c1.4-1.58,2.88,0,4.31-.1.81-.08,1.89.46,2.37-.49.37-.74-.33-1.43-.77-2-1.67-2.35-2.3-5.18-3.52-7.74a3.9,3.9,0,0,0,2.91,1.77l39.78,7.46c1,.19,2.12.52,3.11-.2-3.1,1.58-6.2.55-9.3,0-.84-.14-1.78-.93-2.48-.22-.9.91.48,1.46.74,2.21,1.22,3.53,3.16,6.32,7.24,6.94.81.12,1.86.47,1,1.74-.72-1.52-2.26-1.42-3.55-1.68-8.36-1.66-16.72-3.3-25.1-4.83C658.83,132.39,653.35,130.76,647.63,130.59Z"/><path class="cls-10" d="M620.5,475.38a2.06,2.06,0,0,1-.93,2c-3.8,2.29-2,6.41-3.1,9.54-.23.63.43,1.1,1.11.62a3.48,3.48,0,0,1,2.17-.76c-6.41,5.27-12.69,10.71-19.28,15.74-3.31,2.53-6.27,5.57-10,7.52.31-.49.5-1.14.94-1.43,3.23-2.13,3.09-5.42,3.23-8.7.08-2.08-.62-2.63-2.49-1.94C601.44,490.29,610.84,482.67,620.5,475.38Z"/><path class="cls-13" d="M751.78,475.08h-.88c-1.61.07-3.4-1.93-4.54-.63-.78.89.18,3-.8,4.57-.56.88.45,1.43,1.12,2,1.73,1.58,4.42,1.62,5.75,3.75-6.61-2.94-13.38-5.52-19.7-9.1l-.11,0-.87-.44-.54-.25-.6-.23-.78-.36-1.14-.42-.23-.12-.88-.35a.83.83,0,0,0-.4-.22l-.68-.27c-.19-1.81-2-1.57-3-2.3-1.28-.91-2.3-2.08-1.46-3.27,1-1.41-1.36-3.39.77-4,1.26-.36,2.81.27,4.23.45l.71.27c.23,1.2,1.27.75,2,1l.22,0,.13.19.83.42,1.18.49,0,0,1.1.52.15.08A165.35,165.35,0,0,1,751.78,475.08Z"/><path class="cls-5" d="M466.76,128.68c-.16.71-1,1.59-.22,2.1,2.2,1.39,2.68,4.24,4.93,5.52-9.15,2.45-18.42,4.37-27.68,6.28.68-1.33,2.06-1.19,3.22-1.49.84-.22,1.62-.67,1.36-1.54-.59-2-2.66-3-3.55-4.84-.35-.75-1.58.06-2.42,0s-1.76,1-2.69.07C448.62,132.26,457.66,130.36,466.76,128.68Z"/><path class="cls-11" d="M538.61,127.51a3.39,3.39,0,0,0-1-2.92c-2.15-1.85-2.89-4.67-4.82-6.64,1.15.81,2.44.46,3.68.42q10.51-.28,21-.61c-.13,1.68.71,2.91,1.68,4.21s2.38,2.5,1.27,4.39Z"/><path class="cls-12" d="M560.41,126.36c1.11-1.89-.36-3.16-1.27-4.39s-1.81-2.53-1.68-4.21l5.28-.24a3.27,3.27,0,0,1,.53,0,61.4,61.4,0,0,1,14.2-.91c-1.24,1.88-.13,3.25,1.06,4.54s2.35,2.26,2.51,4Z"/><path class="cls-14" d="M885.52,602.13a27.65,27.65,0,0,1,8.09-8.14A18.35,18.35,0,0,1,885.52,602.13Z"/><path class="cls-14" d="M852.74,594a28.47,28.47,0,0,1,8.12,8.17A18.64,18.64,0,0,1,852.74,594Z"/><path class="cls-13" d="M742.17,127c-3.58-2.31-6.16-5.7-9.2-8.59C737.05,120.16,739.78,123.39,742.17,127Z"/><path class="cls-14" d="M895.41,226a27.42,27.42,0,0,1-8.15-8.15A21.69,21.69,0,0,1,895.41,226Z"/><path class="cls-14" d="M850.65,214.21c-3.81-1.08-6.19-3.82-8.13-7.05A55.65,55.65,0,0,1,850.65,214.21Z"/><path class="cls-14" d="M833,198.9a13.19,13.19,0,0,1-8-7.18Z"/><path class="cls-13" d="M703.61,120.12c-2.26,2.76-4.09,5.9-7,8.06A19.41,19.41,0,0,1,703.61,120.12Z"/><path class="cls-14" d="M856.67,219.13a6.33,6.33,0,0,1-5.32-4.3c.18,0,.43,0,.53.15,2.55,3,5.4,4.26,9,1.63C860.11,218.53,858.22,218.55,856.67,219.13Z"/><path class="cls-14" d="M841.2,206c-3.5-1-5.79-3.4-7.53-6.44A49.75,49.75,0,0,1,841.2,206Z"/><path class="cls-13" d="M724.05,115.4a20,20,0,0,1-8.62,0A28.31,28.31,0,0,1,724.05,115.4Z"/><path class="cls-14" d="M898.94,244.72a18,18,0,0,1,0-8.71A25.48,25.48,0,0,1,898.94,244.72Z"/><path class="cls-14" d="M877.24,214.31a17.87,17.87,0,0,1-8.72,0A25.79,25.79,0,0,1,877.24,214.31Z"/><path class="cls-7" d="M791.9,161.27a8.34,8.34,0,0,1-4.9,4.66A11.48,11.48,0,0,1,791.9,161.27Z"/><path class="cls-11" d="M651.72,469.21c2.08.27,4,.84,5.25,2.74A12.45,12.45,0,0,1,651.72,469.21Z"/><path class="cls-13" d="M708.88,117.13c-1.16,1.92-3.2,2.27-5.1,2.86A9.82,9.82,0,0,1,708.88,117.13Z"/><path class="cls-7" d="M772.16,161.2c-1.74-.18-3.44-.43-4.39-2.18A10.38,10.38,0,0,1,772.16,161.2Z"/><path class="cls-9" d="M678.25,472.87c1-1.26,2.49-1.21,3.89-1.37A6.68,6.68,0,0,1,678.25,472.87Z"/><path class="cls-14" d="M850.21,588.18a9.52,9.52,0,0,1,1.82,4.54A6.37,6.37,0,0,1,850.21,588.18Z"/><path class="cls-14" d="M882.56,603.78a2.15,2.15,0,0,1,2.54-1.37A3.09,3.09,0,0,1,882.56,603.78Z"/><path class="cls-14" d="M896.35,576.93c-1-.87-.87-2.08-.89-3.24A3.76,3.76,0,0,1,896.35,576.93Z"/><path class="cls-13" d="M729,116.46c-.82-.25-1.88.35-2.44-.73A2.63,2.63,0,0,1,729,116.46Z"/><path class="cls-4" d="M854.22,561.7c1.27.13,1.68.63.73,1.71A1.92,1.92,0,0,1,854.22,561.7Z"/><path class="cls-14" d="M879.6,604.8c.49-1,1.44-.77,2.28-.78A2.15,2.15,0,0,1,879.6,604.8Z"/><path class="cls-14" d="M864.46,604c.85,0,1.8-.28,2.29.78A2.17,2.17,0,0,1,864.46,604Z"/><path class="cls-13" d="M755.76,486.17c.72.15,1.66-.21,2,.87A2.13,2.13,0,0,1,755.76,486.17Z"/><path class="cls-7" d="M792.25,502.67c.7.19,1.66-.24,2,.84A2.18,2.18,0,0,1,792.25,502.67Z"/><path class="cls-14" d="M892.45,568.19c-1.06-.13-1.12-.88-1.07-1.7A1.85,1.85,0,0,1,892.45,568.19Z"/><path class="cls-14" d="M893.6,570c-1-.12-1.11-.85-1.07-1.65A1.5,1.5,0,0,1,893.6,570Z"/><path class="cls-14" d="M896.7,252.33c-.07-.77-.11-1.51.9-1.71A1.66,1.66,0,0,1,896.7,252.33Z"/><path class="cls-9" d="M683,471.25c.15-.95.92-.83,1.58-.92A1.67,1.67,0,0,1,683,471.25Z"/><path class="cls-13" d="M650,119c0-1-.07-2-.11-3A5.83,5.83,0,0,1,650,119Z"/><path class="cls-14" d="M894.31,256.38c0-.81.07-1.53,1.09-1.64A1.73,1.73,0,0,1,894.31,256.38Z"/><path class="cls-14" d="M880.78,214.89c-.62.69-.95.36-1.18-.32A.89.89,0,0,1,880.78,214.89Z"/><path class="cls-14" d="M850.22,575.25c.07.78.3,1.58-.31,2.27A2.78,2.78,0,0,1,850.22,575.25Z"/><path class="cls-5" d="M438.5,135c-.22.71-.56,1-1.16.31A1.06,1.06,0,0,1,438.5,135Z"/><path class="cls-14" d="M862.36,603c.73-.23,1.27-.1,1.42.75A1.27,1.27,0,0,1,862.36,603Z"/><path class="cls-7" d="M785.91,166.85a2,2,0,0,1-2.23-.3Z"/><path class="cls-14" d="M898.67,233.64c-.68-.24-1-.56-.33-1.18A.88.88,0,0,1,898.67,233.64Z"/><path class="cls-2" d="M409.06,346.68c.3-.59.66-.73,1.11-.14A.92.92,0,0,1,409.06,346.68Z"/><path class="cls-2" d="M393.2,345.35c.54-.62.87-.37,1.11.27Z"/><path class="cls-10" d="M588.66,511.47a1.1,1.1,0,0,1,1.28-1A1.33,1.33,0,0,1,588.66,511.47Z"/><path class="cls-10" d="M585.11,514.35a1.11,1.11,0,0,1,1.27-1A1.33,1.33,0,0,1,585.11,514.35Z"/><path class="cls-10" d="M582.64,518.62a1.24,1.24,0,0,1-.27-1.54Z"/><path class="cls-14" d="M849.88,586.42a1.65,1.65,0,0,1,.32,1.72A1.45,1.45,0,0,1,849.88,586.42Z"/><path class="cls-14" d="M896.07,588.56a1.59,1.59,0,0,1,.33-1.53A1.2,1.2,0,0,1,896.07,588.56Z"/><path class="cls-7" d="M798.2,158l-.58.24C797.69,157.88,797.89,157.83,798.2,158Z"/><path class="cls-14" d="M898.44,248.15a.79.79,0,0,1,.29-1A.65.65,0,0,1,898.44,248.15Z"/><path class="cls-9" d="M731.21,475l.54.25C731.47,475.39,731.22,475.46,731.21,475Z"/><path class="cls-14" d="M895.48,590.3a.75.75,0,0,1,.39-.94A.64.64,0,0,1,895.48,590.3Z"/><path class="cls-14" d="M864.32,215a.78.78,0,0,1-1,.44A.72.72,0,0,1,864.32,215Z"/><path class="cls-14" d="M866.06,214.51a.8.8,0,0,1-1,.29C865.33,214.43,865.63,214.26,866.06,214.51Z"/><path class="cls-7" d="M796.29,504.46l.89.48A.64.64,0,0,1,796.29,504.46Z"/><path class="cls-13" d="M761,488.55l.84.43C761.42,489.12,761.12,489,761,488.55Z"/><path class="cls-14" d="M824.37,191.09c-.71-.27-.72-.64-.15-1.08Z"/><path class="cls-13" d="M762.21,489.12l.79.42C762.59,489.67,762.32,489.56,762.21,489.12Z"/><path class="cls-9" d="M732.62,475.7l.11,0c-.06,0-.16.13-.16.12C732.38,475.66,732.4,475.61,732.62,475.7Z"/><path class="cls-13" d="M712.74,115.71l-.58.15C712.29,115.57,712.48,115.47,712.74,115.71Z"/><path class="cls-13" d="M711.06,116.15l-.63.3C710.53,116.12,710.73,116,711.06,116.15Z"/><path class="cls-7" d="M783.46,166.47l-.88-.34C783,166,783.31,166,783.46,166.47Z"/><path class="cls-9" d="M729.83,474.42l.78.36C730.23,474.93,729.94,474.85,729.83,474.42Z"/><path class="cls-2" d="M398.14,346.65l-.07.05Z"/><path class="cls-7" d="M763.53,157a.53.53,0,0,1-.38-.23C763.42,156.61,763.52,156.74,763.53,157Z"/><polygon class="cls-7" points="795.11 503.92 795.24 503.99 795.13 504.13 795.11 503.92"/><path class="cls-7" d="M764.74,157.59a.58.58,0,0,1-.44-.29C764.59,157.18,764.72,157.29,764.74,157.59Z"/><path class="cls-7" d="M765.93,158.18a.59.59,0,0,1-.45-.29C765.77,157.77,765.91,157.87,765.93,158.18Z"/><path class="cls-7" d="M767.13,158.76l-.48-.3Q767.1,158.28,767.13,158.76Z"/><polygon class="cls-7" points="796.39 158.72 796.29 158.77 796.29 158.57 796.39 158.72"/><path class="cls-7" d="M795.26,159.23l-.21.13C795,159.09,795,159,795.26,159.23Z"/><polygon class="cls-7" points="794.09 159.83 793.9 159.95 793.91 159.72 794.09 159.83"/><polygon class="cls-7" points="792.83 160.52 792.87 160.53 792.83 160.41 792.83 160.52"/><polygon class="cls-7" points="773.31 161.73 773.27 161.7 773.31 161.56 773.31 161.73"/><polygon class="cls-7" points="774.49 162.32 774.45 162.29 774.49 162.15 774.49 162.32"/><polygon class="cls-7" points="775.69 162.91 775.62 162.87 775.69 162.72 775.69 162.91"/><path class="cls-2" d="M391.67,344.89l-.06.05Z"/><polygon class="cls-7" points="776.89 163.5 776.77 163.43 776.89 163.29 776.89 163.5"/><polygon class="cls-7" points="778.08 164.09 777.95 164.01 778.07 163.87 778.08 164.09"/><path class="cls-7" d="M779.29,164.68l-.19-.12C779.34,164.3,779.38,164.38,779.29,164.68Z"/><path class="cls-7" d="M780.49,165.27l-.22-.13C780.52,164.87,780.56,165,780.49,165.27Z"/><path class="cls-7" d="M781.73,165.85a.85.85,0,0,1-.3-.15C781.7,165.42,781.75,165.56,781.73,165.85Z"/><path class="cls-2" d="M340,166.35l-.36.1.15-.17Z"/><path class="cls-14" d="M824.92,191.71l-.54-.61Z"/><path class="cls-14" d="M833.6,199.46l-.52-.47C833.45,198.93,833.63,199.08,833.6,199.46Z"/><path class="cls-14" d="M891.33,566.39c-.31-.06-.47-.21-.32-.54Z"/><path class="cls-14" d="M841.83,206.53l-.5-.46C841.69,206,841.86,206.16,841.83,206.53Z"/><path class="cls-14" d="M842.46,207.11l-.54-.5C842.29,206.58,842.47,206.74,842.46,207.11Z"/><path class="cls-14" d="M893.88,570.45a.2.2,0,0,1-.17-.28c.07,0,.16-.07.21,0a.23.23,0,0,1,.12.17C894,570.36,893.93,570.4,893.88,570.45Z"/><path class="cls-14" d="M894.58,571.65a.32.32,0,0,1-.25-.41C894.67,571.22,894.79,571.34,894.58,571.65Z"/><path class="cls-14" d="M895.1,572.8a.28.28,0,0,1-.18-.39l.33.22Z"/><path class="cls-14" d="M851.28,214.77l-.53-.48C851.12,214.24,851.29,214.4,851.28,214.77Z"/><polygon class="cls-14" points="882.33 215.4 882.14 215.34 882.26 215.2 882.33 215.4"/><path class="cls-14" d="M862.56,215.69l-.45.26C862.12,215.63,862.25,215.51,862.56,215.69Z"/><path class="cls-14" d="M883.73,215.92l-.53-.28C883.51,215.48,883.67,215.6,883.73,215.92Z"/><path class="cls-14" d="M861.38,216.25l-.44.31C860.92,216.22,861.05,216.08,861.38,216.25Z"/><path class="cls-14" d="M885,216.48l-.62-.36C884.72,216,884.91,216.13,885,216.48Z"/><path class="cls-14" d="M886.13,217.08l-.59-.39C885.91,216.56,886.08,216.73,886.13,217.08Z"/><path class="cls-14" d="M887.12,217.74l-.4-.34C887,217.31,887.15,217.42,887.12,217.74Z"/><polygon class="cls-7" points="786.45 166.37 786.47 166.36 786.41 166.27 786.45 166.37"/><path class="cls-14" d="M894.92,591.54a.29.29,0,0,1,.19-.4l.15.18Z"/><path class="cls-14" d="M895.83,226.51l-.33-.39C895.81,226.08,895.93,226.21,895.83,226.51Z"/><path class="cls-14" d="M894.33,592.71a.31.31,0,0,1,.23-.41l.13.2Z"/><path class="cls-14" d="M893.72,593.8a.23.23,0,0,1,.19-.31l.14.16Z"/><path class="cls-14" d="M896.55,227.7l-.39-.59C896.51,227.16,896.68,227.33,896.55,227.7Z"/><path class="cls-14" d="M897.12,228.88l-.36-.62C897.11,228.33,897.27,228.52,897.12,228.88Z"/><path class="cls-14" d="M897.6,230l-.28-.54C897.64,229.56,897.76,229.73,897.6,230Z"/><polygon class="cls-14" points="897.89 231.08 897.83 230.9 898.04 230.97 897.89 231.08"/><path class="cls-14" d="M897.84,249.84a.18.18,0,0,1,.12-.28l.11.2Z"/><path class="cls-14" d="M861,602.24a.31.31,0,0,1,.39.27C861.05,602.7,860.94,602.58,861,602.24Z"/><path class="cls-14" d="M852.46,593.51a.21.21,0,0,1,.17.29l-.32-.15Z"/><polygon class="cls-9" points="685.57 469.82 685.52 469.8 685.52 469.89 685.57 469.82"/><path class="cls-12" d="M661.12,473.31l.53.2C661.38,473.7,661.22,473.58,661.12,473.31Z"/><polygon class="cls-9" points="676.78 473.33 676.77 473.32 676.73 473.43 676.78 473.33"/><path class="cls-9" d="M727.18,473.31a.83.83,0,0,1,.4.22C727.32,473.69,727.21,473.56,727.18,473.31Z"/><polygon class="cls-9" points="728.46 473.88 728.69 474 728.53 474.1 728.46 473.88"/><path class="cls-14" d="M892.58,258.8l.32-.47Z"/><path class="cls-14" d="M893.78,257.09l.44-.57C894.3,256.88,894.13,257.06,893.78,257.09Z"/><path class="cls-12" d="M582.23,115.89c-.11.17-.21.34-.31.52C582,116.23,582.13,116.06,582.23,115.89Z"/><path class="cls-14" d="M895.49,254.57a.27.27,0,0,1,.23-.35l.12.19Z"/><path class="cls-10" d="M622.35,484.73l.23-.24v.24Z"/><path class="cls-13" d="M753.14,485.07a.41.41,0,0,1,.35.17C753.24,485.47,753.17,485.3,753.14,485.07Z"/><polygon class="cls-13" points="754.46 485.65 754.59 485.7 754.5 485.84 754.46 485.65"/><polygon class="cls-13" points="709.18 116.98 709.18 116.99 709.2 116.85 709.18 116.98"/><polygon class="cls-13" points="730.3 116.97 730.26 116.95 730.29 116.81 730.3 116.97"/><path class="cls-14" d="M896.11,253.48c.1-.15.2-.3.29-.45C896.58,253.36,896.44,253.48,896.11,253.48Z"/><polygon class="cls-13" points="758.58 487.41 758.77 487.51 758.61 487.64 758.58 487.41"/><path class="cls-11" d="M563.27,117.57a3.27,3.27,0,0,0-.53,0C562.93,117.26,563.11,117.31,563.27,117.57Z"/><polygon class="cls-13" points="731.5 117.54 731.38 117.46 731.51 117.34 731.5 117.54"/><polygon class="cls-13" points="732.59 118.13 732.61 118.13 732.63 118 732.59 118.13"/><polygon class="cls-13" points="742.44 127.37 742.43 127.37 742.56 127.36 742.44 127.37"/><path class="cls-13" d="M696.5,128.3a.53.53,0,0,1-.35.4Z"/><path class="cls-2" d="M370.76,164.08a124.8,124.8,0,0,1-15.31,5.75,1.42,1.42,0,0,1,1.05-1.24l13.27-4.88A.82.82,0,0,1,370.76,164.08Z"/><path class="cls-2" d="M347.76,172.84a1,1,0,0,1-1.15.5C346.76,172.63,347,172.05,347.76,172.84Z"/><path class="cls-2" d="M350.71,171.67a1,1,0,0,1-1.15.47C349.72,171.45,349.92,170.86,350.71,171.67Z"/><path class="cls-2" d="M353.66,170.51a1,1,0,0,1-1.16.51C352.64,170.29,352.84,169.69,353.66,170.51Z"/><path class="cls-2" d="M343.31,174.75l-.76.75Z"/><path class="cls-5" d="M568,305.45a128.59,128.59,0,0,1-18.2-.66c-2.74-.24-4.06.54-4.87,3.45A31.93,31.93,0,0,1,529,328.09a5.65,5.65,0,0,1-2.72,1,36.88,36.88,0,0,0-2.12-14.68,102.67,102.67,0,0,1-4-14.74c-.54-3.06-.59-6.2-3-8.62-.87-.87.43-2.12.17-3.08-.93-3.4-1.4-7.19-3.29-10-2.27-3.37-2.24-7.18-3.65-10.64,17.52-1.9,31.86,8.56,35.28,25.85.4,2.05,1.18,3.13,3.35,3.17,6.16.11,12.31.3,18.47.46Z"/><path class="cls-5" d="M525.06,329.54a10.92,10.92,0,0,1-4.69,1.56A4.83,4.83,0,0,1,525.06,329.54Z"/><path class="cls-1" d="M409.63,282.71a2.48,2.48,0,0,1,2.35.39C411.05,283.86,410.21,284.09,409.63,282.71Z"/><path class="cls-5" d="M506.23,267.74a.9.9,0,0,1,1.18-.29C507.18,268.22,506.85,268.57,506.23,267.74Z"/><path class="cls-1" d="M413.17,283.26a1.14,1.14,0,0,1,1.19.36C413.65,284.52,413.36,284,413.17,283.26Z"/><path class="cls-5" d="M500.4,269.66a.94.94,0,0,1,1.11-.49C501.36,269.83,501.15,270.37,500.4,269.66Z"/><path class="cls-5" d="M503.89,268.38a.93.93,0,0,1,1.16-.4C504.87,268.7,504.61,269.2,503.89,268.38Z"/><path class="cls-14" d="M856.68,550.48c2.3,1.62,3.43,4.08,4.65,6.48C858.7,555.58,857.69,553,856.68,550.48Z"/><path class="cls-14" d="M853.71,545.82a3,3,0,0,1,1.62,2.33l-1-.06A3.87,3.87,0,0,1,853.71,545.82Z"/><path class="cls-14" d="M855.51,548.69c.56.22,1,.51,1,1.22C855.75,549.83,855.39,549.45,855.51,548.69Z"/><path class="cls-14" d="M861.37,557c.87.25.88,1,1,1.71A1.62,1.62,0,0,1,861.37,557Z"/><path class="cls-7" d="M763.16,435.57l-.76-.42a.22.22,0,0,0-.27-.18l-.85-.65a21.26,21.26,0,0,0-7.57-7.56l-.08-.11-.42-.49-.13-.06V426a.85.85,0,0,0-.7-.88c-.78-1-1.87-.57-2.86-.61a23.12,23.12,0,0,0-2.63,0c-1.72.15-2-.71-2.18-2.25-.35-2.88.42-5,3-6.48a2.34,2.34,0,0,0,1.12-2.47,29.41,29.41,0,0,1,8.11-22,2.81,2.81,0,0,0,.78-3.39c.17-2.19-1.53-3.48-2.45-5.15-2.67-4.9-7.36-8.77-7.25-15.13,0-1.76.86-3.54-.24-5.42,2.25.22,2.66,2.72,4.6,2.77l0,.05c.14,1.58.35,3.11,2.32,3.48l0,0c0,.85,0,1.67,1.17,1.71l0,0c0,.86,0,1.69,1.18,1.71v0c0,.87,0,1.71,1.17,1.74v0c0,.88,0,1.72,1.17,1.74l0,0c-.1,1.26.18,2.24,1.68,2.36a.9.9,0,0,1,.65.84.36.36,0,0,0,.19.24,2,2,0,0,1,1,1.41l.36.46.18.09v.2l.27.75c1.58,2,3.38,2.61,6,1.78a26.87,26.87,0,0,1,14.77-.24c2.29.59,3.16-.22,4-2,3.88-7.79,7.82-15.54,11.76-23.29a13.59,13.59,0,0,1,1-1.42c1.9.52,1,2.09,1.07,3.19.14,2.79-.4,5.71,1.83,8-.37.9-.68,1.83-1.11,2.7-2.34,4.74-4.77,9.44-7.06,14.21-.92,1.91-2.3,4.24-.54,6a45.69,45.69,0,0,1,9.65,13.59l.18,1.12c-.9,1,0,1.63.41,2.37a26.26,26.26,0,0,1,0,6.45c-.28.39-.72.74-.81,1.17a29.21,29.21,0,0,1-10,16.7c-.85.72-1.94,1.39-2,2.76h0a44.72,44.72,0,0,0-10,3.89,51,51,0,0,1-12.4-.17l-.93-.25-.79-.16a.81.81,0,0,0-.95-.44l-.82-.3a.37.37,0,0,0-.43-.25l-.69-.26C765.5,435.75,764.36,435.61,763.16,435.57Z"/><path class="cls-7" d="M743,263.67c.08-.23.16-.47.23-.7s.27-.64.4-1c1.09-2.22-.62-3.34-1.79-4.7-6.59-7.66-9.14-16.24-5.9-26.14a26.31,26.31,0,0,1,30.25-17.83c1.72.33,3.38.92,5.08,1.39a1.38,1.38,0,0,0,1.2.66c.68,4.7,3.09,8.93,3.22,13.9.07,2.67,1.84,5.45,2.62,8.28a76,76,0,0,1,2.44,10.22c.19,1.37.61,2.74,2.39,2.88a10,10,0,0,1-2.9,4.32q-3.9,3.93-7.82,7.85l-.56.18a11.39,11.39,0,0,0-6.47,2.12,22.39,22.39,0,0,1-10.2-.16c-1.54-.34-2.9-.43-3.83,1.13l-.12.19-.54,1-.05.1c-.17.35-.35.7-.52,1.06l-.07.13-.51,1-.09.17-.39,1a.46.46,0,0,0-.19.34l-.3.8a.54.54,0,0,0-.26.48l-.23.65c-1.34.28-.87,1.37-1,2.2l-.35.83a.44.44,0,0,0-.22.38l-.27.75-.31.5,0,0a1.56,1.56,0,0,0-1.34,1c-.44.68-.52,1.95-1.7,1.66-.78-.2-.79-1.24-1.13-1.92-1.91-3.91-1.33-7.69.46-11.42A5.63,5.63,0,0,0,743,263.67Z"/><path class="cls-14" d="M805.22,404.45a45.69,45.69,0,0,0-9.65-13.59c-1.76-1.8-.38-4.13.54-6,2.29-4.77,4.72-9.47,7.06-14.21.43-.87.74-1.8,1.11-2.7,1.4-2.64,2.79-5.28,4.22-7.91.49-.91.75-2.07,2.07-2.21q-5.4,10.89-10.81,21.78a51.51,51.51,0,0,1-2.53,5c-1.8,2.81-1.5,5,1.07,7.31A21.76,21.76,0,0,1,805.22,404.45Z"/><path class="cls-14" d="M781.33,175.05q-15.83-7.31-31.65-14.64c-2.21-1-4.4-2.09-6.6-3.13,3.14-.34,5.54,1.56,8.18,2.71,9.17,3.44,17.49,8.68,26.55,12.32C779.22,172.87,780.79,173.34,781.33,175.05Z"/><path class="cls-14" d="M773.53,214c4-5.13,8-10.34,12.12-15.36,1.93-2.34,2.92-4.15.58-7a14.1,14.1,0,0,1-3.49-8.8c2,3.85,4,7.67,6,11.55.84,1.69-.25,3.12-1.27,4.24-3.75,4.1-7.09,8.52-10.49,12.91C776.12,212.65,775.31,214.12,773.53,214Z"/><path class="cls-14" d="M835.43,484.46c2.53-1.44,3-4.22,4.1-6.54,5.16-11,10.19-22,15.27-33.05a6.63,6.63,0,0,1-.81,4.26q-7.49,16.28-15.08,32.52C838.26,483.05,837.82,485.06,835.43,484.46Z"/><path class="cls-14" d="M851.38,393.18c-2.65-3.52-4.16-7.65-6.19-11.5-3.12-5.93-6.08-11.95-9.1-17.93,1.4.19,1.8,1.45,2.29,2.41,4.24,8.34,8.39,16.71,12.58,25.06A3.15,3.15,0,0,1,851.38,393.18Z"/><path class="cls-14" d="M772.41,262.85q3.92-3.93,7.82-7.85a10,10,0,0,0,2.9-4.32c2-2.21,2.25-5.3,3.84-7.71C786.66,250.57,779.68,260.1,772.41,262.85Z"/><path class="cls-14" d="M786.57,211.8c-1.05,2.23-2.87,3.87-4.45,5.69-1.42,1.63-2.16,3.06-.45,5.25,2.74,3.52,5,7.38,5.22,12.07-1.78-4.91-4.78-9.21-7.13-13.83a2.51,2.51,0,0,1,.08-2.54C781.65,215.79,783.54,213.21,786.57,211.8Z"/><path class="cls-14" d="M800.77,200.92c-4-1.38-6.38.71-8.51,3.86a35.8,35.8,0,0,1-5.67,7c1-4.14,4.31-6.79,6.74-10C795.38,199.08,797.66,198.88,800.77,200.92Z"/><path class="cls-3" d="M854.08,516.31c.07,4.54-2.35,8.09-4.72,11.62a39,39,0,0,1-3.23,3.73l-.64,0c.14-1.81,1.53-2.82,2.53-4.11a24.84,24.84,0,0,0,5.14-10.25A1.14,1.14,0,0,1,854.08,516.31Z"/><path class="cls-14" d="M853.16,441.46c-5.65-4.53-8.45-10.54-9.2-17.62,1.66,2.41,1.6,5.47,3.1,8s2.59,5.2,4.93,7.09A2.63,2.63,0,0,1,853.16,441.46Z"/><path class="cls-14" d="M824.3,202.91c-4.19-5.25-9.17-5-14.57-2.14a5.73,5.73,0,0,1-2,.19c3.21-1.76,6.58-3.32,10.25-3.32C821.3,197.64,822.89,200.32,824.3,202.91Z"/><path class="cls-3" d="M840.79,353.72l8.79,17.11c-.1,0-.24,0-.29-.06A47.94,47.94,0,0,1,840.79,353.72Z"/><path class="cls-14" d="M833.14,210.56a50.48,50.48,0,0,1-8.19-7.05A14.88,14.88,0,0,1,833.14,210.56Z"/><path class="cls-14" d="M842,218.22a51.77,51.77,0,0,1-7.53-6.49C838.11,212.55,840.23,215.16,842,218.22Z"/><path class="cls-14" d="M843.94,417.34a19.62,19.62,0,0,1,3.88-11.2Z"/><path class="cls-14" d="M847.82,406.14c1.1-2.7,3.26-4.54,5.29-6.48A8.57,8.57,0,0,1,847.82,406.14Z"/><path class="cls-3" d="M849.62,495.08a17.86,17.86,0,0,1,4,7.68A13.53,13.53,0,0,1,849.62,495.08Z"/><path class="cls-3" d="M844.91,489.79a18.13,18.13,0,0,1,4.72,5.3C847.28,494,845.28,492.63,844.91,489.79Z"/><path class="cls-14" d="M848.5,538c1.74,1.18,2.5,3,3.29,4.86A6.33,6.33,0,0,1,848.5,538Z"/><path class="cls-14" d="M836.07,363.72a15.57,15.57,0,0,1-2.87-5.29C835.16,359.65,835.74,361.62,836.07,363.72Z"/><path class="cls-14" d="M849.64,225.23l-2.9-2.86A2.57,2.57,0,0,1,849.64,225.23Z"/><path class="cls-14" d="M853.16,396.69a7.41,7.41,0,0,1-1.77-3.48C853.23,393.74,853.16,395.23,853.16,396.69Z"/><path class="cls-14" d="M846.62,534.66a3.75,3.75,0,0,1,1.7,2.87C846.82,537.13,846.67,535.92,846.62,534.66Z"/><path class="cls-3" d="M855.41,279.5a4.62,4.62,0,0,1-1.69,2.93C853.82,281.19,853.88,279.92,855.41,279.5Z"/><path class="cls-3" d="M851.9,285.4a5,5,0,0,1-1.68,3C850.26,287.12,850.3,285.82,851.9,285.4Z"/><path class="cls-3" d="M866.09,324.27a12.09,12.09,0,0,1,5.37.59C869.67,324.62,867.77,325.5,866.09,324.27Z"/><path class="cls-3" d="M859.61,272.45a5.37,5.37,0,0,1-1.74,3C857.93,274.15,857.94,272.82,859.61,272.45Z"/><path class="cls-14" d="M852,543.38c1.25.31,1.37,1.42,1.69,2.4C852.36,545.5,852.1,544.49,852,543.38Z"/><path class="cls-3" d="M853.78,503.91a1.72,1.72,0,0,1,.3,1.79C852.89,505.29,852.9,504.67,853.78,503.91Z"/><path class="cls-3" d="M853.7,282.46a2.09,2.09,0,0,1-1.13,1.82C852.55,283.43,852.52,282.56,853.7,282.46Z"/><path class="cls-14" d="M853.11,399.65c.54-1,.09-1.94.07-2.91C854,397.73,854.24,398.71,853.11,399.65Z"/><path class="cls-3" d="M863.21,266.6a2.58,2.58,0,0,1-1.19,1.85C862,267.55,861.9,266.62,863.21,266.6Z"/><path class="cls-3" d="M857.21,276.56a2,2,0,0,1-1.12,1.8C856.09,277.52,856.05,276.67,857.21,276.56Z"/><path class="cls-14" d="M846.69,222.32a1.72,1.72,0,0,1-1.51-1.2C846,221.14,846.68,221.31,846.69,222.32Z"/><path class="cls-3" d="M860.72,270.66a2.06,2.06,0,0,1-1.1,1.78C859.62,271.62,859.6,270.79,860.72,270.66Z"/><path class="cls-3" d="M844.88,488l0,1.76C844.14,489.22,844.15,488.63,844.88,488Z"/><path class="cls-14" d="M845.49,531.64l.64,0-.12,1.73C845.3,533,845.5,532.27,845.49,531.64Z"/><path class="cls-14" d="M772.46,215.4a1.38,1.38,0,0,1-1.2-.66l1.67-.09C772.77,214.9,772.61,215.15,772.46,215.4Z"/><path class="cls-14" d="M812.51,356.6l-1.11.15C811.67,356,812.06,356.08,812.51,356.6Z"/><path class="cls-14" d="M811.39,356.76a1,1,0,0,1-.75.89A.83.83,0,0,1,811.39,356.76Z"/><path class="cls-7" d="M795.42,494.74a.66.66,0,0,1,.92.42Z"/><path class="cls-14" d="M846,533.47a1,1,0,0,1,.54,1.11A.92.92,0,0,1,846,533.47Z"/><path class="cls-7" d="M794.39,494.33c.35-.22.55-.13.61.28Z"/><path class="cls-14" d="M833.16,358.36a1.06,1.06,0,0,1-.68-1A.93.93,0,0,1,833.16,358.36Z"/><path class="cls-7" d="M797.35,495.58l.19-.1.09.23A1,1,0,0,1,797.35,495.58Z"/><path class="cls-7" d="M798.44,496c.3-.12.47,0,.53.29Z"/><path class="cls-14" d="M782.4,176l-.6-.68A.63.63,0,0,1,782.4,176Z"/><path class="cls-14" d="M824.9,203.47c-.38,0-.57-.14-.57-.53Z"/><path class="cls-14" d="M833.74,211.11c-.38,0-.57-.13-.56-.51Z"/><path class="cls-14" d="M834.34,211.65c-.37.06-.55-.1-.53-.48Z"/><path class="cls-14" d="M773,214.62l.57-.57A.54.54,0,0,1,773,214.62Z"/><path class="cls-14" d="M842.57,218.78c-.38,0-.57-.14-.56-.52Z"/><path class="cls-14" d="M843.16,219.34c-.36,0-.54-.14-.53-.51Z"/><path class="cls-14" d="M843.76,219.89c-.37.06-.54-.1-.51-.47Z"/><path class="cls-14" d="M844.35,220.43c-.33,0-.49-.1-.46-.43Z"/><path class="cls-14" d="M844.94,220.92c-.3.07-.42,0-.4-.34Z"/><path class="cls-3" d="M861.08,270.16c.12.3,0,.42-.31.42A1.43,1.43,0,0,1,861.08,270.16Z"/><path class="cls-14" d="M854.31,442.67c-.19-.19-.37-.38-.55-.58Z"/><path class="cls-3" d="M863.84,266l-.66.62Z"/><path class="cls-14" d="M603.33,572.24c2.09.54,3.06-1.12,4.2-2.25A41.29,41.29,0,0,1,620,561c1.53,1.4,1.1,2.64-.32,3.81-.87.71-2,1.24-2.13,2.56-1.87,1.69-3.81,3.31-5.62,5.07A57.86,57.86,0,0,0,598,594a58.32,58.32,0,0,1,3.74-16.64,4.18,4.18,0,0,0,.53-2.17l.17-.11.2.06c.69-.07,1.88.22.81-1.12-.25-.6,1-1.23,0-1.81Z"/><path class="cls-4" d="M791.31,594.09c2.26-5.9,4.41-11.83,4.39-18.28,0-3.94,0-7.89-.05-11.84.56-.84,1.11-1.16,1.49.11,1.08,3.56,3.47,6.76,3,10.77,0,.38,0,1.34.51,1,2.51-1.72.7.9,1.21,1.14-2.37.88-1,3.26-1.88,4.72a1.42,1.42,0,0,0-.51,1.62l-.21.75c-.54.38-.5.93-.44,1.49l0,.23c-.72.59-.55,1.4-.54,2.17l0,.18a1.52,1.52,0,0,0-.48,1.7l-.18.69a.81.81,0,0,0-.46,1l-.08.16-.4.65h0a3.45,3.45,0,0,0-1.26,3.37c-.08.22-.15.45-.22.67-1.06.23-1,1.35-1.6,1.95-.73.77-.92,2.68-2.41,2-1.3-.63-1.17-2.09-.41-3.35A4.15,4.15,0,0,0,791.31,594.09Z"/><path class="cls-4" d="M763.25,691.79c-6,.36-11.83,1.88-17.85,1a.91.91,0,0,0,0-.54c.38-1.06,1.91-2,1.35-3-.7-1.31-2.39-.94-3.74-1-1,0-2,.27-2.84-.36,6.31.11,12.66.67,18.88-.79,9.52-2.25,18.25-6,24.72-13.78-1.1,3.23-3.81,5.27-6.29,7.07-3.69,2.7-6.91,5.93-10.62,8.58C765.6,689.86,763.92,690.21,763.25,691.79Z"/><path class="cls-4" d="M701.59,502.67c2.63.15,4.62,1.67,6.64,3.11l.7.46a.42.42,0,0,1,.46.23c.13,1,.9,1.08,1.7,1.06l.06,0a3.73,3.73,0,0,0,3.52,2.29l0,0c.07,1.11.85,1.2,1.71,1.17l.05,0,.58.53,0,0c0,1.46,1.49,2,2,3.15.31.76,1.57,1.45.75,2.24s-1.71-.3-2.47-.8c-2.33-1.51-4.21-3.81-7.25-4.07h0c-.49-1.74-1.94-1.73-3.33-1.84l-.19-.07a1,1,0,0,0-1-.51l-.16-.06a.92.92,0,0,0-1-.51l-.79-.32a.33.33,0,0,0-.41-.25l-.76-.27-.47-.3-.7-.21-.56-.36-1.17-.22c-.39-1.33-1.47-.92-2.38-1l-1.8-.38-.48-.23-.69-.18a1.42,1.42,0,0,0-1.61-.45l-1.94-.17c-.74-.65-1.6-.4-2.43-.28l-1.7-.2-1.46-.93C690.69,502.84,696.05,501.28,701.59,502.67Z"/><path class="cls-4" d="M638.77,690.09c.67-1,0-2,0-3a1,1,0,0,0-.49-1.21l0-.08-.3-.5-.28-.67c.21-2.25-1.49-3.95-1.76-6-.09-.73-.39-1.66.62-2s1.1.54,1.46,1.09c.94,1.44,1.54,3.13,3.1,4.1l0,.07a2,2,0,0,0,1.18,2.28l0,0c.13,1.73.48,3.33,2.29,4.13l0,.06a3.52,3.52,0,0,0,2.38,3.46h0a2.56,2.56,0,0,0,2.3,2.95l0,.05a2.46,2.46,0,0,0,2.35,2.29l0,0c0,.39,0,.77,0,1.15a23.26,23.26,0,0,1-11.17-7.75c-.41-.1-.85-.61-1.2.08l.05,0c.39-.81,0-.84-.64-.65Z"/><path class="cls-14" d="M597.6,595.17a3.42,3.42,0,0,1-.84,3C596.22,596.9,596.76,596,597.6,595.17Z"/><path class="cls-15" d="M602.61,575.15l-.2-.06-.17.11c-.06-1.16-.25-2.37,1.14-3,1,.58-.21,1.21,0,1.81Z"/><path class="cls-4" d="M784,673a2.54,2.54,0,0,1,1.54-2.1A2,2,0,0,1,784,673Z"/><path class="cls-14" d="M651.68,698.31c0-.38,0-.76,0-1.15a2.11,2.11,0,0,1,1.71,1.76Z"/><path class="cls-14" d="M653.45,699a4,4,0,0,1,2.32,1.71C654.68,700.53,653.65,700.3,653.45,699Z"/><path class="cls-14" d="M596.4,599.89a1.57,1.57,0,0,1-.16,1.78C595.54,601,595.55,600.42,596.4,599.89Z"/><path class="cls-14" d="M596.23,611.77a1.57,1.57,0,0,1,.12,1.76C595.59,613,595.53,612.4,596.23,611.77Z"/><path class="cls-4" d="M790.4,663.61a1.36,1.36,0,0,1,1-1.46C791.29,662.8,791.22,663.46,790.4,663.61Z"/><path class="cls-4" d="M785.67,670.68a1.25,1.25,0,0,1,1-1.41C786.58,669.91,786.47,670.54,785.67,670.68Z"/><path class="cls-15" d="M639.31,690.64c.35-.69.79-.18,1.2-.08-.11.29-.22.84-.33.84A.78.78,0,0,1,639.31,690.64Z"/><path class="cls-4" d="M802,577.53a.86.86,0,0,1-.11-.52,3,3,0,0,1,.28.34S802.08,577.47,802,577.53Z"/><polygon class="cls-4" points="798.27 648.66 798.15 648.5 798.38 648.47 798.27 648.66"/><polygon class="cls-4" points="797.77 649.73 797.66 649.77 797.78 649.77 797.77 649.73"/><polygon class="cls-4" points="797.16 650.88 797.13 650.96 797.19 650.98 797.16 650.88"/><path class="cls-4" d="M796,653.25l0,.11Z"/><path class="cls-4" d="M795.38,654.43l0,.12Z"/><path class="cls-4" d="M794.79,655.61l0,.11Z"/><polygon class="cls-4" points="794.21 656.78 794.18 656.85 794.24 656.88 794.21 656.78"/><polygon class="cls-4" points="793.64 657.98 793.54 658.02 793.65 658.03 793.64 657.98"/><polygon class="cls-4" points="793.02 659.23 792.87 659.15 793.07 659.15 793.02 659.23"/><path class="cls-4" d="M791.86,660.94l0,.11Z"/><path class="cls-4" d="M790.08,663.87a.17.17,0,0,0,0,.12Z"/><path class="cls-4" d="M788.9,665.66v0Z"/><path class="cls-4" d="M787.72,667.43v0Z"/><path class="cls-15" d="M638.72,690c.63-.19,1-.16.64.65C638.92,690.69,638.52,690.66,638.72,690Z"/><path class="cls-4" d="M796.56,652.07l0,.11Z"/><path class="cls-6" d="M569.37,418.73l-1.89.38a4.65,4.65,0,0,1-.58-2.54c.47-6.54-.7-13.1-.38-19.56.37-7.79-.3-15.53-.73-23.2-.32-5.68-.49-11.64-2.17-17.28a12.13,12.13,0,0,1-.25-2c4-.35,8-.48,11.94.75,2,.61,3.06,0,4.16-1.58,5.84-8.36,11.07-17.12,17.23-25.26a6.43,6.43,0,0,0,1.32-3.24,6,6,0,0,1-1.23,4.94c-1.89,2.52-.73,5.36-.51,8.05.15,1.7,1.43,2.09,3,1.43a161.9,161.9,0,0,1-11.53,18c-1.61,2.06-1.82,3.38.45,5.19a18.37,18.37,0,0,1,7,10.57,1.22,1.22,0,0,1,.17.29l.44,1,0-.05.54,1.8,0-.05a3.71,3.71,0,0,1,.54,2.3l.05.14c.84,5.89,1.18,11.77-.53,17.58l-.11,1.14,4.15,3c1.73,1.88.92,4.22,1.21,6.37.28,2-.46,2.76-2.35,2.69-5.17-4.18-9-2.66-13.32,2-4.1,4.39-9.9,6.51-16.06,7Z"/><path class="cls-2" d="M536.31,372a27.19,27.19,0,0,1,10.58-12.28,2.75,2.75,0,0,1-1.18,1.92C542.15,364.71,539.44,368.55,536.31,372Z"/><path class="cls-2" d="M547,359.66a17.76,17.76,0,0,1,7.5-3.74A17.42,17.42,0,0,1,547,359.66Z"/><path class="cls-2" d="M533.59,379.65a16.7,16.7,0,0,1,2.18-6.43A8.69,8.69,0,0,1,533.59,379.65Z"/><path class="cls-2" d="M533.13,382.6a1.85,1.85,0,0,1,.28-1.73C534.12,381.58,534.12,382.17,533.13,382.6Z"/><path class="cls-2" d="M548.44,414.5l-.14,0Z"/><path class="cls-10" d="M546.85,175.45c7.42-4.12,15.44-4.18,23.58-3.44,1.86,1.08,2.61,3,3.73,4.7,3.43,5.28,4.93,11.45,8.05,16.85a79,79,0,0,1,5.24,11.32c2.56,6.72,5.08,13.45,8.29,19.89a2.4,2.4,0,0,1-.93,1.81,1.39,1.39,0,0,0-.21.27,29.4,29.4,0,0,1-11.18,10.9c-2.47,0-4.32,1.73-6.56,2.39-1.08.31-1.36.3-1.8-.89-2.23-5.93-4-12.13-6.82-17.72-3.29-6.55-5.64-13.48-9.11-20a132.74,132.74,0,0,1-5.88-12.32A38.46,38.46,0,0,0,549,182,12.85,12.85,0,0,1,546.85,175.45Z"/><path class="cls-13" d="M705.66,213.48a27,27,0,0,1,0,6.66c-.62.8-.33,1.74-.39,2.62-.09.5-.17,1-.26,1.5l-.32.87-.42,1.51a.3.3,0,0,0-.14.32c-.07.26-.14.53-.22.79-1.39.34-1.52,1.69-1.94,2.67a17,17,0,0,1-5.35,6.72,3.08,3.08,0,0,1-1.86-2.48c-1.72-6.52-4.11-12.82-6.22-19.2-2.06-6.21-4.43-12.29-6.45-18.5-1.38-4.22-4.44-8-3.89-12.76,2.4,0,4.59.84,6.81,1.56a2,2,0,0,0,2.68-.9q6.64-10.56,13.4-21c1.2-1.86.17-3.06-1-4.34-4.05-4.36-6.63-9.38-6.89-15.44,1.07.22.89,1.15,1,1.87a23.13,23.13,0,0,0,6.55,12.14,5.42,5.42,0,0,1,1.29,6.21c-1,2.13-.43,4-.2,5.94.25,2.14,1.84,2.48,3.56,1.17,1.45-1.11,1.69-3.44,3.88-3.75-4.17,6.6-8.4,13.16-12.47,19.82-.89,1.45-2.63,2.82-1.49,4.95l.38.49.29.55c.05,1.77,1.17,2.59,2.71,3l.1.12c0,1.2.33,2.1,1.72,2.21l.06.11c.38,2,.89,4,2.72,5.2.08.23.15.47.23.7.07.82-.33,1.81.8,2.26.1.42.19.85.29,1.27-.72.61-.33.89.33,1.09.07.43.15.85.22,1.27C704.59,211.76,705.33,212.58,705.66,213.48Z"/><path class="cls-13" d="M716.42,167.88a2.79,2.79,0,0,1-2.23-.39C715.11,166.59,715.77,167.17,716.42,167.88Z"/><path class="cls-13" d="M734.56,163.48a1.65,1.65,0,0,1-1.6,1C733.08,163.51,733.79,163.45,734.56,163.48Z"/><path class="cls-13" d="M725.08,167.55a2.23,2.23,0,0,1-2,.37C723.67,167.41,724.4,167.62,725.08,167.55Z"/><path class="cls-13" d="M711.15,166.9l-1.73.55C709.69,166.32,710.27,166.14,711.15,166.9Z"/><path class="cls-13" d="M729.18,166.38a.59.59,0,0,1-.8.35Z"/><path class="cls-13" d="M727.41,167c-.17.31-.39.47-.74.25Z"/><path class="cls-13" d="M712.87,167.31a.8.8,0,0,1-1-.29Z"/><path class="cls-14" d="M742.39,157l-.25.09-.27,0C742,156.65,742.15,156.57,742.39,157Z"/><path class="cls-13" d="M740.52,158.25c0,.29-.11.45-.43.38Z"/><path class="cls-13" d="M736.89,161.74c.08.33-.06.41-.35.33A.53.53,0,0,1,736.89,161.74Z"/><polygon class="cls-13" points="736.18 162.33 736.18 162.55 735.98 162.48 736.18 162.33"/><path class="cls-13" d="M735.47,163a.11.11,0,0,0,.11,0Z"/><polygon class="cls-13" points="732.68 164.66 732.69 164.87 732.55 164.75 732.68 164.66"/><path class="cls-13" d="M731.62,165.27l0,.25-.25,0A.34.34,0,0,1,731.62,165.27Z"/><path class="cls-13" d="M730.46,165.85l-.07.23-.21-.07A.3.3,0,0,1,730.46,165.85Z"/><path class="cls-12" d="M584,168.81,596.93,147c-.08.76.1,1.71-.3,2.25-2.28,3.12-.13,5.42,1.29,7.86.61,1.06,1.14,1.49,2,0s1.45-3.2,3.32-3.78c-4,7.47-8.52,14.67-13,21.85-.18.3-.61.44-.92.66-.38-2.27-2.2-3.81-2.95-5.89A2,2,0,0,0,584,168.81Z"/><path class="cls-12" d="M606.32,150.38l-1.09.24C605.47,150,605.83,149.86,606.32,150.38Z"/><path class="cls-12" d="M604.41,151.68a.44.44,0,0,1-.42.58Z"/><path class="cls-12" d="M603.56,153l.05.24-.25.05A.5.5,0,0,1,603.56,153Z"/><path class="cls-12" d="M604.71,151.22l0,.2-.21,0A.4.4,0,0,1,604.71,151.22Z"/><path class="cls-9" d="M686.73,414.34l-.09,0Z"/><path class="cls-9" d="M687.05,414.72c.26-.09.39,0,.29.27A.84.84,0,0,0,687.05,414.72Z"/><path class="cls-10" d="M600.47,400.53c7.4,3.8,14.72,7.74,21.77,12.16-2.21,3.15-.77,6.31,0,9.48-6.51-2.79-12.37-6.78-18.63-10-1.47-.76-2.85-1.7-4.27-2.55,1.89.07,2.63-.72,2.35-2.69C601.39,404.75,602.2,402.41,600.47,400.53Z"/><path class="cls-11" d="M652.83,413.77a8.34,8.34,0,0,1,4.15-2.12C656.1,413.34,654.54,413.71,652.83,413.77Z"/><polygon class="cls-11" points="658.96 410.86 659.01 410.71 659.12 410.8 658.96 410.86"/><path class="cls-13" d="M737,418.82l10.69-3.13c-2.56,1.44-3.33,3.6-3,6.48.18,1.54.46,2.4,2.18,2.25a23.12,23.12,0,0,1,2.63,0l-17.25,4.66-.95.32-1,.22-1.41.42-.82.2-.92.34-.94.22-1.46.46-.75.16-1,.34-1.26.27c-2,.05-2.13-.83-2.59-2.86-1-4.41,1.39-5.11,4.45-5.95,1.17-.32,2.53-.39,3.37-1.53l.85-.21.87-.3,1-.27,1.34-.4.91-.2.8-.26,1.15-.3,1.26-.42.89-.22Z"/><path class="cls-13" d="M752.43,475.32a9.94,9.94,0,0,1,4.45,2.18C755.11,477.36,753.41,477.07,752.43,475.32Z"/><path class="cls-13" d="M760.17,478.94c.39-.2.65-.09.75.34Z"/><path class="cls-13" d="M759,478.45c.28-.27.35-.12.34.18A.45.45,0,0,1,759,478.45Z"/><polygon class="cls-13" points="757.89 477.97 758.03 477.83 758.05 478.05 757.89 477.97"/><path class="cls-13" d="M762,479.68l.19-.11.08.24A.35.35,0,0,1,762,479.68Z"/><path class="cls-9" d="M727.71,464.17a2.5,2.5,0,0,1,2,1C729,464.92,727.94,465.37,727.71,464.17Z"/><path class="cls-9" d="M730.05,465.29c.41-.12.71,0,.83.42Z"/><polygon class="cls-9" points="732.06 466.2 732.09 466.08 732.09 466.23 732.06 466.2"/><polygon class="cls-9" points="733.19 466.75 733.31 466.64 733.34 466.83 733.19 466.75"/><path class="cls-9" d="M678.21,184.2c-.55,4.8,2.51,8.54,3.89,12.76,2,6.21,4.39,12.29,6.45,18.5,2.11,6.38,4.5,12.68,6.22,19.2a3.08,3.08,0,0,0,1.86,2.48c-2,2.51-4.44,4.61-6,7.43a.28.28,0,0,1-.34.24l-.13.12-.86.52c-1.18,0-2.28.16-2.77,1.46a.43.43,0,0,1-.49.18l-.57.33-1,.34-.09,0-1.66.56-.11,0-1.84.49a.56.56,0,0,0-.45.12c-3.4.82-6.84.53-10.28.31-1.51-5.51-2.51-11.23-4.69-16.47-2.43-5.82-3.61-12-5.93-17.81-2.84-7.13-5.5-14.32-8.24-21.48.66-1.57,2.65-2.15,2.94-4l.92-.69.81-.39c3.79-1.84,7.34-4.31,11.78-4.4l1.74-.3a22.32,22.32,0,0,1,6.63,0l1.67.3Z"/><path class="cls-11" d="M642.24,326a27.43,27.43,0,0,1-16.51,7.77l-1,.16a19.66,19.66,0,0,1-7.83,0c-.39-1-1.65-1.43-1.58-2.68.33-5.46-1.6-10.65-2.37-16a230.89,230.89,0,0,0-7.15-30.85A36.18,36.18,0,0,1,604,273.84l.52-.23c1.26,0,2.51,0,3-1.55a10.07,10.07,0,0,1,5.39-2.11c5.92-.56,11.87-1.17,17.71.62a.88.88,0,0,0,.5.12.45.45,0,0,1,.53.08,18.7,18.7,0,0,0,1,7.78c2.65,6.4,3.22,13.31,4.86,20a111,111,0,0,1,3.17,16.68C641.05,318.8,642.92,322.2,642.24,326Z"/><path class="cls-10" d="M604,273.84a36.18,36.18,0,0,0,1.84,10.59A230.89,230.89,0,0,1,613,315.28c.77,5.31,2.7,10.5,2.37,16-.07,1.25,1.19,1.71,1.58,2.68-2.6.14-5-.81-7.37-1.61-4-1.33-5.21-.88-7.41,2.91-.52.9-.6,2.1-1.71,2.62-1.18,0-1.18.88-1.18,1.73l0,0c-1.54.66-2.82.27-3-1.43-.22-2.69-1.38-5.53.51-8.05a6,6,0,0,0,1.23-4.94l-.52-.87a4.07,4.07,0,0,0-1.36-3.42c-1.82-1.7-2.69-4-4-6-1.67-2.44-.75-5.06-1.48-7.5a62.48,62.48,0,0,1-2-11.45c.08-.37.15-.75.23-1.12a4.63,4.63,0,0,0,1.62-4.68,1.63,1.63,0,0,1,.48-1.4l.08-.2.25-.8c2.15-2.15,4.15-4.41,5.08-7.4a12.07,12.07,0,0,1,4.47-4.42l.14-.14.48-.43-.09,0A5.78,5.78,0,0,1,604,273.84Z"/><path class="cls-12" d="M642.24,326c.68-3.75-1.19-7.15-1.52-10.76a111,111,0,0,0-3.17-16.68c-1.64-6.65-2.21-13.56-4.86-20a18.7,18.7,0,0,1-1-7.78,2.6,2.6,0,0,0,3.39-1.27q7.69-12.53,15.48-25c1-1.55.36-2.49-.76-3.53a35.13,35.13,0,0,1-7.59-10.71c-2.51-5.16-2.63-10.53-2.09-16,.78.71.46,1.79,1,2.67,2.52,4,3.22,8.64,4.66,13,1.06,3.24,1.45,6.81,4.19,9.23a4.55,4.55,0,0,1,1.66,5c-.75,2.4.77,4.34.8,6.56a1.74,1.74,0,0,0,1.55,1.55c.8.12,1.21-.56,1.6-1.11.83-1.18,1.45-2.58,3.17-2.75q-7.53,12-15,24.08c-1,1.67-2.45,3.35-.84,5.46.94,2.83,3,4.71,5.38,6.3a.65.65,0,0,1,.5.75c.19.85-.3,2.07,1.19,2.22v0c-.46,7,2,13.4,3.58,20l0,0c.27.59,1.36.84,1,1.57-.89,2.08-.12,3.87.62,5.75a1.78,1.78,0,0,1-.42,2.11l-1.35-.17c-.41-.44-.93-.34-1.43-.29-1.45,0-2.19.92-2.9,2.05C647.21,321.14,645.22,324,642.24,326Z"/><path class="cls-8" d="M658.74,248.37c-1.72.17-2.34,1.57-3.17,2.75-.39.55-.8,1.23-1.6,1.11a1.74,1.74,0,0,1-1.55-1.55c0-2.22-1.55-4.16-.8-6.56a4.55,4.55,0,0,0-1.66-5c-2.74-2.42-3.13-6-4.19-9.23-1.44-4.39-2.14-9.06-4.66-13-.56-.88-.24-2-1-2.67a6.6,6.6,0,0,1,.06-3c.89-.17.85-.86,1-1.55a22,22,0,0,1,2.81-8.18c1.91-3.07,5-5.08,7.19-7.93,2.74,7.16,5.4,14.35,8.24,21.48,2.32,5.82,3.5,12,5.93,17.81,2.18,5.24,3.18,11,4.69,16.47a9.91,9.91,0,0,1-5-.28.51.51,0,0,0-.42-.09C662.55,249.24,660.81,247.13,658.74,248.37Z"/><path class="cls-11" d="M584,168.81a2,2,0,0,1,2.35,1.23c.75,2.08,2.57,3.62,2.95,5.89-1.9,3.17,0,5,2,7.34,5.1,5.76,8.44,12.47,8.53,20.38.07,5.55.66,11.18-1.69,16.49-.71,1.59-1.15,3.32-2.41,4.63-3.21-6.44-5.73-13.17-8.29-19.89a79,79,0,0,0-5.24-11.32c-3.12-5.4-4.62-11.57-8.05-16.85-1.12-1.72-1.87-3.62-3.73-4.7a10,10,0,0,1,5.36,1.15c3.08,1.42,5.32,1,6.87-2.11a2.46,2.46,0,0,0,.17-.27l.85-1.44c.11-.17.21-.34.31-.51Z"/><path class="cls-6" d="M588.65,296a62.48,62.48,0,0,0,2,11.45c.73,2.44-.19,5.06,1.48,7.5,1.35,2,2.22,4.28,4,6a4.07,4.07,0,0,1,1.36,3.42,30.09,30.09,0,0,1-8.65-15.59c-.52-2.18-1.52-2.79-3.61-2.79a154.61,154.61,0,0,1-17.22-.48l-.57-8.62c6-.34,11.9.22,17.86.26C586.55,297.1,587.89,297.4,588.65,296Z"/><path class="cls-12" d="M651.12,193.54c-2.16,2.85-5.28,4.86-7.19,7.93a22,22,0,0,0-2.81,8.18c-.12.69-.08,1.38-1,1.55-.07-4.15,1.62-7.78,3.7-11.16a30.56,30.56,0,0,1,10.21-10.48C653.77,191.39,651.78,192,651.12,193.54Z"/><path class="cls-6" d="M596.39,280.36c-.93,3-2.93,5.25-5.08,7.4A17.55,17.55,0,0,1,596.39,280.36Z"/><path class="cls-6" d="M590.5,290.16a4.63,4.63,0,0,1-1.62,4.68A12.15,12.15,0,0,1,590.5,290.16Z"/><path class="cls-10" d="M607.53,272.06c-.49,1.51-1.74,1.54-3,1.55A4.34,4.34,0,0,1,607.53,272.06Z"/><path class="cls-13" d="M677.61,184.11l-1.67-.3A1.66,1.66,0,0,1,677.61,184.11Z"/><path class="cls-13" d="M669.31,183.78l-1.74.3A1.82,1.82,0,0,1,669.31,183.78Z"/><path class="cls-12" d="M655.79,188.48l-.81.39C655.06,188.34,655.52,188.59,655.79,188.48Z"/><polygon class="cls-6" points="591.06 288.56 590.98 288.76 590.87 288.62 591.06 288.56"/><path class="cls-11" d="M594.6,226.85a1.39,1.39,0,0,1,.21-.27l0,.22Z"/><polygon class="cls-6" points="601 275.8 600.86 275.94 600.82 275.76 601 275.8"/><path class="cls-6" d="M601.39,275.35l.09,0Z"/><path class="cls-12" d="M631.13,270.69a.88.88,0,0,1-.5-.12Z"/><path class="cls-13" d="M757.71,387.88c-6.73-9.7-13.55-19.35-20.15-29.15-1.78-2.64-3.39-3.89-6.56-2.24a8.85,8.85,0,0,1-5.07,1.11c.17-.89.89-.86,1.57-1,1.52-.26,2.3-1.25,1.92-2.72-1.23-4.85-.27-9.85-1.41-14.79a61.8,61.8,0,0,1-1.94-13.21c0-5.92-2-11.44-2.46-17.24-.48-5.57-2-11-3-16.56a9.4,9.4,0,0,1,4.66.15c3.18,1.09,4.57-.43,5.76-3.1,3.31-7.42,6.8-14.76,10.25-22.13.53-1.13.76-2.43,1.71-3.35a5.63,5.63,0,0,1-.78,3.37c-1.79,3.73-2.37,7.51-.46,11.42.34.68.35,1.72,1.13,1.92,1.18.29,1.26-1,1.7-1.66a1.56,1.56,0,0,1,1.34-1c-2.44,5.44-4.8,10.92-7.35,16.31-.89,1.89-.77,3,1,4.4q13.59,10.45,13.5,27.7c-.05,8.17-3.34,15.06-8.46,21.08-1.88,2.22-1.76,3.66-.26,5.77,2.77,3.91,5.35,7.94,8,11.92-1.94-.05-2.35-2.55-4.6-2.77,1.1,1.88.26,3.66.24,5.42-.11,6.36,4.58,10.23,7.25,15.13C756.18,384.4,757.88,385.69,757.71,387.88Z"/><path class="cls-14" d="M765.38,265.15a11.39,11.39,0,0,1,6.47-2.12A14.29,14.29,0,0,1,765.38,265.15Z"/><path class="cls-13" d="M754.73,368.48c-2-.37-2.18-1.9-2.32-3.48A7.26,7.26,0,0,1,754.73,368.48Z"/><path class="cls-13" d="M761.19,377.9c-1.5-.12-1.78-1.1-1.68-2.36A3.29,3.29,0,0,1,761.19,377.9Z"/><path class="cls-13" d="M747.1,275.26c.11-.83-.36-1.92,1-2.2A2.71,2.71,0,0,1,747.1,275.26Z"/><path class="cls-13" d="M758.31,373.76c-1.21,0-1.21-.87-1.17-1.74A1.87,1.87,0,0,1,758.31,373.76Z"/><path class="cls-13" d="M755.93,370.24c-1.17,0-1.18-.86-1.17-1.71A1.94,1.94,0,0,1,755.93,370.24Z"/><path class="cls-13" d="M757.13,372c-1.2,0-1.21-.85-1.18-1.71A1.85,1.85,0,0,1,757.13,372Z"/><path class="cls-13" d="M759.49,375.52c-1.21,0-1.21-.86-1.17-1.74A1.91,1.91,0,0,1,759.49,375.52Z"/><path class="cls-13" d="M763.82,381.89l-.27-.75C764,381.25,763.8,381.61,763.82,381.89Z"/><path class="cls-13" d="M746,277.72l.31-.5C746.39,277.53,746.27,277.69,746,277.72Z"/><path class="cls-13" d="M746.53,276.47a.44.44,0,0,1,.22-.38c0,.12,0,.24,0,.36S746.6,276.46,746.53,276.47Z"/><path class="cls-13" d="M762,379a.36.36,0,0,1-.19-.24C762.11,378.66,762.25,378.67,762,379Z"/><path class="cls-13" d="M763.38,380.85l-.36-.46C763.36,380.37,763.47,380.53,763.38,380.85Z"/><path class="cls-13" d="M748.31,272.41a.54.54,0,0,1,.26-.48C748.74,272.23,748.64,272.38,748.31,272.41Z"/><path class="cls-13" d="M748.87,271.13a.46.46,0,0,1,.19-.34l.14.16Z"/><polygon class="cls-13" points="749.46 269.84 749.54 269.67 749.68 269.81 749.46 269.84"/><polygon class="cls-13" points="750.05 268.63 750.12 268.5 750.26 268.62 750.05 268.63"/><polygon class="cls-13" points="750.64 267.44 750.69 267.34 750.84 267.43 750.64 267.44"/><polygon class="cls-13" points="751.23 266.31 751.35 266.12 751.44 266.29 751.23 266.31"/><path class="cls-9" d="M720.61,292.1c1,5.52,2.52,11,3,16.56.49,5.8,2.43,11.32,2.46,17.24A61.8,61.8,0,0,0,728,339.11c1.14,4.94.18,9.94,1.41,14.79.38,1.47-.4,2.46-1.92,2.72-.68.12-1.4.09-1.57,1-6,.15-12.16,1.34-17.95-1.49h.07l-1.18-.55-.08-.06-.19,0-.07-.18c-1.28-1.88-3.21-2.49-5.32-2.79l0,0c-1.36-3.19-4.33-5-6.56-7.36a18.11,18.11,0,0,1-4.83-8.93c-.79-4.81-1.84-9.66-2-14.55-.07-2.54-1.77-5.31.48-7.74v-.19l.16-.08.38-.57.24-.65.35-.52.23-.62c1.07-.16.94-1,1-1.74l.28-.66a.82.82,0,0,0,.32-.47l0,0a55.89,55.89,0,0,0,10-10.45,1.12,1.12,0,0,1,1-.78h-.08l1.16-.56.07-.05,1.06-.54.15-.09a3.25,3.25,0,0,1,2.25-1.09l.07,0,1.15-.54H708a13.49,13.49,0,0,1,6.26-1.73c.74-.09,1.55.17,2.22-.36A11.25,11.25,0,0,1,720.61,292.1Z"/><path class="cls-8" d="M688.29,314c-2.25,2.43-.55,5.2-.48,7.74.15,4.89,1.2,9.74,2,14.55a18.11,18.11,0,0,0,4.83,8.93c2.23,2.4,5.2,4.17,6.56,7.36-9.18-6-13.87-14.73-14.69-25.44-.24-3.12-1.34-4.13-4.16-4.69-9.22-1.81-18.4-3.85-27.6-5.81a1.78,1.78,0,0,0,.42-2.11c-.74-1.88-1.51-3.67-.62-5.75.31-.73-.78-1-1-1.57,3.85,2.21,8.3,1.72,12.43,2.73,6.06,1.49,12.2,2.61,18.32,3.83A8.28,8.28,0,0,0,688.29,314Z"/><path class="cls-8" d="M653.52,307.2c-1.54-6.6-4-13-3.58-20,2.88,5.14,3.77,10.71,3.61,16.52C653.52,304.88,653.53,306,653.52,307.2Z"/><path class="cls-14" d="M690.61,244.57c1.58-2.82,4.06-4.92,6-7.43a17,17,0,0,0,5.35-6.72c.42-1,.55-2.33,1.94-2.67C701.63,235.06,696.84,240.38,690.61,244.57Z"/><path class="cls-8" d="M701.22,298a55.89,55.89,0,0,1-10,10.45A30.28,30.28,0,0,1,701.22,298Z"/><path class="cls-8" d="M648.24,284.21c-2.39-1.59-4.44-3.47-5.38-6.3C644.9,279.8,647,281.66,648.24,284.21Z"/><path class="cls-14" d="M703.33,204.11c-1.83-1.25-2.34-3.19-2.72-5.2A12.94,12.94,0,0,1,703.33,204.11Z"/><path class="cls-14" d="M698.73,196.47c-1.54-.45-2.66-1.27-2.71-3A6.09,6.09,0,0,1,698.73,196.47Z"/><path class="cls-14" d="M686.51,246.91c.49-1.3,1.59-1.45,2.77-1.46A4.44,4.44,0,0,1,686.51,246.91Z"/><path class="cls-14" d="M700.55,198.8c-1.39-.11-1.75-1-1.72-2.21A3.29,3.29,0,0,1,700.55,198.8Z"/><path class="cls-14" d="M705.66,213.48c-.33-.9-1.07-1.72-.46-2.78A3.88,3.88,0,0,1,705.66,213.48Z"/><path class="cls-14" d="M704.36,207.07c-1.13-.45-.73-1.44-.8-2.26A2.79,2.79,0,0,1,704.36,207.07Z"/><path class="cls-8" d="M649.93,287.18c-1.49-.15-1-1.37-1.19-2.22A3.52,3.52,0,0,1,649.93,287.18Z"/><path class="cls-8" d="M690.59,309.59c0,.75.12,1.58-1,1.74A2,2,0,0,1,690.59,309.59Z"/><path class="cls-14" d="M705.28,222.76c.06-.88-.23-1.82.39-2.62A3.43,3.43,0,0,1,705.28,222.76Z"/><path class="cls-13" d="M716.44,292.15c-.67.53-1.48.27-2.22.36A2.72,2.72,0,0,1,716.44,292.15Z"/><path class="cls-14" d="M705,209.43c-.66-.2-1.05-.48-.33-1.09A.94.94,0,0,1,705,209.43Z"/><path class="cls-14" d="M685.45,247.42l.57-.33C686,247.44,685.76,247.52,685.45,247.42Z"/><path class="cls-14" d="M664.52,248.93a.51.51,0,0,1,.42.09Q664.66,249.33,664.52,248.93Z"/><path class="cls-14" d="M680.26,249a.56.56,0,0,1,.45-.12Q680.59,249.35,680.26,249Z"/><path class="cls-14" d="M704.7,225.13l.32-.87A.63.63,0,0,1,704.7,225.13Z"/><path class="cls-13" d="M743.62,262c-.13.31-.26.63-.4,1A.77.77,0,0,1,743.62,262Z"/><path class="cls-8" d="M688.82,313.12l-.38.57Z"/><path class="cls-8" d="M689.41,312l-.35.52Z"/><path class="cls-8" d="M691.19,308.46a.82.82,0,0,1-.32.47C690.76,308.62,690.9,308.49,691.19,308.46Z"/><polygon class="cls-8" points="702.11 297.17 702.19 297.18 702.16 297.1 702.11 297.17"/><path class="cls-14" d="M695.73,192.88l-.38-.49Z"/><polygon class="cls-8" points="703.34 296.56 703.27 296.61 703.27 296.43 703.34 296.56"/><polygon class="cls-8" points="704.55 295.93 704.4 296.02 704.41 295.81 704.55 295.93"/><polygon class="cls-8" points="706.87 294.79 706.8 294.84 706.79 294.66 706.87 294.79"/><polygon class="cls-8" points="707.96 294.24 708.02 294.25 708.02 294.18 707.96 294.24"/><path class="cls-14" d="M704.14,227a.3.3,0,0,1,.14-.32l.09.22Z"/><polygon class="cls-14" points="690.14 244.93 690.27 244.81 690.3 245 690.14 244.93"/><polygon class="cls-14" points="684.32 247.79 684.41 247.75 684.39 247.91 684.32 247.79"/><polygon class="cls-14" points="682.55 248.38 682.65 248.35 682.63 248.51 682.55 248.38"/><path class="cls-14" d="M793.07,435c0-1.37,1.11-2,2-2.76a29.21,29.21,0,0,0,10-16.7c.09-.43.53-.78.81-1.17C804.78,423.26,800.7,430.24,793.07,435Z"/><path class="cls-14" d="M753.71,426.76a21.26,21.26,0,0,1,7.57,7.56A20.94,20.94,0,0,1,753.71,426.76Z"/><path class="cls-14" d="M783,438.91a44.72,44.72,0,0,1,10-3.89A17.63,17.63,0,0,1,783,438.91Z"/><path class="cls-14" d="M763.16,435.57c1.2,0,2.34.18,2.85,1.51A3.66,3.66,0,0,1,763.16,435.57Z"/><path class="cls-14" d="M805.81,407.94c-.43-.74-1.31-1.4-.41-2.37A2.65,2.65,0,0,1,805.81,407.94Z"/><path class="cls-9" d="M728.94,430.08l1.41-.42A1.31,1.31,0,0,1,728.94,430.08Z"/><path class="cls-9" d="M724.8,431.3l1.46-.46A1.36,1.36,0,0,1,724.8,431.3Z"/><path class="cls-9" d="M723.06,431.8l1-.34A.75.75,0,0,1,723.06,431.8Z"/><path class="cls-14" d="M752.39,425.07a.85.85,0,0,1,.7.88A.85.85,0,0,1,752.39,425.07Z"/><path class="cls-14" d="M769.69,438.49l.93.25C770.21,439,769.92,438.87,769.69,438.49Z"/><path class="cls-9" d="M731.33,429.44l.95-.32A.72.72,0,0,1,731.33,429.44Z"/><path class="cls-9" d="M727.2,430.62l.92-.34A.66.66,0,0,1,727.2,430.62Z"/><path class="cls-14" d="M768,437.89a.81.81,0,0,1,.95.44A.68.68,0,0,1,768,437.89Z"/><path class="cls-14" d="M753.21,426.16l.42.49C753.26,426.68,753.14,426.51,753.21,426.16Z"/><path class="cls-14" d="M762.13,435a.22.22,0,0,1,.27.18C762.1,435.41,762.06,435.27,762.13,435Z"/><path class="cls-14" d="M766.7,437.34a.37.37,0,0,1,.43.25C766.82,437.8,766.69,437.68,766.7,437.34Z"/><path class="cls-1" d="M731.22,580c10.91,12.2,9.39,26.77,7.91,41.34-.67,1.64-1.34,3.27-2,4.91-2.67,2.2-4.2,5.36-6.58,7.83-7.67,8-16.87,12.23-28,12.33-1,0-2,.14-2.93.21l-4.89-.1c-1.33-1.08-3-1.31-4.59-1.8-12.4-3.87-20.64-12.11-25.51-24-.53-1.27-.43-3-2.17-3.57,1.15-1.64-.31-3.19-.19-4.79.29-4.49-.07-9,.83-13.46,1.86-9.25,6.79-16.53,13.84-22.58,1.24-1.06,2.81-1.8,3.55-3.4l4.12-2.22c2,0,3.79-.94,5.68-1.44,12-3.2,23.31-1.78,33.78,5.15,1.12.74,2.08,1.84,3.56,1.94A13.74,13.74,0,0,0,731.22,580Zm5.37,27.19A35,35,0,0,0,702,572.27c-18.76-.17-35.12,15.81-35.18,34.35-.06,19.1,15.9,35.17,35,35.22C720.58,641.88,736.54,626,736.59,607.14Z"/><path class="cls-13" d="M617.57,567.41c.14-1.32,1.26-1.85,2.13-2.56,1.42-1.17,1.85-2.41.32-3.81a35.55,35.55,0,0,1,18.76-6.44c.8,1.55.3,2.45-1.3,3.07s-3.05,1.45-4.57,2.19C627.81,562.39,622.25,564,617.57,567.41Z"/><path class="cls-14" d="M641,681.82c-1.56-1-2.16-2.66-3.1-4.1-.36-.55-.59-1.38-1.46-1.09s-.71,1.26-.62,2c.27,2.1,2,3.8,1.76,6-3.77-7.38-6.47-15-5.79-23.5,1.53.17,2.87.5,2.8,2.5,0,.93.71,1,1.41,1a3.17,3.17,0,0,1,.11,2.54c-.44.47,0,.81.17,1.19.24.65.47,1.31.71,2v-.1Q639,676.06,641,681.82Z"/><path class="cls-9" d="M632.91,559.86c1.52-.74,3-1.58,4.57-2.19s2.1-1.52,1.3-3.07c4.45-1.53,9-1.39,13.52-.6-.17,2-2.26,2.52-2.94,4.1C643.86,558.54,638.34,558.78,632.91,559.86Z"/><path class="cls-9" d="M638.67,642.61c-.15.57-.31,1.14-.47,1.71l0,.23L636,657c-1.39-1.14-.78-2.7-.57-4,.25-1.48.9-3.14-.81-3.73s-1.11,1.75-2.05,2.37c.45-4.8,1.36-9.47,3.89-13.67v0a.34.34,0,0,1,.2-.38c1.61-.25,2.33.4,2.16,2.06C638.67,640.69,638.7,641.65,638.67,642.61Z"/><path class="cls-10" d="M653.12,621.67a86.86,86.86,0,0,0-9.08,9.9c0-1.65.32-3.45-2.24-3.38a26,26,0,0,1,9.93-10.51C651.5,619.25,650.49,621.1,653.12,621.67Z"/><path class="cls-5" d="M653.12,621.67c-2.63-.57-1.62-2.42-1.39-4,2.84-3.13,6.82-4,10.56-5.36-.12,1.6,1.34,3.15.19,4.79C659.17,618.25,656.23,620.13,653.12,621.67Z"/><path class="cls-5" d="M684.63,570.66l-4.12,2.22-7.41-7.74,3.37-2.86C680,564.32,682.09,567.69,684.63,570.66Z"/><path class="cls-12" d="M641.8,628.19c2.56-.07,2.28,1.73,2.24,3.38l-5.37,11c0-1,0-1.92.1-2.87.17-1.66-.55-2.31-2.16-2.06C637.2,633.89,639.36,631,641.8,628.19Z"/><path class="cls-13" d="M632.52,651.68c.94-.62.37-3,2.05-2.37s1.06,2.25.81,3.73c-.21,1.27-.82,2.83.57,4a1.33,1.33,0,0,1,0,1.5l-.06,1.78a7.92,7.92,0,0,1,.19,4.42c-.7,0-1.44-.11-1.41-1,.07-2-1.27-2.33-2.8-2.5a12.15,12.15,0,0,1,.06-4.21c.82-1.49.07-3.14.49-4.68Z"/><path class="cls-10" d="M676.47,562.28l-3.37,2.86L665.88,561c0-1.29,3.39-1.35,1.22-3.41A18.37,18.37,0,0,1,676.47,562.28Z"/><path class="cls-12" d="M667.1,557.56c2.17,2.06-1.23,2.12-1.22,3.41a1.24,1.24,0,0,1-1.23-.39c-.31-.72-.91-.66-1.53-.58l-12.22-1.85c2,0,3.9-.07,5.84,0s3.22-.67,3.19-2.84A21.07,21.07,0,0,1,667.1,557.56Z"/><path class="cls-8" d="M659.93,555.26c0,2.17-1.23,2.87-3.19,2.84s-3.89,0-5.84,0a1,1,0,0,1-1.54,0c.68-1.58,2.77-2.15,2.94-4.1A14,14,0,0,1,659.93,555.26Z"/><path class="cls-9" d="M632.38,652.28c-.42,1.54.33,3.19-.49,4.68A9.8,9.8,0,0,1,632.38,652.28Z"/><path class="cls-10" d="M663.12,560c.62-.08,1.22-.14,1.53.58A1.45,1.45,0,0,1,663.12,560Z"/><path class="cls-14" d="M638.24,685.92a1,1,0,0,1,.49,1.21A1.06,1.06,0,0,1,638.24,685.92Z"/><polygon class="cls-12" points="636.41 638.05 636.41 638.01 636.32 638.04 636.41 638.05"/><path class="cls-14" d="M637.9,685.34l.3.5C637.91,685.79,637.76,685.65,637.9,685.34Z"/><path class="cls-14" d="M710.05,512.16c3,.26,4.92,2.56,7.25,4.07.76.5,1.57,1.66,2.47.8s-.44-1.48-.75-2.24c-.47-1.17-2-1.69-2-3.15,7.11,5.21,13,11.4,16,19.94-2.35,1-3.94-.6-5.66-1.69A63.43,63.43,0,0,0,710.05,512.16Z"/><path class="cls-9" d="M727.37,529.89c1.72,1.09,3.31,2.66,5.66,1.69a32.82,32.82,0,0,1,4.36,13c-1.31-1-2.85-.38-4.28-.57l-.11-.62-.29-.49C731.49,538.31,729.08,534.24,727.37,529.89Z"/><path class="cls-6" d="M738.72,562.42c-.54,3.73-2.11,7.16-3.15,10.75a3.42,3.42,0,0,1-2.05,2.27c1-2.58-.38-3.5-2.67-3.77l3.45-9.93C735.73,562.29,736.72,565.63,738.72,562.42Z"/><path class="cls-11" d="M738.72,562.42c-2,3.21-3-.13-4.42-.68a2.48,2.48,0,0,1,.14-2l.15-.12-.09-.16a33.24,33.24,0,0,1-.15-7.26c1.68.12,2.65,2,4.48,1.79C739.06,556.82,739.38,559.63,738.72,562.42Z"/><path class="cls-8" d="M738.83,554c-1.83.24-2.8-1.67-4.48-1.79-.41-2.75-.83-5.49-1.24-8.24,1.43.19,3-.45,4.28.57C739,547.53,738.93,550.77,738.83,554Z"/><path class="cls-5" d="M730.85,571.67c2.29.27,3.64,1.19,2.67,3.77a14.47,14.47,0,0,1-2.3,4.51,13.74,13.74,0,0,1-3.57-3.64Z"/><path class="cls-14" d="M706.71,510.31c1.39.11,2.84.1,3.33,1.84A6.56,6.56,0,0,1,706.71,510.31Z"/><path class="cls-14" d="M697.08,506.28c.91,0,2-.38,2.38,1A2.71,2.71,0,0,1,697.08,506.28Z"/><path class="cls-14" d="M688.13,504.59c.83-.12,1.69-.37,2.43.28A3,3,0,0,1,688.13,504.59Z"/><path class="cls-14" d="M692.5,505a1.42,1.42,0,0,1,1.61.45Z"/><path class="cls-14" d="M705.5,509.73a1,1,0,0,1,1,.51A.8.8,0,0,1,705.5,509.73Z"/><path class="cls-14" d="M704.32,509.16a.92.92,0,0,1,1,.51A.79.79,0,0,1,704.32,509.16Z"/><path class="cls-14" d="M694.8,505.67l.48.23C695,506.17,694.85,506,694.8,505.67Z"/><path class="cls-14" d="M700.63,507.45l.56.36C700.84,508,700.71,507.75,700.63,507.45Z"/><path class="cls-14" d="M701.89,508l.47.3C702,508.48,701.94,508.29,701.89,508Z"/><path class="cls-14" d="M703.12,508.59a.33.33,0,0,1,.41.25C703.22,509.05,703.15,508.86,703.12,508.59Z"/><path class="cls-8" d="M732.71,542.87l.29.49C732.76,543.28,732.54,543.18,732.71,542.87Z"/><polygon class="cls-6" points="734.5 559.48 734.59 559.64 734.44 559.76 734.39 559.6 734.5 559.48"/><path class="cls-14" d="M791.31,594.09a4.15,4.15,0,0,1-.59,2.82c-.76,1.26-.89,2.72.41,3.35,1.49.72,1.68-1.19,2.41-2,.57-.6.54-1.72,1.6-1.95-2.11,5.92-5.86,10.75-10.32,15-1.39,1.33-2.33,3.19-4.29,3.89a2,2,0,0,1-.42.39l0,.19h-.19l-.17.16-.82.41c-1.68-.34-1.91-1.14-1.12-2.67s2.66-2.54,3-4.47c.13-.23.26-.46.4-.69l0,0,.58-.63v0C785.5,603.79,788.29,598.86,791.31,594.09Z"/><path class="cls-8" d="M780.75,609.29c-.31,1.93-2.15,2.85-3,4.47s-.56,2.33,1.12,2.67a36.39,36.39,0,0,1-12,7l-.17.06-1.52.52c-3.42-.41-1.6-2.22-1-3.7A67.88,67.88,0,0,0,780.75,609.29Z"/><path class="cls-7" d="M740.13,687.91c.88.63,1.88.32,2.84.36,1.35,0,3-.33,3.74,1,.56,1-1,1.94-1.35,3-1.76.63-3.53-.89-5.29.06l-1.2-.14a5.54,5.54,0,0,0-3.94-1l-1.29-.26c-1.37-1.71-3.33-1.4-5.16-1.51l-.73-.37a.45.45,0,0,0,0-.34c.78-2.14,1.89-2.92,4.33-1.91,1.59.66,3.61.31,5.44.41l.9.24.91.31Z"/><path class="cls-8" d="M718.23,684.33A31.88,31.88,0,0,1,708,675.76a4.4,4.4,0,0,1,3.1-2.54c3.58,3.78,8.07,6.31,12.34,9.16-1,.12-1.84-.53-2.75-.79s-2.14-1.43-3.19-.33S718.09,683.27,718.23,684.33Z"/><path class="cls-13" d="M718.23,684.33c-.14-1.06-1.9-1.84-.72-3.07s2.15,0,3.19.33,1.72.91,2.75.79l.88.45.25.12c4.26,1.53,8.36,3.56,12.89,4.23-1.83-.1-3.85.25-5.44-.41-2.44-1-3.55-.23-4.33,1.91a2.35,2.35,0,0,1-.43.13l-.88-.44-.58-.2-.5-.3-.8-.27-1.1-.48-.08,0c-1.31-.67-2.89-.82-3.94-2l-.58-.35Z"/><path class="cls-12" d="M764.25,620.34c-.62,1.48-2.44,3.29,1,3.7-4.6,2-9.17,4.18-14.44,3.11.53-1.21,1.79-.35,2.56-.9s1.34-.91,1.31-1.78c0-1.16-1-.93-1.74-1-1.25-.09-2.5-.14-3.74-.21C754.39,623.25,759.34,621.91,764.25,620.34Z"/><path class="cls-12" d="M711.11,673.22a4.4,4.4,0,0,0-3.1,2.54c-2.15-1.07-3.22-3.12-4.53-5l0,.07c-.19-.32-.37-.64-.55-1a1.45,1.45,0,0,0-.33-.45l-.74-1c.84-2.84,2.68-.65,4.06-.8Z"/><path class="cls-6" d="M697.87,661.14c-1.77-2-1.53-4.73-2.53-7,2.92,1,3.89-.22,3.55-3.06a2.19,2.19,0,0,1,.5-2.17c.12,3.86,1.42,7.47,2.38,11.15A8.12,8.12,0,0,1,697.87,661.14Z"/><path class="cls-10" d="M697.87,661.14a8.12,8.12,0,0,0,3.9-1.09c1.37,2.54,2.75,5.07,4.13,7.61-1.38.15-3.22-2-4.06.8A12,12,0,0,1,697.87,661.14Z"/><path class="cls-5" d="M737.11,626.2c.68-1.64,1.35-3.27,2-4.91l6.22,1.82,0,3.89C742.5,627.56,739.88,626.19,737.11,626.2Z"/><path class="cls-6" d="M745.32,627l0-3.89a10.45,10.45,0,0,1,3.82.16c1.25.07,2.5.12,3.75.21.73.06,1.7-.17,1.74,1,0,.87-.67,1.33-1.31,1.78s-2-.31-2.56.9A9.36,9.36,0,0,1,745.32,627Z"/><path class="cls-5" d="M699.39,648.9a2.19,2.19,0,0,0-.5,2.17c.34,2.84-.63,4.06-3.55,3.06-1.08-1.13-.43-2.41-.3-3.64l.09-.21-.15-.18a5.72,5.72,0,0,1-.23-3.63l4.89.1C699.56,647.35,699.47,648.12,699.39,648.9Z"/><path class="cls-14" d="M795.36,595.68a3.45,3.45,0,0,1,1.26-3.37A4.87,4.87,0,0,1,795.36,595.68Z"/><path class="cls-14" d="M798.26,588c0-.77-.18-1.58.54-2.17A2,2,0,0,1,798.26,588Z"/><path class="cls-14" d="M797.74,589.83a1.52,1.52,0,0,1,.48-1.7A1.56,1.56,0,0,1,797.74,589.83Z"/><path class="cls-14" d="M799.48,583.31a1.42,1.42,0,0,1,.51-1.62A1.89,1.89,0,0,1,799.48,583.31Z"/><path class="cls-14" d="M798.83,585.55c-.06-.56-.1-1.11.44-1.49A1.64,1.64,0,0,1,798.83,585.55Z"/><path class="cls-14" d="M797.1,591.49a.81.81,0,0,1,.46-1A.71.71,0,0,1,797.1,591.49Z"/><path class="cls-13" d="M739.28,687.73l-.91-.31A.67.67,0,0,1,739.28,687.73Z"/><path class="cls-14" d="M796.62,592.3l.4-.65C797.13,592,797,592.22,796.62,592.3Z"/><path class="cls-8" d="M780.11,615.66a2,2,0,0,0,.42-.39Z"/><polygon class="cls-8" points="779.72 616.02 779.89 615.86 779.87 616.03 779.72 616.02"/><polygon class="cls-12" points="766.75 623.52 766.91 623.46 766.87 623.66 766.75 623.52"/><polygon class="cls-8" points="724.59 682.95 724.33 682.83 724.52 682.75 724.59 682.95"/><path class="cls-14" d="M728.48,689.39c1.83.11,3.79-.2,5.16,1.51A10.33,10.33,0,0,1,728.48,689.39Z"/><path class="cls-14" d="M644.57,688.32c-1.81-.8-2.16-2.4-2.29-4.13A9.86,9.86,0,0,1,644.57,688.32Z"/><path class="cls-14" d="M649.28,694.8a2.56,2.56,0,0,1-2.3-2.95A3.88,3.88,0,0,1,649.28,694.8Z"/><path class="cls-14" d="M740.07,692.31c1.76-.95,3.53.57,5.29-.06a.91.91,0,0,1,0,.54A12.49,12.49,0,0,1,740.07,692.31Z"/><path class="cls-14" d="M647,691.84a3.52,3.52,0,0,1-2.38-3.46A5.11,5.11,0,0,1,647,691.84Z"/><path class="cls-14" d="M651.67,697.14a2.46,2.46,0,0,1-2.35-2.29A3.21,3.21,0,0,1,651.67,697.14Z"/><path class="cls-14" d="M734.93,691.16a5.54,5.54,0,0,1,3.94,1A4.36,4.36,0,0,1,734.93,691.16Z"/><path class="cls-14" d="M642.26,684.17a2,2,0,0,1-1.18-2.28A2.62,2.62,0,0,1,642.26,684.17Z"/><path class="cls-9" d="M636.32,668.44c-.15-.38-.61-.72-.17-1.19A.86.86,0,0,1,636.32,668.44Z"/><path class="cls-9" d="M635.85,660.29l.06-1.78A1.58,1.58,0,0,1,635.85,660.29Z"/><path class="cls-8" d="M718.81,684.71l.58.35C719.1,685.1,718.82,685.13,718.81,684.71Z"/><path class="cls-14" d="M724.51,687.6l.8.27C725,687.94,724.63,688.11,724.51,687.6Z"/><path class="cls-14" d="M725.81,688.17l.58.2C726.13,688.5,725.87,688.61,725.81,688.17Z"/><polygon class="cls-12" points="638.17 644.55 638.2 644.32 638.35 644.46 638.17 644.55"/><path class="cls-6" d="M695,650.1l.15.18-.09.21A.24.24,0,0,1,695,650.1Z"/><path class="cls-10" d="M702.58,669.46a1.45,1.45,0,0,1,.33.45Z"/><path class="cls-9" d="M637,670.3v0Z"/><path class="cls-10" d="M703.46,670.87l0-.07Z"/><polygon class="cls-14" points="723.33 687.08 723.41 687.12 723.35 687.26 723.33 687.08"/><path class="cls-14" d="M727.27,688.81a2.35,2.35,0,0,0,.43-.13.45.45,0,0,1,0,.34C727.47,689.23,727.33,689.09,727.27,688.81Z"/><path class="cls-14" d="M714.67,509.86a3.73,3.73,0,0,1-3.52-2.29A4.81,4.81,0,0,1,714.67,509.86Z"/><path class="cls-14" d="M716.41,511.06c-.86,0-1.64-.06-1.71-1.17A1.62,1.62,0,0,1,716.41,511.06Z"/><path class="cls-14" d="M711.09,507.53c-.8,0-1.57,0-1.7-1.06A1.64,1.64,0,0,1,711.09,507.53Z"/><path class="cls-14" d="M708.93,506.24l-.7-.46Z"/><path class="cls-14" d="M717,511.62l-.58-.53C716.85,511.05,717,511.23,717,511.62Z"/><path class="cls-8" d="M781.71,608v0Z"/><path class="cls-8" d="M781.13,608.62l0,0Z"/><path class="cls-3" d="M602.61,575.15l.81-1.12C604.49,575.37,603.3,575.08,602.61,575.15Z"/><path class="cls-5" d="M569.37,418.73l.58-.15Z"/><path class="cls-10" d="M596.43,396.38c0,.38-.07.76-.11,1.14C596.36,397.14,596.39,396.76,596.43,396.38Z"/><polygon class="cls-10" points="596.34 376.41 596.39 376.45 596.37 376.37 596.34 376.41"/><polygon class="cls-10" points="595.75 374.66 595.8 374.69 595.79 374.61 595.75 374.66"/><path class="cls-10" d="M595.14,373.34l.22.08,0,.21A1.75,1.75,0,0,0,595.14,373.34Z"/><polygon class="cls-10" points="596.91 378.65 597.08 378.73 596.96 378.8 596.91 378.65"/><path class="cls-12" d="M584,168.83c-.1.17-.2.34-.31.51C583.79,169.17,583.89,169,584,168.83Z"/><path class="cls-12" d="M582.83,170.78a2.46,2.46,0,0,1-.17.27l-.06-.21Z"/><path class="cls-8" d="M701.21,352.56c2.11.3,4,.91,5.32,2.79A11.32,11.32,0,0,1,701.21,352.56Z"/><path class="cls-6" d="M599.28,339.57c0-.85,0-1.69,1.18-1.73A2,2,0,0,1,599.28,339.57Z"/><path class="cls-9" d="M731.14,420.55l-1.34.4A1.17,1.17,0,0,1,731.14,420.55Z"/><path class="cls-8" d="M652,316.14c.5-.05,1-.15,1.43.29Z"/><path class="cls-9" d="M735.26,419.37l-1.26.42A1,1,0,0,1,735.26,419.37Z"/><path class="cls-10" d="M624.78,333.88l1-.16A.64.64,0,0,1,624.78,333.88Z"/><path class="cls-9" d="M737,418.82l-.86.33A.62.62,0,0,1,737,418.82Z"/><path class="cls-9" d="M732.85,420.09l-.8.26C732.23,420,732.49,419.87,732.85,420.09Z"/><path class="cls-9" d="M728.75,421.22l-.87.3A.58.58,0,0,1,728.75,421.22Z"/><polygon class="cls-8" points="708.04 356.1 707.98 356.11 708.03 356.18 708.04 356.1"/><polygon class="cls-8" points="706.79 355.49 706.87 355.55 706.78 355.68 706.79 355.49"/></svg>