<?xml version="1.0" encoding="utf-8"?>
<!-- Generator: Adobe Illustrator 23.0.2, SVG Export Plug-In . SVG Version: 6.00 Build 0)  -->
<svg version="1.1" id="Capa_1" xmlns="http://www.w3.org/2000/svg" xmlns:xlink="http://www.w3.org/1999/xlink" x="0px" y="0px"
	 viewBox="0 0 612 792" style="enable-background:new 0 0 612 792;" xml:space="preserve">
<style type="text/css">
	.st0{fill:#4E0C81;}
	.st1{fill:#F7CA44;}
	.st2{fill:none;}
	.st3{fill:#F7F5D0;}
</style>
<g>
	<g>
		<path class="st0" d="M170.86,435.73c-1.04-0.05-1.89-0.44-2.56-1.15c-0.67-0.71-1-1.57-1-2.58v-46.84c0-0.46,0.1-0.91,0.31-1.33
			c0.2-0.42,0.47-0.79,0.8-1.11s0.72-0.56,1.17-0.74c0.45-0.18,0.92-0.27,1.41-0.27h0.29h19.67c2.05,0,3.98,0.4,5.8,1.21
			c1.82,0.81,3.4,1.89,4.75,3.26c1.35,1.37,2.42,3.03,3.2,5c0.78,1.97,1.17,3.99,1.17,6.07c0,2.21-0.43,4.23-1.29,6.04
			c-0.86,1.82-2.03,3.42-3.5,4.81c1.72,1.48,3.1,3.24,4.14,5.31c1.04,2.06,1.56,4.32,1.56,6.78c0,2.13-0.41,4.14-1.23,6.02
			c-0.82,1.88-1.93,3.53-3.32,4.94c-1.39,1.41-3.03,2.52-4.9,3.34c-1.87,0.82-3.87,1.23-6,1.23H170.86z M186.51,408.28
			c0-0.49,0.1-0.96,0.29-1.41c0.19-0.45,0.46-0.85,0.8-1.19c0.34-0.34,0.74-0.61,1.19-0.82s0.94-0.31,1.45-0.31h0.98
			c1.01-0.03,1.95-0.24,2.83-0.63c0.87-0.4,1.64-0.92,2.29-1.58c0.66-0.66,1.17-1.42,1.54-2.29c0.37-0.87,0.55-1.8,0.55-2.79
			c0-1.15-0.22-2.19-0.66-3.13c-0.44-0.94-1.02-1.82-1.76-2.62c-0.74-0.81-1.6-1.39-2.6-1.76c-1-0.37-2.04-0.55-3.13-0.55h-15.53
			v39.09h16.55c1.07,0,2.08-0.22,3.03-0.66c0.96-0.44,1.78-1.02,2.48-1.76c0.7-0.74,1.25-1.6,1.66-2.58
			c0.41-0.98,0.61-2.01,0.61-3.07c0-1.09-0.2-2.13-0.61-3.11c-0.41-0.98-0.96-1.85-1.66-2.6c-0.7-0.75-1.52-1.35-2.48-1.8
			c-0.96-0.45-1.97-0.68-3.03-0.68h-1.07c-1.04,0-1.92-0.36-2.64-1.09C186.87,410.2,186.51,409.32,186.51,408.28z"/>
		<path class="st0" d="M212.7,387.26c0-0.57,0.11-1.11,0.33-1.6c0.22-0.49,0.51-0.92,0.88-1.29c0.37-0.37,0.81-0.66,1.31-0.88
			c0.5-0.22,1.04-0.33,1.62-0.33s1.11,0.11,1.6,0.33c0.49,0.22,0.93,0.51,1.31,0.88c0.38,0.37,0.68,0.8,0.9,1.29
			c0.22,0.49,0.33,1.02,0.33,1.6c0,0.57-0.11,1.11-0.33,1.6c-0.22,0.49-0.52,0.92-0.9,1.29c-0.38,0.37-0.82,0.66-1.31,0.88
			c-0.49,0.22-1.02,0.33-1.6,0.33s-1.11-0.11-1.62-0.33c-0.51-0.22-0.94-0.51-1.31-0.88c-0.37-0.37-0.66-0.8-0.88-1.29
			C212.81,388.36,212.7,387.83,212.7,387.26z M213.15,399.84c0-0.49,0.1-0.96,0.29-1.41c0.19-0.45,0.46-0.84,0.8-1.17
			c0.34-0.33,0.74-0.59,1.19-0.78c0.45-0.19,0.94-0.29,1.46-0.29c1.01,0,1.85,0.35,2.52,1.07c0.67,0.71,1,1.57,1,2.58v32.58
			c0,1.01-0.35,1.86-1.04,2.56c-0.7,0.7-1.54,1.04-2.52,1.04c-1.01,0-1.88-0.35-2.6-1.04c-0.72-0.7-1.09-1.55-1.09-2.56V399.84z"/>
		<path class="st0" d="M226.46,416.23c0-2.76,0.53-5.35,1.58-7.79c1.05-2.43,2.49-4.56,4.3-6.37c1.82-1.82,3.93-3.25,6.35-4.3
			c2.42-1.05,5.01-1.58,7.76-1.58c2.79,0,5.4,0.53,7.83,1.58c2.43,1.05,4.55,2.49,6.35,4.3c1.8,1.82,3.22,3.94,4.26,6.37
			c1.04,2.43,1.56,5.03,1.56,7.79c0,2.76-0.52,5.35-1.56,7.79c-1.04,2.43-2.46,4.55-4.26,6.35c-1.8,1.8-3.92,3.23-6.35,4.28
			c-2.43,1.05-5.04,1.58-7.83,1.58c-2.76,0-5.35-0.53-7.76-1.58c-2.42-1.05-4.54-2.48-6.35-4.28c-1.82-1.8-3.25-3.92-4.3-6.35
			C226.99,421.58,226.46,418.99,226.46,416.23z M233.72,416.23c0,1.74,0.33,3.38,1,4.92c0.67,1.54,1.58,2.89,2.73,4.04
			s2.49,2.07,4.04,2.74c1.54,0.67,3.2,1,4.98,1c1.8,0,3.48-0.33,5.02-1c1.54-0.67,2.89-1.58,4.04-2.74c1.15-1.16,2.05-2.5,2.7-4.04
			c0.66-1.54,0.98-3.18,0.98-4.92s-0.33-3.38-0.98-4.92c-0.66-1.54-1.56-2.88-2.7-4.02c-1.15-1.14-2.49-2.05-4.04-2.72
			c-1.54-0.67-3.22-1-5.02-1c-1.78,0-3.44,0.33-4.98,1c-1.54,0.67-2.89,1.57-4.04,2.72s-2.06,2.48-2.73,4.02
			C234.05,412.85,233.72,414.49,233.72,416.23z"/>
		<path class="st0" d="M299.2,408.16c0.52,0,1,0.1,1.45,0.31c0.45,0.21,0.85,0.48,1.19,0.82c0.34,0.34,0.61,0.74,0.8,1.2
			s0.29,0.93,0.29,1.42s-0.1,0.96-0.29,1.4c-0.19,0.44-0.46,0.82-0.8,1.15c-0.34,0.33-0.74,0.59-1.19,0.78
			c-0.45,0.19-0.94,0.29-1.45,0.29h-24.46c-0.52,0-1-0.1-1.46-0.29c-0.45-0.19-0.84-0.45-1.17-0.78c-0.33-0.33-0.59-0.71-0.78-1.15
			c-0.19-0.44-0.29-0.91-0.29-1.4c0-1.04,0.35-1.93,1.07-2.66c0.71-0.73,1.58-1.09,2.62-1.09H299.2z"/>
		<path class="st0" d="M310.1,388c0-0.49,0.09-0.96,0.29-1.41s0.46-0.85,0.79-1.19c0.34-0.34,0.73-0.61,1.16-0.8
			c0.43-0.19,0.9-0.29,1.39-0.29c0.49,0,0.96,0.1,1.43,0.29c0.46,0.19,0.86,0.45,1.2,0.78c0.34,0.33,0.61,0.72,0.82,1.17
			c0.2,0.45,0.31,0.94,0.31,1.46v8.03h16.27c1.01,0,1.87,0.36,2.58,1.09c0.71,0.72,1.07,1.59,1.07,2.6c0,0.98-0.35,1.81-1.04,2.48
			c-0.7,0.67-1.56,1-2.6,1h-16.27v13.36c0,1.75,0.33,3.38,0.98,4.9c0.66,1.52,1.55,2.83,2.68,3.95c1.13,1.12,2.47,2,4.02,2.64
			c1.54,0.64,3.2,0.96,4.98,0.96c1.56,0,3.03-0.23,4.41-0.68c1.38-0.45,2.64-1.21,3.79-2.27c0.87-0.82,1.79-1.23,2.75-1.23
			c0.41,0,0.81,0.08,1.21,0.25c0.4,0.16,0.75,0.4,1.07,0.7c0.31,0.3,0.56,0.66,0.74,1.07c0.18,0.41,0.27,0.86,0.27,1.35
			c0,0.55-0.12,1.1-0.35,1.66s-0.55,1.04-0.96,1.45c-1.72,1.64-3.67,2.87-5.84,3.69s-4.53,1.23-7.07,1.23
			c-2.79,0-5.4-0.51-7.83-1.52c-2.43-1.01-4.55-2.4-6.36-4.18c-1.81-1.78-3.24-3.87-4.28-6.27c-1.05-2.4-1.57-5-1.57-7.79V388z"/>
		<path class="st0" d="M346.85,416.23c0-2.76,0.53-5.35,1.58-7.79c1.05-2.43,2.49-4.56,4.3-6.37c1.82-1.82,3.93-3.25,6.35-4.3
			c2.42-1.05,5.01-1.58,7.77-1.58c2.79,0,5.39,0.53,7.83,1.58s4.55,2.49,6.35,4.3s3.22,3.94,4.26,6.37
			c1.04,2.43,1.56,5.03,1.56,7.79c0,2.76-0.52,5.35-1.56,7.79c-1.04,2.43-2.46,4.55-4.26,6.35s-3.92,3.23-6.35,4.28
			c-2.43,1.05-5.04,1.58-7.83,1.58c-2.76,0-5.35-0.53-7.77-1.58c-2.42-1.05-4.53-2.48-6.35-4.28c-1.82-1.8-3.25-3.92-4.3-6.35
			C347.38,421.58,346.85,418.99,346.85,416.23z M354.11,416.23c0,1.74,0.33,3.38,1,4.92c0.67,1.54,1.58,2.89,2.73,4.04
			c1.15,1.16,2.49,2.07,4.04,2.74c1.54,0.67,3.2,1,4.98,1c1.8,0,3.48-0.33,5.02-1c1.54-0.67,2.89-1.58,4.04-2.74s2.05-2.5,2.7-4.04
			c0.66-1.54,0.98-3.18,0.98-4.92s-0.33-3.38-0.98-4.92c-0.66-1.54-1.56-2.88-2.7-4.02s-2.49-2.05-4.04-2.72
			c-1.54-0.67-3.22-1-5.02-1c-1.78,0-3.44,0.33-4.98,1c-1.54,0.67-2.89,1.57-4.04,2.72c-1.15,1.14-2.06,2.48-2.73,4.02
			C354.44,412.85,354.11,414.49,354.11,416.23z"/>
		<path class="st0" d="M390.45,416.23c0-2.76,0.53-5.35,1.58-7.79c1.05-2.43,2.49-4.56,4.3-6.37c1.82-1.82,3.93-3.25,6.35-4.3
			c2.42-1.05,5.01-1.58,7.77-1.58c2.79,0,5.39,0.53,7.83,1.58s4.55,2.49,6.35,4.3s3.22,3.94,4.26,6.37
			c1.04,2.43,1.56,5.03,1.56,7.79c0,2.76-0.52,5.35-1.56,7.79c-1.04,2.43-2.46,4.55-4.26,6.35s-3.92,3.23-6.35,4.28
			c-2.43,1.05-5.04,1.58-7.83,1.58c-2.76,0-5.35-0.53-7.77-1.58c-2.42-1.05-4.53-2.48-6.35-4.28c-1.82-1.8-3.25-3.92-4.3-6.35
			C390.98,421.58,390.45,418.99,390.45,416.23z M397.71,416.23c0,1.74,0.33,3.38,1,4.92c0.67,1.54,1.58,2.89,2.73,4.04
			c1.15,1.16,2.49,2.07,4.04,2.74c1.54,0.67,3.2,1,4.98,1c1.8,0,3.48-0.33,5.02-1c1.54-0.67,2.89-1.58,4.04-2.74s2.05-2.5,2.7-4.04
			c0.66-1.54,0.98-3.18,0.98-4.92s-0.33-3.38-0.98-4.92c-0.66-1.54-1.56-2.88-2.7-4.02s-2.49-2.05-4.04-2.72
			c-1.54-0.67-3.22-1-5.02-1c-1.78,0-3.44,0.33-4.98,1c-1.54,0.67-2.89,1.57-4.04,2.72c-1.15,1.14-2.06,2.48-2.73,4.02
			C398.04,412.85,397.71,414.49,397.71,416.23z"/>
		<path class="st0" d="M437.25,385.66c0-1.04,0.34-1.91,1.02-2.6c0.68-0.7,1.52-1.04,2.5-1.04c0.49,0,0.96,0.09,1.41,0.27
			c0.45,0.18,0.85,0.43,1.19,0.76c0.34,0.33,0.62,0.72,0.82,1.17c0.21,0.45,0.31,0.94,0.31,1.46v36.39c0,2.13,0.57,3.76,1.7,4.9
			s2.7,1.7,4.69,1.7c1.04,0,1.89,0.35,2.56,1.04s1,1.54,1,2.52c0,1.04-0.33,1.89-0.98,2.56c-0.66,0.67-1.5,1-2.54,1
			c-1.94,0-3.74-0.33-5.41-0.98c-1.67-0.66-3.11-1.59-4.34-2.81s-2.19-2.66-2.89-4.34s-1.04-3.54-1.04-5.59V385.66z"/>
		<path class="st0" d="M477.16,419.26h-5.08h-2.34c-1.64,0-3.16-0.32-4.55-0.96c-1.39-0.64-2.6-1.51-3.63-2.59
			c-1.02-1.08-1.82-2.33-2.4-3.76c-0.57-1.42-0.86-2.93-0.86-4.52c0-1.56,0.3-3.02,0.9-4.39c0.6-1.37,1.41-2.57,2.44-3.59
			c1.02-1.03,2.23-1.83,3.63-2.42c1.39-0.59,2.88-0.88,4.47-0.88h14.22c0.98,0,1.83,0.3,2.54,0.91c0.71,0.6,1.07,1.48,1.07,2.64
			c0,0.52-0.09,1.01-0.27,1.46c-0.18,0.45-0.42,0.85-0.74,1.2c-0.31,0.34-0.68,0.61-1.09,0.8c-0.41,0.19-0.85,0.29-1.31,0.29h-0.21
			h-14.18c-0.6,0-1.15,0.12-1.66,0.35c-0.51,0.23-0.95,0.55-1.33,0.94c-0.38,0.4-0.68,0.85-0.9,1.35c-0.22,0.51-0.33,1.04-0.33,1.62
			c0,0.63,0.11,1.2,0.33,1.72c0.22,0.52,0.53,0.96,0.92,1.33c0.4,0.37,0.85,0.66,1.35,0.88c0.51,0.22,1.05,0.33,1.62,0.33h2.38h5.87
			c1.67,0,3.21,0.32,4.64,0.96c1.42,0.64,2.65,1.51,3.67,2.6c1.03,1.09,1.83,2.36,2.42,3.81c0.59,1.45,0.88,2.96,0.88,4.55
			c0,1.61-0.3,3.13-0.89,4.57s-1.41,2.69-2.45,3.77c-1.04,1.08-2.29,1.93-3.72,2.56c-1.44,0.63-2.99,0.94-4.66,0.94h-17
			c-0.96,0-1.75-0.34-2.38-1.02c-0.63-0.68-0.94-1.57-0.94-2.66s0.31-1.95,0.94-2.58c0.63-0.63,1.42-0.94,2.38-0.94h16.39
			c0.6,0,1.2-0.1,1.8-0.31c0.6-0.2,1.15-0.51,1.64-0.92c0.49-0.41,0.89-0.91,1.19-1.5s0.45-1.28,0.45-2.07
			c0-0.76-0.14-1.42-0.43-1.97s-0.67-1-1.15-1.35c-0.48-0.35-1.02-0.63-1.62-0.82c-0.6-0.19-1.22-0.3-1.84-0.33h-0.08H477.16z"/>
	</g>
	<path class="st0" d="M380.51,283.5c16.29,13.21,16.41,16.13,30.33,31.45c-2.93,3.2-5.67,6.34-8.57,9.32
		c-6.51,6.7-12.89,13.55-19.72,19.91c-10.37,9.64-22.39,16.57-35.87,19.97c1.81,3.22,3.6,6.4,5.49,9.73
		c8.3-2.23,16.22-6,23.67-10.78c11.42-7.33,20.96-16.77,30.11-26.66c4.1-4.43,8.18-8.89,12.41-13.5
		c19.78,21.33,43.36,33.98,72.99,33.84c0.03-3.65,0.07-7.07,0.1-10.83c-26.71,0.08-47.8-11.57-65.42-30.83
		c18.08-18.99,39.48-30.24,66.14-29.59c0.03-3.66,0.07-6.78,0.08-9.89c0-0.25-0.12-0.49-0.23-0.92
		c-29.51-0.67-53.35,11.5-73.5,32.46c-3.84-4.33-7.49-8.44-11.14-12.56c-9.58-10.82-11.89-14.02-23.57-23.51
		C383.79,271.1,374.45,280.07,380.51,283.5z"/>
	<path class="st0" d="M183.54,330.3c0.12-13.1,0.24-25.8,0.37-38.58c-3.67-0.03-7.17-0.07-10.6-0.1
		c-0.12,13.02-0.24,25.8-0.37,38.58C176.58,330.23,180.01,330.26,183.54,330.3z"/>
	<path class="st0" d="M462.15,325.2c0.06-6.63,0.12-13.05,0.18-19.45c-3.63-0.03-7.05-0.07-10.59-0.1
		c-0.06,6.57-0.12,12.92-0.18,19.45C455.11,325.14,458.53,325.17,462.15,325.2z"/>
	<path class="st0" d="M379.34,268.03c12.22,7.94,18.44,15.76,28.02,26.58c3.65,4.12,7.31,8.24,11.14,12.56
		c20.15-20.96,43.99-33.12,73.5-32.46c0.11,0.43,0.23,0.68,0.23,0.92c-0.02,3.12-0.05,6.23-0.08,9.89
		c-26.66-0.65-48.05,10.61-66.14,29.59c17.62,19.26,38.71,30.91,65.42,30.83c-0.04,3.75-0.07,7.18-0.1,10.83
		c-29.62,0.14-53.21-12.51-72.99-33.84c-4.24,4.61-8.31,9.07-12.41,13.5c-9.15,9.89-18.69,19.34-30.11,26.66
		c-7.46,4.79-15.38,8.55-23.67,10.78c-1.88-3.34-3.67-6.52-5.49-9.73c13.48-3.4,25.5-10.33,35.87-19.97
		c6.84-6.35,13.21-13.21,19.72-19.91c2.9-2.98,5.64-6.13,8.57-9.32c-13.92-15.32-21.27-23.24-35.91-36.6L379.34,268.03z"/>
	<path class="st0" d="M242.29,319.4c-20.2,20.98-43.92,33.05-73.68,32.46c0.02-1.83,0.03-3.57,0.05-5.3
		c0.02-1.68,0.03-3.36,0.05-5.55c26.75,0.66,48.04-10.68,66.1-29.58c-17.6-19.15-38.62-30.93-65.53-30.79
		c0.02-2.02,0.04-3.78,0.05-5.54c0.02-1.68,0.03-3.36,0.05-5.53c4.02,0.28,7.81,0.41,11.57,0.84c14.3,1.63,27.49,6.37,39.5,14.33
		c0.78,0.51,6.64,4.52,8.17,5.92c4.59,4.19,9.25,8.3,14.09,12.63c12.49-13.2,24.15-27.42,38.91-37.53c3.37,2.28,6.47,4.38,9.69,6.56
		c-15.96,10.24-28.14,25.09-41.49,39.44c8.18,8.83,16.19,17.52,24.24,26.18c1.38,1.48,10.24,10.06,15.96,13.44
		c-2.96,2.03-6.07,4.17-9.45,6.48C266.13,347.55,254.75,333.19,242.29,319.4z"/>
	<path class="st0" d="M183.54,330.3c-3.53-0.03-6.97-0.07-10.6-0.1c0.12-12.79,0.24-25.56,0.37-38.58c3.43,0.03,6.93,0.07,10.6,0.1
		C183.79,304.49,183.67,317.19,183.54,330.3z"/>
	<path class="st1" d="M487.44,335.13c-3.57-0.03-6.93-0.07-10.46-0.1c0.12-12.91,0.24-25.75,0.37-38.72
		c3.47,0.03,6.88,0.07,10.46,0.1C487.69,309.34,487.57,322.1,487.44,335.13z"/>
	<path class="st0" d="M462.15,325.2c-3.62-0.03-7.04-0.07-10.59-0.1c0.06-6.54,0.12-12.88,0.18-19.45c3.54,0.03,6.95,0.07,10.59,0.1
		C462.27,312.15,462.21,318.57,462.15,325.2z"/>
	<path class="st1" d="M198.68,301.36c3.57,0.03,6.99,0.07,10.51,0.1c-0.06,6.56-0.12,12.94-0.18,19.5
		c-3.57-0.03-6.99-0.07-10.51-0.1C198.56,314.28,198.62,307.9,198.68,301.36z"/>
	<g>
		<g>
			<g>
				<path class="st1" d="M353.45,295.65c0.15,1.24,0.24,2.5,0.24,3.78c0,21.08-14.19,19.03-15.8,46.39h-31.58
					c-1.61-27.36-15.8-25.3-15.8-46.39c0-16.49,13.06-29.97,29.58-31.01l-0.12,0.21l4.84,2.73c-0.61,1.94-0.95,3.97-0.95,6.1
					c0,2.13,0.33,4.18,0.95,6.1l-4.84,2.75l4.45,7.57l4.85-2.75c2.79,3.01,6.52,5.19,10.72,6.1v5.49h8.87v-5.49
					C350.48,296.88,352.01,296.35,353.45,295.65z"/>
			</g>
			<g>
				<path class="st1" d="M337.89,346.77h-31.58c-0.51,0-0.93-0.39-0.96-0.89c-0.82-14-4.89-19.99-8.82-25.78
					c-3.59-5.29-6.98-10.28-6.98-20.66c0-16.85,13.39-30.88,30.49-31.95c0.35-0.02,2.25,0.1,2.82,0.21
					c0.78,0.15,1.33,0.67,1.35,0.74l1.08,2.12c0.39,0.22,0.58,0.68,0.44,1.1c-0.6,1.89-0.9,3.85-0.9,5.82c0,1.99,0.3,3.95,0.9,5.82
					c0.14,0.42-0.05,0.88-0.44,1.11l-4,2.27l3.48,5.92l4.02-2.28c0.39-0.22,0.89-0.15,1.19,0.18c2.73,2.94,6.26,4.95,10.22,5.81
					c0.44,0.1,0.76,0.48,0.76,0.93v4.55h6.94v-4.55c0-0.44,0.31-0.83,0.75-0.92c1.52-0.34,2.99-0.84,4.37-1.51
					c0.28-0.14,0.42-0.73,0.69-0.59c0.28,0.15,0.65,1.02,0.69,1.33c0.17,1.37,0.25,2.64,0.25,3.89c0,10.38-3.39,15.38-6.98,20.66
					c-3.93,5.79-7.99,11.77-8.82,25.78C338.83,346.38,338.41,346.77,337.89,346.77z M307.22,344.87h29.77
					c0.98-13.89,5.28-20.23,9.08-25.83c3.57-5.26,6.66-9.8,6.66-19.61c0-0.77-0.03-1.56-0.1-2.38c-0.91,0.37-1.84,0.68-2.79,0.92
					v4.75c0,0.52-0.43,0.95-0.96,0.95H340c-0.53,0-0.96-0.42-0.96-0.95v-4.75c-3.79-0.97-7.2-2.91-9.93-5.65l-4.19,2.38
					c-0.46,0.26-1.05,0.1-1.32-0.35l-4.45-7.57c-0.13-0.22-0.16-0.48-0.1-0.72c0.07-0.24,0.23-0.45,0.45-0.58l4.18-2.37
					c-0.51-1.83-0.77-3.73-0.77-5.65c0-1.91,0.26-3.81,0.77-5.65l-4.18-2.36c-0.02-0.01-0.03-0.02-0.05-0.03
					c-15.74,1.35-27.96,14.39-27.96,30.01c0,9.81,3.09,14.35,6.66,19.61C301.94,324.65,306.24,330.98,307.22,344.87z"/>
			</g>
		</g>
		<g>
			<path class="st2" d="M307.02,345.82h30.17c0.66,0,1.2,0.53,1.2,1.18v2.82c0,0.65-0.54,1.19-1.2,1.19h-30.17
				c-0.66,0-1.22-0.53-1.22-1.19v-2.82C305.8,346.35,306.36,345.82,307.02,345.82z"/>
		</g>
		<path class="st0" d="M337.19,351.96h-30.17c-1.2,0-2.18-0.96-2.18-2.13v-2.82c0-1.18,0.98-2.13,2.18-2.13h30.17
			c1.19,0,2.17,0.96,2.17,2.13v2.82C339.35,351,338.38,351.96,337.19,351.96z"/>
		<g>
		</g>
		<g>
			<path class="st0" d="M335.04,357.16h-25.87c-1.2,0-2.18-0.96-2.18-2.14v-2.81c0-1.18,0.98-2.14,2.18-2.14h25.87
				c1.2,0,2.18,0.96,2.18,2.14v2.81C337.22,356.19,336.24,357.16,335.04,357.16z"/>
		</g>
		<g>
			<path class="st2" d="M331.14,356.21c0.01,0.22,0.03,0.44,0.03,0.68c0,4.92-4.06,8.91-9.07,8.91c-5,0-9.05-3.99-9.05-8.91
				c0-0.24,0.01-0.46,0.03-0.68H331.14z"/>
		</g>
		<g>
			<path class="st0" d="M322.09,367.04c-5.52,0-10.02-4.42-10.02-9.86c0-0.22,0.01-0.42,0.02-0.62c0.03-0.5,0.46-1.01,0.97-1.01
				h18.07c0.51,0,0.94,0.4,0.96,0.9c0.02,0.31,0.03,0.51,0.03,0.73C332.12,362.62,327.62,367.04,322.09,367.04z"/>
		</g>
		<g>
			<path class="st0" d="M327.73,346.36c-0.01,0-0.02,0-0.03,0c-0.53-0.02-0.95-0.46-0.93-0.98l0.51-14.21l-14.97-12.64
				c-0.4-0.34-0.45-0.94-0.1-1.34c0.35-0.4,0.96-0.44,1.36-0.1l15.32,12.94c0.22,0.19,0.34,0.46,0.33,0.75l-0.53,14.67
				C328.67,345.96,328.24,346.36,327.73,346.36z"/>
		</g>
		<g>
			<path class="st0" d="M333.96,346.31C333.96,346.31,333.95,346.31,333.96,346.31c-0.54-0.01-0.97-0.43-0.96-0.96l0.18-19.18
				c0.01-0.52,0.37-0.96,0.97-0.94c0.53,0.01,0.96,0.43,0.96,0.96l-0.18,19.18C334.92,345.9,334.49,346.31,333.96,346.31z"/>
		</g>
		<g>
			<path class="st0" d="M310.84,348.42C310.84,348.42,310.84,348.42,310.84,348.42c-0.53,0-0.94-0.35-0.94-0.76l0.18-15.29
				c0.01-0.42,0.36-0.77,0.95-0.75c0.52,0,0.94,0.35,0.93,0.76l-0.18,15.29C311.78,348.08,311.36,348.42,310.84,348.42z"/>
		</g>
		<g>
			<path class="st0" d="M320.41,346.77c-0.53,0-0.96-0.42-0.96-0.95v-37.64c0-0.52,0.43-0.95,0.96-0.95c0.53,0,0.96,0.42,0.96,0.95
				v37.64C321.38,346.34,320.95,346.77,320.41,346.77z"/>
		</g>
		<g>
			<g>
				<path class="st0" d="M347.36,261.02c3.74,0.8,7.05,2.74,9.54,5.41l4.3-2.44l3.95,6.73l-4.3,2.43c0.55,1.72,0.84,3.53,0.84,5.42
					c0,1.89-0.29,3.72-0.84,5.42l4.3,2.44l-3.95,6.72l-4.3-2.44c-2.5,2.68-5.81,4.61-9.54,5.42v4.88h-7.88v-4.88
					c-3.73-0.81-7.04-2.74-9.53-5.42l-4.31,2.44l-3.95-6.72l4.3-2.44c-0.55-1.7-0.84-3.53-0.84-5.42c0-1.89,0.29-3.7,0.84-5.42
					l-4.3-2.43l3.95-6.73l4.31,2.44c2.48-2.67,5.79-4.61,9.53-5.41v-4.9h7.88V261.02z"/>
			</g>
			<g>
				<path class="st0" d="M347.36,301.86h-7.88c-0.47,0-0.86-0.38-0.86-0.84v-4.22c-3.37-0.86-6.4-2.58-8.83-5.02l-3.72,2.11
					c-0.41,0.23-0.93,0.09-1.17-0.31l-3.95-6.72c-0.11-0.19-0.15-0.42-0.09-0.64c0.06-0.22,0.2-0.4,0.4-0.51l3.71-2.11
					c-0.46-1.63-0.69-3.31-0.69-5.02c0-1.7,0.23-3.38,0.69-5.02l-3.71-2.1c-0.2-0.11-0.34-0.29-0.4-0.51
					c-0.06-0.22-0.03-0.45,0.09-0.64l3.95-6.73c0.24-0.4,0.76-0.54,1.17-0.31l3.73,2.11c2.45-2.45,5.48-4.17,8.83-5.01v-4.23
					c0-0.47,0.38-0.84,0.86-0.84h7.88c0.47,0,0.86,0.38,0.86,0.84v4.23c3.35,0.84,6.38,2.56,8.84,5.01l3.71-2.11
					c0.2-0.11,0.43-0.14,0.65-0.08c0.22,0.06,0.41,0.2,0.52,0.39l3.95,6.73c0.11,0.19,0.14,0.42,0.08,0.64
					c-0.06,0.22-0.2,0.4-0.4,0.51l-3.71,2.1c0.45,1.64,0.68,3.32,0.68,5.02c0,1.71-0.23,3.4-0.68,5.02l3.71,2.11
					c0.41,0.23,0.55,0.75,0.31,1.15l-3.95,6.72c-0.11,0.19-0.3,0.33-0.52,0.39c-0.22,0.06-0.45,0.03-0.65-0.08l-3.71-2.11
					c-2.44,2.44-5.48,4.17-8.84,5.02v4.22C348.22,301.48,347.83,301.86,347.36,301.86z M340.33,300.18h6.17v-4.04
					c0-0.39,0.28-0.74,0.67-0.82c3.51-0.77,6.66-2.55,9.1-5.17c0.27-0.29,0.71-0.36,1.06-0.16l3.55,2.02l3.09-5.26l-3.55-2.02
					c-0.35-0.2-0.51-0.6-0.39-0.98c0.53-1.66,0.8-3.4,0.8-5.17c0-1.76-0.27-3.5-0.8-5.17c-0.12-0.38,0.04-0.78,0.39-0.98l3.55-2.01
					l-3.09-5.27l-3.55,2.02c-0.35,0.2-0.79,0.13-1.06-0.16c-2.46-2.63-5.6-4.41-9.09-5.16c-0.39-0.08-0.67-0.43-0.67-0.82v-4.05
					h-6.17v4.05c0,0.4-0.28,0.74-0.67,0.82c-3.49,0.75-6.63,2.53-9.08,5.16c-0.27,0.29-0.71,0.36-1.06,0.16l-3.57-2.02l-3.1,5.27
					l3.55,2.01c0.35,0.2,0.51,0.6,0.39,0.98c-0.53,1.68-0.8,3.42-0.8,5.17c0,1.77,0.27,3.51,0.8,5.17c0.12,0.38-0.04,0.78-0.39,0.98
					l-3.56,2.02l3.1,5.26l3.57-2.02c0.34-0.2,0.79-0.13,1.06,0.16c2.42,2.61,5.56,4.4,9.08,5.17c0.39,0.09,0.67,0.43,0.67,0.82
					V300.18z"/>
			</g>
		</g>
		<g>
			<g>
				<path class="st3" d="M343.41,267.09c6.46,0,11.69,5.15,11.69,11.49c0,6.34-5.23,11.49-11.69,11.49
					c-6.45,0-11.68-5.15-11.68-11.49C331.73,272.23,336.96,267.09,343.41,267.09z"/>
			</g>
			<g>
				<path class="st0" d="M343.41,290.9c-6.91,0-12.53-5.53-12.53-12.33c0-6.8,5.62-12.33,12.53-12.33c6.92,0,12.54,5.53,12.54,12.33
					C355.95,285.37,350.33,290.9,343.41,290.9z M343.41,267.93c-5.97,0-10.82,4.77-10.82,10.64c0,5.87,4.85,10.65,10.82,10.65
					c5.97,0,10.83-4.77,10.83-10.65C354.24,272.7,349.38,267.93,343.41,267.93z"/>
			</g>
		</g>
		<g>
			<path class="st0" d="M343.41,285.76c-4.03,0-7.3-3.22-7.3-7.18c0-3.96,3.28-7.18,7.3-7.18c4.03,0,7.31,3.22,7.31,7.18
				C350.72,282.53,347.44,285.76,343.41,285.76z M343.41,273.08c-3.08,0-5.59,2.47-5.59,5.5c0,3.03,2.51,5.5,5.59,5.5
				c3.09,0,5.6-2.47,5.6-5.5C349.01,275.54,346.5,273.08,343.41,273.08z"/>
		</g>
		<g>
			<g>
				<path class="st1" d="M334.14,318.76c2.09,0,3.78,1.67,3.78,3.71c0,2.05-1.69,3.72-3.78,3.72c-2.09,0-3.78-1.67-3.78-3.72
					C330.36,320.43,332.05,318.76,334.14,318.76z"/>
			</g>
			<g>
				<path class="st0" d="M334.14,327.14c-2.62,0-4.75-2.1-4.75-4.67c0-2.57,2.13-4.66,4.75-4.66c2.62,0,4.74,2.09,4.74,4.66
					C338.88,325.04,336.76,327.14,334.14,327.14z M334.14,319.71c-1.56,0-2.82,1.24-2.82,2.76c0,1.53,1.26,2.78,2.82,2.78
					c1.55,0,2.82-1.24,2.82-2.78C336.96,320.94,335.69,319.71,334.14,319.71z"/>
			</g>
		</g>
		<g>
			<g>
				<path class="st1" d="M320.41,300.75c2.09,0,3.77,1.65,3.77,3.7c0,2.06-1.68,3.72-3.77,3.72c-2.09,0-3.78-1.67-3.78-3.72
					C316.63,302.41,318.33,300.75,320.41,300.75z"/>
			</g>
			<g>
				<path class="st0" d="M320.41,309.13c-2.62,0-4.75-2.1-4.75-4.67c0-2.57,2.13-4.65,4.75-4.65c2.61,0,4.73,2.09,4.73,4.65
					C325.15,307.03,323.02,309.13,320.41,309.13z M320.41,301.7c-1.56,0-2.82,1.24-2.82,2.76c0,1.53,1.26,2.77,2.82,2.77
					c1.55,0,2.81-1.24,2.81-2.77C323.22,302.94,321.96,301.7,320.41,301.7z"/>
			</g>
		</g>
		<g>
			<path class="st0" d="M309.98,320.23c-2.62,0-4.75-2.09-4.75-4.67c0-2.58,2.13-4.67,4.75-4.67s4.75,2.1,4.75,4.67
				C314.73,318.13,312.6,320.23,309.98,320.23z M309.98,312.78c-1.56,0-2.82,1.24-2.82,2.78c0,1.53,1.27,2.77,2.82,2.77
				c1.56,0,2.82-1.24,2.82-2.77C312.8,314.03,311.53,312.78,309.98,312.78z"/>
		</g>
		<g>
			<g>
				<path class="st1" d="M310.95,324.87c2.09,0,3.78,1.65,3.78,3.71c0,2.05-1.69,3.72-3.78,3.72c-2.09,0-3.77-1.67-3.77-3.72
					C307.18,326.53,308.87,324.87,310.95,324.87z"/>
			</g>
			<g>
				<path class="st0" d="M310.95,333.25c-2.61,0-4.73-2.09-4.73-4.67c0-2.57,2.12-4.66,4.73-4.66c2.62,0,4.75,2.09,4.75,4.66
					C315.7,331.16,313.57,333.25,310.95,333.25z M310.95,325.82c-1.55,0-2.81,1.24-2.81,2.76c0,1.53,1.26,2.77,2.81,2.77
					c1.56,0,2.82-1.24,2.82-2.77C313.77,327.06,312.51,325.82,310.95,325.82z"/>
			</g>
		</g>
	</g>
</g>
</svg>
