<svg id="Capa_1" data-name="Capa 1" xmlns="http://www.w3.org/2000/svg" viewBox="0 0 298.77 109.49"><defs><style>.cls-1{fill:#4e0c81;}.cls-2{fill:#f7ca44;}.cls-3{fill:none;}.cls-4{fill:#f7f5d0;}</style></defs><title>color sin letras</title><path class="cls-1" d="M195.62,26.05c15,12.2,15.15,14.89,28,29-2.71,3-5.23,5.85-7.91,8.61-6,6.18-11.9,12.51-18.21,18.37a75.71,75.71,0,0,1-33.12,18.44l5.07,9a78.37,78.37,0,0,0,21.85-10c10.54-6.76,19.35-15.48,27.79-24.61,3.79-4.1,7.55-8.21,11.46-12.46,18.26,19.68,40,31.36,67.38,31.23l.1-10c-24.66.07-44.13-10.68-60.4-28.46,16.7-17.53,36.45-27.92,61.06-27.32,0-3.38.06-6.26.08-9.13a4.69,4.69,0,0,0-.22-.86c-27.24-.61-49.25,10.62-67.85,30L220.41,36.3c-8.85-10-11-12.94-21.76-21.7C198.65,14.6,190,22.88,195.62,26.05Z"/><path class="cls-1" d="M13.79,69.25l.33-35.62-9.78-.09L4,69.16Z"/><path class="cls-1" d="M271,64.55l.16-18-9.77-.09-.17,18Z"/><path class="cls-1" d="M194.54,11.76c11.29,7.33,17,14.55,25.87,24.54L230.7,47.9c18.6-19.35,40.61-30.58,67.85-30a4.69,4.69,0,0,1,.22.86c0,2.87,0,5.75-.08,9.13-24.61-.6-44.36,9.79-61.06,27.32C253.9,73,273.37,83.77,298,83.7l-.1,10c-27.35.13-49.12-11.55-67.38-31.23-3.91,4.25-7.67,8.36-11.46,12.46-8.44,9.13-17.25,17.85-27.79,24.61a78.37,78.37,0,0,1-21.85,10l-5.07-9A75.71,75.71,0,0,0,197.5,82.06c6.31-5.86,12.19-12.19,18.21-18.37,2.68-2.76,5.2-5.66,7.91-8.61C210.77,40.94,204,33.62,190.47,21.29Z"/><path class="cls-1" d="M68,59.19C49.38,78.56,27.48,89.7,0,89.16l.05-4.89,0-5.13c24.7.61,44.35-9.85,61-27.3C44.87,34.16,25.47,23.28.62,23.41L.67,18.3l0-5.1c3.71.26,7.21.38,10.68.77A81.76,81.76,0,0,1,47.86,27.2c.72.48,6.13,4.17,7.54,5.46,4.24,3.87,8.54,7.66,13,11.66C79.94,32.14,90.7,19,104.33,9.67l8.94,6.06C98.54,25.19,87.29,38.9,75,52.14c7.55,8.16,15,16.17,22.38,24.17,1.27,1.37,9.45,9.29,14.73,12.41l-8.72,6C90,85.18,79.52,71.92,68,59.19Z"/><path class="cls-1" d="M13.79,69.25,4,69.16l.34-35.62,9.78.09Z"/><path class="cls-2" d="M294.33,73.71l-9.65-.09L285,37.87l9.65.1Z"/><path class="cls-1" d="M271,64.55l-9.78-.09.17-18,9.77.09Z"/><path class="cls-2" d="M27.76,42.54l9.7.09-.17,18-9.7-.09Z"/><path class="cls-2" d="M170.64,37.27a28.56,28.56,0,0,1,.22,3.49c0,19.46-13.1,17.56-14.58,42.82H127.12c-1.48-25.26-14.58-23.36-14.58-42.82a28.91,28.91,0,0,1,27.31-28.63l-.11.2,4.46,2.52a18.65,18.65,0,0,0,0,11.26l-4.46,2.54,4.1,7,4.48-2.54a19,19,0,0,0,9.9,5.64V43.8h8.19V38.73A19.58,19.58,0,0,0,170.64,37.27Z"/><path class="cls-2" d="M156.28,84.46H127.12a.89.89,0,0,1-.89-.83c-.75-12.93-4.51-18.45-8.14-23.8-3.31-4.88-6.44-9.49-6.44-19.07a29.83,29.83,0,0,1,28.14-29.5,21.22,21.22,0,0,1,2.6.19,2.31,2.31,0,0,1,1.25.68l1,2a.88.88,0,0,1,.41,1,17.81,17.81,0,0,0-.83,5.37,17.62,17.62,0,0,0,.83,5.37.87.87,0,0,1-.4,1L141,29l3.22,5.47,3.71-2.1a.89.89,0,0,1,1.1.17,18,18,0,0,0,9.43,5.36.89.89,0,0,1,.7.86v4.19h6.41V38.73a.87.87,0,0,1,.69-.85,18.94,18.94,0,0,0,4-1.4c.26-.12.38-.67.64-.54a2.47,2.47,0,0,1,.63,1.22,28.54,28.54,0,0,1,.23,3.6c0,9.58-3.13,14.19-6.45,19.07-3.62,5.35-7.38,10.87-8.14,23.8A.88.88,0,0,1,156.28,84.46ZM128,82.7h27.48c.9-12.82,4.87-18.67,8.38-23.84,3.3-4.86,6.15-9,6.15-18.1,0-.72,0-1.44-.09-2.19a22.9,22.9,0,0,1-2.58.85V43.8a.89.89,0,0,1-.89.88h-8.19a.88.88,0,0,1-.89-.88V39.42a19.87,19.87,0,0,1-9.18-5.22l-3.86,2.19a.9.9,0,0,1-1.22-.32l-4.1-7a.83.83,0,0,1-.09-.67.9.9,0,0,1,.41-.53l3.86-2.19a19.54,19.54,0,0,1,0-10.44l-3.86-2.17,0,0a28.05,28.05,0,0,0-25.81,27.7c0,9.05,2.85,13.24,6.15,18.1C123.09,64,127.06,69.88,128,82.7Z"/><path class="cls-3" d="M127.77,83.58h27.85a1.1,1.1,0,0,1,1.11,1.09v2.61a1.1,1.1,0,0,1-1.11,1.09H127.77a1.12,1.12,0,0,1-1.12-1.09V84.67A1.12,1.12,0,0,1,127.77,83.58Z"/><path class="cls-1" d="M155.62,89.25H127.77a2,2,0,0,1-2-2V84.67a2,2,0,0,1,2-2h27.85a2,2,0,0,1,2,2v2.61A2,2,0,0,1,155.62,89.25Z"/><path class="cls-1" d="M153.64,94H129.76a2,2,0,0,1-2-2v-2.6a2,2,0,0,1,2-2h23.88a2,2,0,0,1,2,2v2.6A2,2,0,0,1,153.64,94Z"/><path class="cls-3" d="M150,93.17c0,.2,0,.41,0,.63a8.36,8.36,0,0,1-16.72,0c0-.22,0-.43,0-.63Z"/><path class="cls-1" d="M141.68,103.17a9.18,9.18,0,0,1-9.24-9.1c0-.2,0-.39,0-.58a1,1,0,0,1,.89-.92H150a.88.88,0,0,1,.89.83c0,.28,0,.47,0,.67A9.2,9.2,0,0,1,141.68,103.17Z"/><path class="cls-1" d="M146.89,84.08h0a.88.88,0,0,1-.86-.91l.47-13.12L132.65,58.38a.87.87,0,0,1-.09-1.24.91.91,0,0,1,1.25-.09L148,69a.86.86,0,0,1,.31.69l-.49,13.54A.88.88,0,0,1,146.89,84.08Z"/><path class="cls-1" d="M152.64,84h0a.89.89,0,0,1-.89-.89l.17-17.7a.85.85,0,0,1,.9-.87.88.88,0,0,1,.88.89l-.17,17.7A.88.88,0,0,1,152.64,84Z"/><path class="cls-1" d="M131.3,86h0a.79.79,0,0,1-.86-.71l.16-14.12a.76.76,0,0,1,.88-.69.8.8,0,0,1,.86.7l-.17,14.12A.8.8,0,0,1,131.3,86Z"/><path class="cls-1" d="M140.14,84.46a.89.89,0,0,1-.89-.88V48.83a.89.89,0,0,1,1.78,0V83.58A.89.89,0,0,1,140.14,84.46Z"/><path class="cls-1" d="M165,5.3a17,17,0,0,1,8.81,5l4-2.25,3.64,6.21-4,2.24a16.65,16.65,0,0,1,0,10l4,2.26L177.79,35l-4-2.25a17,17,0,0,1-8.81,5v4.51h-7.27V37.71a16.89,16.89,0,0,1-8.8-5L145,35l-3.65-6.2,4-2.26a16.65,16.65,0,0,1,0-10l-4-2.24L145,8l4,2.25a16.88,16.88,0,0,1,8.8-5V.78H165Z"/><path class="cls-1" d="M165,43h-7.27a.79.79,0,0,1-.8-.78V38.33a17.68,17.68,0,0,1-8.14-4.64l-3.44,2a.81.81,0,0,1-1.08-.29l-3.65-6.2a.76.76,0,0,1-.08-.59.8.8,0,0,1,.37-.48l3.43-1.94a17.14,17.14,0,0,1,0-9.28l-3.43-1.93a.77.77,0,0,1-.29-1.07l3.65-6.21a.81.81,0,0,1,1.08-.29l3.44,2a17.55,17.55,0,0,1,8.14-4.63V.78a.79.79,0,0,1,.8-.78H165a.78.78,0,0,1,.79.78v3.9A17.74,17.74,0,0,1,174,9.31l3.42-1.95a.78.78,0,0,1,.6-.07.74.74,0,0,1,.48.36l3.65,6.22a.8.8,0,0,1,.08.59.82.82,0,0,1-.37.47l-3.43,1.93a17.4,17.4,0,0,1,0,9.28l3.43,1.94a.78.78,0,0,1,.29,1.07l-3.65,6.2a.74.74,0,0,1-.48.36.78.78,0,0,1-.6-.07l-3.42-2a17.82,17.82,0,0,1-8.17,4.64v3.89A.78.78,0,0,1,165,43Zm-6.48-1.56h5.69V37.71a.79.79,0,0,1,.62-.76,16,16,0,0,0,8.4-4.77.8.8,0,0,1,1-.15l3.28,1.87L180.35,29l-3.28-1.86a.78.78,0,0,1-.36-.91,15.64,15.64,0,0,0,.74-4.77,15.85,15.85,0,0,0-.74-4.78.77.77,0,0,1,.36-.9L180.35,14,177.5,9.1,174.22,11a.79.79,0,0,1-1-.14,16,16,0,0,0-8.4-4.76.79.79,0,0,1-.62-.76V1.56h-5.69V5.3a.79.79,0,0,1-.63.76,16,16,0,0,0-8.38,4.76.8.8,0,0,1-1,.15l-3.3-1.87L142.4,14l3.27,1.85a.76.76,0,0,1,.37.9,15.54,15.54,0,0,0-.74,4.78,15.34,15.34,0,0,0,.74,4.77.78.78,0,0,1-.36.91L142.39,29l2.86,4.86,3.3-1.87a.8.8,0,0,1,1,.15A15.88,15.88,0,0,0,157.91,37a.79.79,0,0,1,.62.76Z"/><path class="cls-4" d="M161.37,10.9a10.6,10.6,0,1,1-10.78,10.6A10.7,10.7,0,0,1,161.37,10.9Z"/><path class="cls-1" d="M161.37,32.88a11.38,11.38,0,1,1,0-22.76A11.49,11.49,0,0,1,173,21.5,11.49,11.49,0,0,1,161.37,32.88Zm0-21.21a9.83,9.83,0,1,0,10,9.83A9.92,9.92,0,0,0,161.37,11.67Z"/><path class="cls-1" d="M161.37,28.13a6.63,6.63,0,1,1,6.75-6.63A6.69,6.69,0,0,1,161.37,28.13Zm0-11.7a5.07,5.07,0,1,0,5.17,5.07A5.12,5.12,0,0,0,161.37,16.43Z"/><path class="cls-2" d="M152.81,58.6A3.43,3.43,0,1,1,149.32,62,3.46,3.46,0,0,1,152.81,58.6Z"/><path class="cls-1" d="M152.81,66.33A4.31,4.31,0,1,1,157.19,62,4.35,4.35,0,0,1,152.81,66.33Zm0-6.86a2.56,2.56,0,1,0,2.6,2.55A2.58,2.58,0,0,0,152.81,59.47Z"/><path class="cls-2" d="M140.14,42a3.43,3.43,0,1,1-3.49,3.42A3.44,3.44,0,0,1,140.14,42Z"/><path class="cls-1" d="M140.14,49.71a4.31,4.31,0,1,1,4.37-4.31A4.36,4.36,0,0,1,140.14,49.71Zm0-6.86a2.56,2.56,0,1,0,2.59,2.55A2.57,2.57,0,0,0,140.14,42.85Z"/><path class="cls-1" d="M130.5,60a4.31,4.31,0,1,1,4.39-4.31A4.35,4.35,0,0,1,130.5,60Zm0-6.87a2.56,2.56,0,1,0,2.61,2.56A2.59,2.59,0,0,0,130.5,53.08Z"/><path class="cls-2" d="M131.41,64.24a3.43,3.43,0,1,1-3.48,3.43A3.46,3.46,0,0,1,131.41,64.24Z"/><path class="cls-1" d="M131.41,72a4.31,4.31,0,1,1,4.38-4.31A4.35,4.35,0,0,1,131.41,72Zm0-6.86a2.56,2.56,0,1,0,2.6,2.55A2.57,2.57,0,0,0,131.41,65.12Z"/></svg>