<?xml version="1.0" encoding="utf-8"?>
<!-- Generator: Adobe Illustrator 23.0.2, SVG Export Plug-In . SVG Version: 6.00 Build 0)  -->
<svg version="1.1" id="Capa_1" xmlns="http://www.w3.org/2000/svg" xmlns:xlink="http://www.w3.org/1999/xlink" x="0px" y="0px"
	 viewBox="0 0 612 792" style="enable-background:new 0 0 612 792;" xml:space="preserve">
<style type="text/css">
	.st0{fill:#4E0C81;}
	.st1{fill:none;stroke:#4D107E;stroke-width:2.5;stroke-miterlimit:10;}
	.st2{fill:none;}
	.st3{fill:#4E0C81;stroke:#4D107E;stroke-width:1.5;stroke-miterlimit:10;}
	.st4{fill:#4E0C81;stroke:#4D107E;stroke-width:0.5;stroke-miterlimit:10;}
</style>
<g>
	<g>
		<g>
			<path class="st0" d="M177.94,355.71c-0.68-0.04-1.24-0.29-1.68-0.75s-0.66-1.03-0.66-1.69v-30.64c0-0.3,0.07-0.59,0.2-0.87
				c0.13-0.28,0.31-0.52,0.52-0.72c0.21-0.21,0.47-0.37,0.76-0.48c0.29-0.12,0.6-0.17,0.93-0.17h0.19h12.87
				c1.34,0,2.6,0.26,3.79,0.79c1.19,0.53,2.23,1.24,3.11,2.13c0.88,0.89,1.58,1.98,2.09,3.27c0.51,1.29,0.76,2.61,0.76,3.97
				c0,1.45-0.28,2.77-0.84,3.95c-0.56,1.19-1.33,2.24-2.29,3.15c1.13,0.97,2.03,2.12,2.71,3.47c0.68,1.35,1.02,2.83,1.02,4.44
				c0,1.39-0.27,2.71-0.8,3.94s-1.26,2.31-2.17,3.23s-1.98,1.65-3.2,2.19c-1.22,0.54-2.53,0.8-3.93,0.8H177.94z M188.18,337.75
				c0-0.32,0.06-0.63,0.19-0.92c0.12-0.29,0.3-0.55,0.52-0.78c0.22-0.22,0.48-0.4,0.78-0.54c0.29-0.13,0.61-0.2,0.95-0.2h0.64
				c0.66-0.02,1.28-0.16,1.85-0.42c0.57-0.26,1.07-0.6,1.5-1.03c0.43-0.43,0.76-0.93,1.01-1.5c0.24-0.57,0.36-1.18,0.36-1.82
				c0-0.75-0.14-1.43-0.43-2.05c-0.29-0.62-0.67-1.19-1.15-1.72c-0.48-0.53-1.05-0.91-1.7-1.15s-1.34-0.36-2.05-0.36h-10.16v25.58
				h10.83c0.7,0,1.36-0.14,1.98-0.43c0.63-0.29,1.17-0.67,1.62-1.15c0.46-0.48,0.82-1.05,1.09-1.69c0.27-0.64,0.4-1.31,0.4-2.01
				c0-0.71-0.13-1.39-0.4-2.04c-0.27-0.64-0.63-1.21-1.09-1.7c-0.46-0.49-1-0.88-1.62-1.18c-0.63-0.29-1.29-0.44-1.98-0.44h-0.7
				c-0.68,0-1.26-0.24-1.73-0.71S188.18,338.43,188.18,337.75z"/>
			<path class="st0" d="M205.31,323.99c0-0.38,0.07-0.72,0.21-1.05c0.14-0.32,0.33-0.6,0.58-0.84c0.24-0.24,0.53-0.43,0.86-0.58
				c0.33-0.14,0.68-0.21,1.06-0.21c0.38,0,0.72,0.07,1.05,0.21c0.32,0.14,0.61,0.34,0.86,0.58c0.25,0.24,0.45,0.52,0.59,0.84
				c0.14,0.32,0.21,0.67,0.21,1.05s-0.07,0.72-0.21,1.05s-0.34,0.6-0.59,0.84c-0.25,0.24-0.54,0.43-0.86,0.58s-0.67,0.21-1.05,0.21
				c-0.38,0-0.73-0.07-1.06-0.21c-0.33-0.14-0.62-0.34-0.86-0.58c-0.24-0.24-0.43-0.52-0.58-0.84S205.31,324.37,205.31,323.99z
				 M205.61,332.22c0-0.32,0.06-0.63,0.19-0.92s0.3-0.55,0.52-0.76c0.22-0.21,0.48-0.38,0.78-0.51c0.29-0.12,0.61-0.19,0.95-0.19
				c0.66,0,1.21,0.23,1.65,0.7s0.66,1.03,0.66,1.69v21.31c0,0.66-0.23,1.22-0.68,1.68c-0.46,0.46-1.01,0.68-1.65,0.68
				c-0.66,0-1.23-0.23-1.7-0.68c-0.47-0.46-0.71-1.01-0.71-1.68V332.22z"/>
			<path class="st0" d="M214.32,342.95c0-1.8,0.34-3.5,1.03-5.09c0.69-1.59,1.63-2.98,2.81-4.17c1.19-1.19,2.57-2.13,4.16-2.81
				c1.58-0.69,3.28-1.03,5.08-1.03c1.82,0,3.53,0.34,5.12,1.03c1.59,0.69,2.98,1.63,4.16,2.81c1.18,1.19,2.11,2.58,2.79,4.17
				s1.02,3.29,1.02,5.09c0,1.81-0.34,3.5-1.02,5.09c-0.68,1.59-1.61,2.98-2.79,4.16s-2.56,2.11-4.16,2.8
				c-1.59,0.69-3.3,1.03-5.12,1.03c-1.81,0-3.5-0.34-5.08-1.03c-1.58-0.69-2.97-1.62-4.16-2.8s-2.13-2.56-2.81-4.16
				C214.66,346.45,214.32,344.75,214.32,342.95z M219.07,342.95c0,1.14,0.22,2.21,0.66,3.22c0.44,1.01,1.03,1.89,1.78,2.65
				c0.75,0.76,1.63,1.35,2.64,1.79s2.1,0.65,3.26,0.65c1.18,0,2.27-0.22,3.28-0.65c1.01-0.44,1.89-1.03,2.64-1.79
				c0.75-0.76,1.34-1.64,1.77-2.65c0.43-1.01,0.64-2.08,0.64-3.22c0-1.14-0.21-2.21-0.64-3.22c-0.43-1.01-1.02-1.88-1.77-2.63
				c-0.75-0.75-1.63-1.34-2.64-1.78c-1.01-0.44-2.1-0.65-3.28-0.65c-1.16,0-2.25,0.22-3.26,0.65s-1.89,1.03-2.64,1.78
				c-0.75,0.75-1.35,1.63-1.78,2.63C219.29,340.73,219.07,341.81,219.07,342.95z"/>
			<path class="st0" d="M261.91,337.67c0.34,0,0.66,0.07,0.95,0.2s0.55,0.31,0.78,0.54c0.22,0.22,0.4,0.48,0.52,0.78
				c0.13,0.3,0.19,0.61,0.19,0.93c0,0.32-0.06,0.63-0.19,0.92c-0.13,0.29-0.3,0.54-0.52,0.75c-0.22,0.22-0.48,0.39-0.78,0.51
				s-0.61,0.19-0.95,0.19H245.9c-0.34,0-0.66-0.06-0.95-0.19s-0.55-0.3-0.76-0.51c-0.21-0.22-0.38-0.47-0.51-0.75
				c-0.13-0.29-0.19-0.59-0.19-0.92c0-0.68,0.23-1.26,0.7-1.74c0.46-0.48,1.04-0.71,1.72-0.71H261.91z"/>
			<path class="st0" d="M269.04,324.47c0-0.32,0.06-0.63,0.19-0.92c0.12-0.29,0.3-0.55,0.52-0.78c0.22-0.22,0.48-0.4,0.76-0.52
				c0.28-0.13,0.59-0.19,0.91-0.19s0.63,0.06,0.93,0.19c0.3,0.13,0.56,0.29,0.79,0.51s0.4,0.47,0.53,0.76
				c0.13,0.29,0.2,0.61,0.2,0.95v5.25h10.64c0.66,0,1.22,0.24,1.69,0.71c0.46,0.47,0.7,1.04,0.7,1.7c0,0.64-0.23,1.18-0.68,1.62
				c-0.46,0.44-1.02,0.66-1.7,0.66h-10.64v8.74c0,1.14,0.21,2.21,0.64,3.2c0.43,0.99,1.01,1.85,1.76,2.59
				c0.74,0.73,1.62,1.31,2.63,1.73c1.01,0.42,2.1,0.63,3.26,0.63c1.02,0,1.98-0.15,2.88-0.44c0.9-0.29,1.73-0.79,2.48-1.49
				c0.57-0.54,1.17-0.8,1.8-0.8c0.27,0,0.53,0.05,0.79,0.16c0.26,0.11,0.49,0.26,0.7,0.46c0.21,0.2,0.37,0.43,0.48,0.7
				c0.12,0.27,0.17,0.56,0.17,0.88c0,0.36-0.08,0.72-0.23,1.09c-0.15,0.37-0.36,0.68-0.63,0.95c-1.13,1.07-2.4,1.88-3.82,2.41
				c-1.42,0.54-2.96,0.8-4.63,0.8c-1.82,0-3.53-0.33-5.12-0.99c-1.59-0.66-2.98-1.57-4.16-2.73s-2.12-2.53-2.8-4.1
				s-1.03-3.27-1.03-5.09V324.47z"/>
			<path class="st0" d="M293.09,342.95c0-1.8,0.34-3.5,1.03-5.09c0.69-1.59,1.63-2.98,2.81-4.17c1.19-1.19,2.57-2.13,4.16-2.81
				c1.58-0.69,3.28-1.03,5.08-1.03c1.82,0,3.53,0.34,5.12,1.03c1.59,0.69,2.98,1.63,4.16,2.81c1.18,1.19,2.11,2.58,2.79,4.17
				c0.68,1.59,1.02,3.29,1.02,5.09c0,1.81-0.34,3.5-1.02,5.09c-0.68,1.59-1.61,2.98-2.79,4.16s-2.56,2.11-4.16,2.8
				c-1.59,0.69-3.3,1.03-5.12,1.03c-1.81,0-3.5-0.34-5.08-1.03c-1.58-0.69-2.97-1.62-4.16-2.8s-2.13-2.56-2.81-4.16
				C293.44,346.45,293.09,344.75,293.09,342.95z M297.84,342.95c0,1.14,0.22,2.21,0.66,3.22c0.44,1.01,1.03,1.89,1.78,2.65
				c0.75,0.76,1.63,1.35,2.64,1.79s2.1,0.65,3.26,0.65c1.18,0,2.27-0.22,3.28-0.65s1.89-1.03,2.64-1.79
				c0.75-0.76,1.34-1.64,1.77-2.65c0.43-1.01,0.64-2.08,0.64-3.22c0-1.14-0.21-2.21-0.64-3.22c-0.43-1.01-1.02-1.88-1.77-2.63
				c-0.75-0.75-1.63-1.34-2.64-1.78s-2.1-0.65-3.28-0.65c-1.16,0-2.25,0.22-3.26,0.65s-1.89,1.03-2.64,1.78
				c-0.75,0.75-1.35,1.63-1.78,2.63C298.06,340.73,297.84,341.81,297.84,342.95z"/>
			<path class="st0" d="M321.62,342.95c0-1.8,0.34-3.5,1.03-5.09c0.69-1.59,1.63-2.98,2.81-4.17c1.19-1.19,2.57-2.13,4.16-2.81
				c1.58-0.69,3.28-1.03,5.08-1.03c1.82,0,3.53,0.34,5.12,1.03c1.59,0.69,2.98,1.63,4.16,2.81c1.18,1.19,2.11,2.58,2.79,4.17
				s1.02,3.29,1.02,5.09c0,1.81-0.34,3.5-1.02,5.09c-0.68,1.59-1.61,2.98-2.79,4.16s-2.57,2.11-4.16,2.8
				c-1.59,0.69-3.3,1.03-5.12,1.03c-1.8,0-3.5-0.34-5.08-1.03c-1.58-0.69-2.97-1.62-4.16-2.8s-2.13-2.56-2.81-4.16
				C321.96,346.45,321.62,344.75,321.62,342.95z M326.36,342.95c0,1.14,0.22,2.21,0.66,3.22c0.44,1.01,1.03,1.89,1.78,2.65
				c0.75,0.76,1.63,1.35,2.64,1.79c1.01,0.44,2.09,0.65,3.26,0.65c1.18,0,2.28-0.22,3.29-0.65s1.89-1.03,2.64-1.79
				c0.75-0.76,1.34-1.64,1.77-2.65c0.43-1.01,0.64-2.08,0.64-3.22c0-1.14-0.21-2.21-0.64-3.22c-0.43-1.01-1.02-1.88-1.77-2.63
				c-0.75-0.75-1.63-1.34-2.64-1.78s-2.11-0.65-3.29-0.65c-1.16,0-2.25,0.22-3.26,0.65c-1.01,0.44-1.89,1.03-2.64,1.78
				c-0.75,0.75-1.35,1.63-1.78,2.63C326.58,340.73,326.36,341.81,326.36,342.95z"/>
			<path class="st0" d="M352.24,322.95c0-0.68,0.22-1.25,0.67-1.7c0.45-0.46,0.99-0.68,1.64-0.68c0.32,0,0.63,0.06,0.92,0.17
				c0.29,0.12,0.55,0.28,0.78,0.5c0.22,0.21,0.4,0.47,0.54,0.76s0.2,0.61,0.2,0.95v23.81c0,1.39,0.37,2.46,1.11,3.2
				c0.74,0.74,1.76,1.11,3.07,1.11c0.68,0,1.24,0.23,1.68,0.68c0.44,0.46,0.66,1.01,0.66,1.65c0,0.68-0.21,1.24-0.64,1.68
				c-0.43,0.44-0.98,0.66-1.66,0.66c-1.27,0-2.45-0.21-3.54-0.64c-1.09-0.43-2.04-1.04-2.84-1.84s-1.43-1.74-1.89-2.84
				c-0.46-1.1-0.68-2.32-0.68-3.66V322.95z"/>
			<path class="st0" d="M378.35,344.93h-3.33h-1.53c-1.07,0-2.06-0.21-2.98-0.63c-0.91-0.42-1.7-0.98-2.37-1.69
				c-0.67-0.71-1.19-1.53-1.57-2.46c-0.38-0.93-0.56-1.92-0.56-2.95c0-1.02,0.2-1.98,0.59-2.87c0.39-0.9,0.92-1.68,1.59-2.35
				c0.67-0.67,1.46-1.2,2.37-1.58c0.91-0.38,1.89-0.58,2.92-0.58h9.3c0.64,0,1.2,0.2,1.66,0.59s0.7,0.97,0.7,1.73
				c0,0.34-0.06,0.66-0.17,0.96c-0.12,0.3-0.28,0.56-0.48,0.78c-0.21,0.22-0.44,0.4-0.71,0.53c-0.27,0.13-0.55,0.19-0.86,0.19h-0.13
				h-9.28c-0.39,0-0.75,0.08-1.09,0.23s-0.62,0.36-0.87,0.62c-0.25,0.26-0.45,0.55-0.59,0.88c-0.14,0.33-0.21,0.68-0.21,1.06
				c0,0.41,0.07,0.79,0.21,1.13s0.34,0.63,0.6,0.87s0.55,0.43,0.89,0.58c0.33,0.14,0.68,0.21,1.06,0.21h1.56h3.84
				c1.09,0,2.1,0.21,3.04,0.63c0.93,0.42,1.73,0.99,2.4,1.7c0.67,0.71,1.2,1.55,1.58,2.49c0.38,0.95,0.58,1.94,0.58,2.98
				c0,1.06-0.19,2.05-0.58,2.99c-0.39,0.94-0.92,1.76-1.6,2.47c-0.68,0.71-1.5,1.26-2.44,1.68c-0.94,0.41-1.96,0.62-3.05,0.62
				h-11.13c-0.63,0-1.14-0.22-1.56-0.67c-0.41-0.45-0.62-1.03-0.62-1.74c0-0.71,0.21-1.28,0.62-1.69s0.93-0.62,1.56-0.62h10.72
				c0.39,0,0.79-0.07,1.18-0.2c0.39-0.13,0.75-0.33,1.07-0.6c0.32-0.27,0.58-0.59,0.78-0.98c0.2-0.38,0.29-0.84,0.29-1.35
				c0-0.5-0.09-0.93-0.28-1.29c-0.19-0.36-0.44-0.65-0.75-0.88c-0.31-0.23-0.67-0.41-1.06-0.54c-0.39-0.13-0.79-0.2-1.21-0.21h-0.05
				H378.35z"/>
		</g>
		<path class="st0" d="M312.94,257.26c10.66,8.65,10.74,10.55,19.85,20.58c-1.92,2.09-3.71,4.15-5.61,6.1
			c-4.26,4.38-8.43,8.87-12.91,13.02c-6.79,6.31-14.65,10.84-23.47,13.07c1.19,2.1,2.36,4.19,3.59,6.37
			c5.43-1.46,10.61-3.92,15.49-7.05c7.47-4.79,13.72-10.97,19.7-17.45c2.68-2.9,5.35-5.82,8.12-8.83
			c12.94,13.95,28.37,22.23,47.75,22.14c0.02-2.39,0.04-4.63,0.07-7.08c-17.48,0.05-31.28-7.57-42.8-20.17
			c11.83-12.42,25.83-19.79,43.27-19.36c0.02-2.4,0.04-4.43,0.06-6.47c0-0.16-0.08-0.32-0.15-0.6
			c-19.31-0.44-34.91,7.52-48.09,21.24c-2.51-2.83-4.9-5.52-7.29-8.22c-6.27-7.08-7.78-9.17-15.42-15.38
			C315.09,249.14,308.98,255.01,312.94,257.26z"/>
		<path class="st0" d="M184.07,287.87c0.08-8.57,0.16-16.88,0.24-25.24c-2.4-0.02-4.69-0.04-6.94-0.07
			c-0.08,8.52-0.16,16.88-0.24,25.24C179.51,287.83,181.76,287.85,184.07,287.87z"/>
		<path class="st0" d="M382.91,291.04c0.08-8.53,0.16-16.87,0.24-25.33c-2.34-0.02-4.57-0.04-6.84-0.06
			c-0.08,8.48-0.16,16.88-0.24,25.33C378.37,290.99,380.57,291.01,382.91,291.04z"/>
		<path class="st0" d="M366.36,284.54c0.04-4.34,0.08-8.54,0.12-12.73c-2.38-0.02-4.61-0.04-6.93-0.07
			c-0.04,4.3-0.08,8.45-0.12,12.73C361.75,284.5,363.99,284.52,366.36,284.54z"/>
		<path class="st0" d="M193.97,268.94c-0.04,4.28-0.08,8.45-0.12,12.76c2.3,0.02,4.54,0.04,6.88,0.07
			c0.04-4.29,0.08-8.47,0.12-12.76C198.55,268.98,196.31,268.96,193.97,268.94z"/>
		<path class="st0" d="M312.18,247.13c8,5.19,12.06,10.31,18.33,17.39c2.39,2.7,4.78,5.39,7.29,8.22
			c13.19-13.71,28.79-21.67,48.09-21.24c0.07,0.28,0.15,0.44,0.15,0.6c-0.01,2.04-0.03,4.08-0.06,6.47
			c-17.44-0.42-31.44,6.94-43.27,19.36c11.53,12.6,25.32,20.22,42.8,20.17c-0.02,2.46-0.04,4.7-0.07,7.08
			c-19.38,0.09-34.81-8.19-47.75-22.14c-2.77,3.02-5.44,5.93-8.12,8.83c-5.98,6.47-12.23,12.65-19.7,17.45
			c-4.88,3.13-10.06,5.59-15.49,7.05c-1.23-2.18-2.4-4.26-3.59-6.37c8.82-2.23,16.68-6.76,23.47-13.07
			c4.47-4.16,8.64-8.64,12.91-13.02c1.9-1.95,3.69-4.01,5.61-6.1c-9.11-10.02-13.91-15.21-23.5-23.95L312.18,247.13z"/>
		<path class="st0" d="M222.51,280.75c-13.21,13.73-28.74,21.62-48.21,21.24c0.01-1.2,0.02-2.33,0.03-3.47
			c0.01-1.1,0.02-2.2,0.03-3.63c17.5,0.43,31.43-6.99,43.25-19.35c-11.52-12.53-25.27-20.24-42.88-20.14
			c0.01-1.32,0.02-2.47,0.03-3.62c0.01-1.1,0.02-2.2,0.03-3.62c2.63,0.19,5.11,0.27,7.57,0.55c9.36,1.06,17.99,4.17,25.84,9.38
			c0.51,0.34,4.34,2.96,5.34,3.87c3,2.74,6.05,5.43,9.22,8.26c8.17-8.63,15.8-17.94,25.46-24.56c2.21,1.49,4.23,2.87,6.34,4.29
			c-10.44,6.7-18.41,16.42-27.15,25.81c5.35,5.78,10.6,11.46,15.86,17.13c0.9,0.97,6.7,6.59,10.44,8.79
			c-1.94,1.33-3.97,2.73-6.18,4.24C238.1,299.16,230.66,289.77,222.51,280.75z"/>
		<path class="st0" d="M184.07,287.87c-2.31-0.02-4.56-0.04-6.94-0.07c0.08-8.37,0.16-16.72,0.24-25.24
			c2.25,0.02,4.53,0.04,6.94,0.07C184.23,270.99,184.15,279.3,184.07,287.87z"/>
		<path class="st0" d="M382.91,291.04c-2.34-0.02-4.54-0.04-6.84-0.06c0.08-8.45,0.16-16.85,0.24-25.33
			c2.27,0.02,4.5,0.04,6.84,0.06C383.07,274.16,382.99,282.51,382.91,291.04z"/>
		<path class="st0" d="M366.36,284.54c-2.37-0.02-4.6-0.04-6.93-0.07c0.04-4.28,0.08-8.43,0.12-12.73c2.31,0.02,4.55,0.04,6.93,0.07
			C366.44,276,366.4,280.2,366.36,284.54z"/>
		<path class="st0" d="M193.97,268.94c2.33,0.02,4.58,0.04,6.88,0.07c-0.04,4.29-0.08,8.47-0.12,12.76
			c-2.33-0.02-4.57-0.04-6.88-0.07C193.89,277.4,193.93,273.22,193.97,268.94z"/>
	</g>
	<g>
		<g>
			<g>
				<path class="st1" d="M266.75,297.75l18.29-0.77c0.64-9.09,5.08-13.52,7.57-17.18c2.34-3.44,4.57-7.1,4.57-13.52
					c0-0.51-0.57-2.88-0.61-3.41c-0.59,0.24-3.49,1.2-4.11,1.37l-0.09,2.91c0,0.34-1.36,0.21-1.71,0.21h-1.74
					c-0.35,0-1.64,0.13-1.64-0.21l-0.13-2.97c-2.48-0.63-4.28-1.68-6.07-3.47l-1.41,0.64c0,0-1.45,0.83-1.62,0.53l-1.83-3.12
					c-0.08-0.14-0.38-0.77-0.34-0.93c0.04-0.16,0.98-0.77,1.12-0.86l1.46-0.74c-0.34-1.2-0.69-3.54-0.69-4.8
					c0-1.25,0.17-1.18,0.51-2.39l-1.46-0.83c-0.35-0.23-1.57-0.88-2.29-0.88c-10.94,0-19.95,8.74-19.95,18.96
					c0,6.42,2.25,9.2,4.58,12.64C261.65,282.58,266.11,288.66,266.75,297.75z"/>
			</g>
		</g>
		<g>
			<path class="st2" d="M266.01,296.62h19.74c0.43,0,0.79,0.35,0.79,0.78v1.84c0,0.43-0.35,0.78-0.79,0.78h-19.74
				c-0.43,0-0.8-0.35-0.8-0.78v-1.84C265.21,296.97,265.58,296.62,266.01,296.62z"/>
		</g>
		<path class="st0" d="M285.75,300.64h-19.74c-0.79,0-1.43-0.63-1.43-1.4v-1.84c0-0.77,0.64-1.4,1.43-1.4h19.74
			c0.78,0,1.42,0.63,1.42,1.4v1.84C287.16,300.01,286.53,300.64,285.75,300.64z"/>
		<g>
		</g>
		<g>
			<path class="st0" d="M284.34,304.04h-16.93c-0.79,0-1.43-0.63-1.43-1.4v-1.84c0-0.77,0.64-1.4,1.43-1.4h16.93
				c0.79,0,1.43,0.63,1.43,1.4v1.84C285.77,303.41,285.13,304.04,284.34,304.04z"/>
		</g>
		<g>
			<path class="st2" d="M281.79,303.41c0.01,0.15,0.02,0.29,0.02,0.45c0,3.22-2.65,5.83-5.93,5.83c-3.27,0-5.92-2.61-5.92-5.83
				c0-0.16,0.01-0.3,0.02-0.45H281.79z"/>
		</g>
		<g>
			<path class="st0" d="M275.87,310.5c-3.61,0-6.55-2.89-6.55-6.45c0-0.14,0.01-0.28,0.01-0.41c0.02-0.33,0.3-0.66,0.63-0.66h11.82
				c0.34,0,0.61,0.26,0.63,0.59c0.01,0.2,0.02,0.34,0.02,0.48C282.43,307.61,279.49,310.5,275.87,310.5z"/>
		</g>
		<g>
			<path class="st0" d="M279.56,296.97c-0.01,0-0.01,0-0.02,0c-0.35-0.01-0.62-0.3-0.61-0.64l0.33-9.3l-9.79-8.27
				c-0.26-0.22-0.29-0.62-0.07-0.88c0.23-0.26,0.63-0.29,0.89-0.07l10.02,8.47c0.14,0.12,0.23,0.3,0.22,0.49l-0.34,9.6
				C280.18,296.71,279.9,296.97,279.56,296.97z"/>
		</g>
		<g>
			<path class="st0" d="M282.48,296.94C282.48,296.94,282.48,296.94,282.48,296.94c-0.35,0-0.63-0.28-0.63-0.63l0.12-12.55
				c0-0.34,0.24-0.63,0.64-0.61c0.35,0,0.63,0.28,0.63,0.63l-0.12,12.55C283.11,296.67,282.83,296.94,282.48,296.94z"/>
		</g>
		<g>
			<path class="st0" d="M269.66,298.32C269.66,298.32,269.66,298.32,269.66,298.32c-0.35,0-0.62-0.23-0.61-0.5l0.12-10.01
				c0-0.27,0.24-0.5,0.62-0.49c0.34,0,0.61,0.23,0.61,0.5l-0.12,10.01C270.27,298.1,270,298.32,269.66,298.32z"/>
		</g>
		<g>
			<path class="st0" d="M274.77,297.24c-0.35,0-0.63-0.28-0.63-0.62v-24.63c0-0.34,0.28-0.62,0.63-0.62c0.35,0,0.63,0.28,0.63,0.62
				v24.63C275.4,296.96,275.12,297.24,274.77,297.24z"/>
		</g>
		<g>
			<g>
				<path class="st3" d="M292.4,267.86h-5.16c-0.31,0-0.56-0.25-0.56-0.55v-2.76c-2.2-0.56-4.18-1.69-5.78-3.29l-2.44,1.38
					c-0.27,0.15-0.61,0.06-0.76-0.2l-2.59-4.4c-0.07-0.13-0.1-0.28-0.06-0.42c0.04-0.14,0.13-0.26,0.26-0.33l2.43-1.38
					c-0.3-1.06-0.45-2.17-0.45-3.29c0-1.11,0.15-2.21,0.45-3.29l-2.43-1.37c-0.13-0.07-0.22-0.19-0.26-0.33
					c-0.04-0.14-0.02-0.29,0.06-0.42l2.59-4.41c0.15-0.26,0.5-0.35,0.76-0.2l2.44,1.38c1.6-1.6,3.58-2.73,5.77-3.28v-2.77
					c0-0.3,0.25-0.55,0.56-0.55h5.16c0.31,0,0.56,0.25,0.56,0.55v2.77c2.19,0.55,4.17,1.68,5.78,3.28l2.43-1.38
					c0.13-0.07,0.28-0.09,0.43-0.06c0.14,0.04,0.27,0.13,0.34,0.26l2.58,4.41c0.07,0.13,0.09,0.28,0.06,0.42
					c-0.04,0.14-0.13,0.26-0.26,0.33l-2.43,1.37c0.3,1.07,0.45,2.17,0.45,3.29c0,1.12-0.15,2.22-0.45,3.29l2.43,1.38
					c0.27,0.15,0.36,0.49,0.2,0.75l-2.58,4.4c-0.07,0.13-0.2,0.22-0.34,0.26c-0.14,0.04-0.3,0.02-0.43-0.06l-2.43-1.38
					c-1.6,1.6-3.58,2.73-5.78,3.29v2.76C292.96,267.61,292.71,267.86,292.4,267.86z M287.8,266.75h4.04v-2.64
					c0-0.26,0.18-0.48,0.44-0.54c2.3-0.5,4.36-1.67,5.95-3.38c0.18-0.19,0.47-0.23,0.69-0.1l2.33,1.32l2.02-3.44l-2.33-1.32
					c-0.23-0.13-0.33-0.4-0.25-0.64c0.35-1.08,0.52-2.22,0.52-3.38c0-1.15-0.18-2.29-0.52-3.38c-0.08-0.25,0.03-0.51,0.26-0.64
					l2.32-1.31l-2.02-3.45l-2.32,1.32c-0.23,0.13-0.51,0.09-0.69-0.1c-1.61-1.72-3.67-2.89-5.95-3.37
					c-0.26-0.05-0.44-0.28-0.44-0.54v-2.65h-4.04v2.65c0,0.26-0.18,0.48-0.44,0.54c-2.29,0.49-4.34,1.66-5.94,3.37
					c-0.18,0.19-0.47,0.23-0.69,0.11l-2.33-1.32l-2.03,3.45l2.32,1.31c0.23,0.13,0.33,0.39,0.26,0.64c-0.35,1.1-0.52,2.24-0.52,3.38
					c0,1.16,0.18,2.3,0.52,3.38c0.08,0.25-0.03,0.51-0.25,0.64l-2.33,1.32l2.03,3.44l2.34-1.32c0.23-0.13,0.52-0.09,0.69,0.11
					c1.59,1.71,3.64,2.88,5.94,3.38c0.26,0.06,0.44,0.28,0.44,0.54V266.75z"/>
			</g>
		</g>
		<g>
			<path class="st4" d="M289.63,259.4c-3.8,0-6.9-3.04-6.9-6.79c0-3.74,3.1-6.78,6.9-6.78c3.81,0,6.91,3.04,6.91,6.78
				C296.54,256.36,293.44,259.4,289.63,259.4z M289.63,247.43c-2.91,0-5.28,2.33-5.28,5.19c0,2.86,2.37,5.19,5.28,5.19
				c2.92,0,5.29-2.33,5.29-5.19C294.93,249.75,292.55,247.43,289.63,247.43z"/>
		</g>
		<g>
			<g>
				<path class="st2" d="M282.6,278.91c1.36,0,2.47,1.09,2.47,2.43c0,1.34-1.11,2.44-2.47,2.44c-1.37,0-2.48-1.09-2.48-2.44
					C280.13,280,281.23,278.91,282.6,278.91z"/>
			</g>
			<g>
				<path class="st0" d="M282.6,284.4c-1.71,0-3.11-1.37-3.11-3.06c0-1.68,1.39-3.05,3.11-3.05c1.71,0,3.1,1.37,3.1,3.05
					C285.71,283.02,284.31,284.4,282.6,284.4z M282.6,279.53c-1.02,0-1.85,0.81-1.85,1.81c0,1,0.83,1.82,1.85,1.82
					c1.02,0,1.84-0.81,1.84-1.82C284.44,280.34,283.62,279.53,282.6,279.53z"/>
			</g>
		</g>
		<g>
			<g>
				<path class="st2" d="M274.77,267.13c1.37,0,2.47,1.08,2.47,2.42c0,1.34-1.1,2.44-2.47,2.44c-1.36,0-2.48-1.09-2.48-2.44
					C272.3,268.21,273.41,267.13,274.77,267.13z"/>
			</g>
			<g>
				<path class="st0" d="M274.77,272.61c-1.71,0-3.11-1.37-3.11-3.06c0-1.68,1.39-3.04,3.11-3.04c1.71,0,3.1,1.37,3.1,3.04
					C277.87,271.24,276.48,272.61,274.77,272.61z M274.77,267.75c-1.02,0-1.85,0.81-1.85,1.8c0,1,0.83,1.82,1.85,1.82
					c1.01,0,1.84-0.81,1.84-1.82C276.61,268.56,275.78,267.75,274.77,267.75z"/>
			</g>
		</g>
		<g>
			<path class="st0" d="M267.94,279.87c-1.71,0-3.11-1.37-3.11-3.06c0-1.69,1.39-3.06,3.11-3.06s3.11,1.37,3.11,3.06
				C271.05,278.5,269.66,279.87,267.94,279.87z M267.94,275c-1.02,0-1.85,0.81-1.85,1.82c0,1,0.83,1.81,1.85,1.81
				s1.85-0.81,1.85-1.81C269.79,275.82,268.96,275,267.94,275z"/>
		</g>
		<g>
			<g>
				<path class="st2" d="M269.73,282.91c1.37,0,2.48,1.08,2.48,2.43c0,1.34-1.11,2.43-2.48,2.43c-1.37,0-2.47-1.09-2.47-2.43
					C267.27,284,268.37,282.91,269.73,282.91z"/>
			</g>
			<g>
				<path class="st0" d="M269.73,288.4c-1.71,0-3.1-1.37-3.1-3.06c0-1.68,1.39-3.05,3.1-3.05c1.71,0,3.11,1.37,3.11,3.05
					C272.84,287.03,271.45,288.4,269.73,288.4z M269.73,283.53c-1.01,0-1.84,0.81-1.84,1.81c0,1,0.82,1.81,1.84,1.81
					c1.02,0,1.85-0.81,1.85-1.81C271.58,284.34,270.75,283.53,269.73,283.53z"/>
			</g>
		</g>
	</g>
</g>
</svg>
