<?xml version="1.0" encoding="utf-8"?>
<!-- Generator: Adobe Illustrator 23.0.2, SVG Export Plug-In . SVG Version: 6.00 Build 0)  -->
<svg version="1.1" id="Capa_1" xmlns="http://www.w3.org/2000/svg" xmlns:xlink="http://www.w3.org/1999/xlink" x="0px" y="0px"
	 viewBox="0 0 64.3 73.6" style="enable-background:new 0 0 64.3 73.6;" xml:space="preserve">
<style type="text/css">
	.st0{fill:#FFFFFF;}
	.st1{fill:#015989;}
	.st2{clip-path:url(#SVGID_2_);}
	.st3{fill:#FAD000;}
	.st4{fill:none;}
	.st5{fill:#015989;stroke:#FFFFFF;stroke-width:0.75;stroke-miterlimit:10;}
	.st6{fill:#FFFFFF;stroke:#FFFFFF;stroke-width:0.75;stroke-miterlimit:10;}
	.st7{fill:#FAD000;stroke:#FFFFFF;stroke-width:0.75;stroke-miterlimit:10;}
</style>
<path class="st0" d="M36.5,17c0,0,5.6,1.5,8.8,6.6c3.2,5.1,0,0,0,0s-0.4,0.5-0.6,0.7c-0.2,0.2-0.6,0.5-0.9,0.7
	c-0.3,0.2-0.7,0.4-1,0.5c-0.3,0.1-0.4,0.1-0.4,0.1s-0.5,0.1-0.8,0.2c-0.4,0-0.9,0.1-0.9,0.1s-0.2,0-0.3,0"/>
<path class="st1" d="M21.9,57.5L19.2,47c0,0-2.7-6.4-2.7-6.7c0-0.3,4.5-7.1,4.5-7.1l7-2.2l7.3,5l3.3,10.3l-1.4,7.6l-0.6,4.3L22,58.4
	L21.9,57.5z"/>
<path class="st0" d="M37.2,58.6L37.2,58.6 M47.8,31.9L47.8,31.9L47.8,31.9 M28.1,15.5L28.1,15.5"/>
<g>
	<defs>
		<polyline id="SVGID_1_" points="10.7,15.5 47.8,15.5 47.8,58.6 10.7,58.6 10.7,15.5 		"/>
	</defs>
	<clipPath id="SVGID_2_">
		<use xlink:href="#SVGID_1_"  style="overflow:visible;"/>
	</clipPath>
	<g class="st2">
		<g>
			<path class="st3" d="M28.6,48.2v10.1c0,0.1,0,0.2-0.1,0.3h2.7c0-0.1-0.1-0.2-0.1-0.3l0,0l0.3-7.7L28.6,48.2 M23.5,47.8L23.5,47.8
				c-0.7,0-1.3,0.6-1.3,1.3l0,0l0,0c0,0.7,0.6,1.2,1.3,1.2h0.1c0.7,0,1.3-0.6,1.3-1.3C24.9,48.3,24.3,47.7,23.5,47.8
				C23.5,47.7,23.5,47.7,23.5,47.8 M34.7,44.4L34.7,44.4c-0.7,0-1.2,0.6-1.2,1.3c0,0.6,0.5,1.1,1.1,1.2h0.2c0.7,0,1.3-0.6,1.2-1.3
				S35.4,44.4,34.7,44.4 M22,40.6L22,40.6c-0.7,0-1.3,0.6-1.3,1.3l0,0l0,0c0,0.7,0.6,1.3,1.3,1.3l0,0c0.7,0,1.3-0.6,1.3-1.3
				C23.3,41.1,22.7,40.6,22,40.6 M27.9,34.5L27.9,34.5c-0.7,0-1.2,0.6-1.2,1.3c0,0.7,0.6,1.2,1.3,1.2c0.7,0,1.2-0.6,1.2-1.3
				C29.2,35,28.6,34.5,27.9,34.5C27.9,34.5,27.9,34.5,27.9,34.5 M28,15.5h-0.1c-9.5,0.1-17.2,7.6-17.2,16.5l0,0c0,5.6,2,8,4,11
				s5.8,7.7,6.3,15.6h1.6c0,0,0-0.1,0-0.1l0,0l0.1-6.7c-1.5-0.4-2.4-1.9-2.1-3.4c0.3-1.3,1.5-2.2,2.8-2.2l0,0c1.6,0,2.9,1.2,2.9,2.8
				c0,1.3-0.9,2.4-2.2,2.7v6.8l0,0c0,0,0,0,0,0.1h3c0-0.1-0.1-0.2-0.1-0.3l0,0V46.9l-3.4-2.8c-0.5,0.3-1.1,0.5-1.7,0.5l0,0v-0.3l0,0
				v0.3c-1.6,0-2.8-1.3-2.9-2.8v0l0,0c0.1-1.6,1.3-2.8,2.9-2.8h0.1c1.6,0,2.8,1.3,2.8,2.8c0,0.3-0.1,0.7-0.2,1l2.4,2v-6.4
				c-1.2-0.3-2-1.4-2.1-2.7l0,0l0,0c0-1.6,1.3-2.8,2.9-2.8l0,0c1.6,0,2.8,1.3,2.9,2.8c0,1.3-0.9,2.4-2.2,2.7v7.7l4.2,3.5
				c0.2,0.1,0.3,0.4,0.3,0.6l0,0l-0.3,8.1l0,0c0,0.1,0,0.2,0,0.3h1c-0.1-0.1-0.1-0.2-0.1-0.3l0,0l0.1-9.9c-1.2-0.3-2.1-1.4-2.1-2.7
				v0l0,0c0-1.6,1.3-2.8,2.9-2.8h0c1.6,0,2.8,1.3,2.8,2.8c0,1.3-0.9,2.4-2.1,2.7l-0.1,9.9c0,0.1,0,0.2-0.1,0.3h1.9
				c0.5-7.9,4.4-11.7,6.6-14.9c2-3,4-6.2,4-11.7v-0.1c0-0.5-0.5-2.5-0.5-3c-0.5,0.2-3,1-3.6,1.2l-0.1,2.6c0,0.2-0.4,0.2-0.8,0.2
				h-0.7h-1.5h-0.7c-0.4,0-0.8,0-0.8-0.2L39,30.1c-2-0.5-3.8-1.5-5.3-3l-1.2,0.6c-0.4,0.2-0.8,0.4-1.3,0.5c-0.1,0-0.1,0-0.1,0
				l-1.6-2.6c-0.1-0.3-0.2-0.5-0.3-0.8c0.3-0.3,0.6-0.5,1-0.7l1.3-0.6c-0.3-1.4-0.5-2.8-0.6-4.2c0-0.7,0.2-1.4,0.4-2.1l-1.3-0.8
				C29.5,15.9,28.8,15.7,28,15.5"/>
		</g>
	</g>
</g>
<path class="st4" d="M21.6,58.8l15.5-0.2c0.3,0,0.6,0.2,0.6,0.5l0,0v1.2c0,0.3-0.3,0.5-0.6,0.5c0,0,0,0,0,0L21.7,61
	c-0.3,0-0.6-0.2-0.6-0.5v-1.2C21.1,59,21.4,58.8,21.6,58.8z"/>
<path class="st5" d="M36.7,61.2l-15.5,0.2c-0.5,0.1-1.1-0.3-1.1-0.8c0,0,0-0.1,0-0.1v-1.2c0-0.6,0.5-1,1.1-0.9c0,0,0,0,0,0l15.5-0.2
	c0.5-0.1,1.1,0.3,1.1,0.9c0,0,0,0,0,0l0,0v1.2C37.7,60.8,37.3,61.2,36.7,61.2C36.7,61.2,36.7,61.2,36.7,61.2L36.7,61.2z"/>
<path class="st5" d="M35.6,64.3l-13.3,0.2c-0.5,0.1-1.1-0.3-1.1-0.9c0,0,0,0,0,0v-1.2c0-0.6,0.5-1,1.1-0.9c0,0,0,0,0,0l0,0l13.3-0.2
	c0.5-0.1,1.1,0.3,1.1,0.9c0,0,0,0,0,0l0,0v1.2C36.7,63.9,36.2,64.4,35.6,64.3C35.7,64.3,35.6,64.3,35.6,64.3L35.6,64.3z"/>
<path class="st5" d="M29.1,69.2c-2.8,0-5.1-1.8-5.2-4.1v-0.3c0-0.2,0.2-0.4,0.5-0.4l9.3-0.1c0.2,0,0.5,0.1,0.5,0.4V65
	C34.2,67.3,31.9,69.2,29.1,69.2z"/>
<path class="st5" d="M43.1,33.2h-4.5c-0.3,0-0.5-0.2-0.5-0.5c0,0,0,0,0,0l0,0v-2.4c-1.9-0.5-3.6-1.4-5-2.8l-2.1,1.2
	c-0.2,0.1-0.5,0.1-0.7-0.2l-2.3-3.8c0-0.1,0-0.2,0-0.4c0-0.1,0.1-0.2,0.2-0.3l2.1-1.2c-0.5-1.9-0.5-3.8,0-5.7L28.4,16
	c-0.1-0.1-0.2-0.2-0.2-0.3c0-0.1,0-0.2,0-0.3l2.2-3.9c0.1-0.2,0.4-0.3,0.7-0.2l0,0l2.1,1.3c1.4-1.4,3.1-2.4,5-2.8V7.2
	c0-0.3,0.2-0.5,0.5-0.5h4.5c0.3,0,0.5,0.2,0.5,0.4c0,0,0,0,0,0v2.4c1.9,0.5,3.6,1.5,5,2.8l2.2-1.1c0.1-0.1,0.3-0.1,0.4,0
	c0.1,0,0.2,0.1,0.3,0.2l2.2,3.8c0.1,0.2,0,0.5-0.2,0.7l-2.1,1.2c0.5,1.9,0.5,3.8,0,5.7l2.1,1.2c0.2,0.1,0.3,0.4,0.2,0.7l0,0
	l-2.2,3.8c-0.1,0.1-0.2,0.2-0.3,0.2c-0.1,0.1-0.3,0.1-0.4,0l-2.1-1.2c-1.4,1.4-3.1,2.4-5,2.9v2.3C43.7,33,43.5,33.2,43.1,33.2
	C43.2,33.2,43.2,33.2,43.1,33.2L43.1,33.2L43.1,33.2z"/>
<path class="st6" d="M40.9,25.5c-3,0-5.5-2.5-5.4-5.6c0-3,2.5-5.5,5.6-5.4c3,0,5.5,2.5,5.4,5.6c0,3-2.4,5.4-5.4,5.4H40.9z"/>
<path class="st4" d="M34.7,42.8c1.2,0,2.1,0.9,2.1,2.1c0,1.2-0.9,2.1-2.1,2.1c-1.2,0-2.1-0.9-2.1-2.1C32.6,43.8,33.5,42.8,34.7,42.8
	z"/>
<path class="st4" d="M23.5,46.3c1.2,0,2.1,1,2.1,2.1c0,1.2-1,2.1-2.1,2.1c-1.2,0-2.1-1-2.1-2.1C21.4,47.3,22.3,46.3,23.5,46.3z"/>
<path class="st7" d="M40.9,25.5c-3,0-5.5-2.5-5.4-5.6c0-1.3,0.5-2.4,1.2-3.4c0.1-0.1,2.3,0.6,5,2.7c1.8,1.4,3.7,3.9,3.7,4
	c-1,1.3-2.6,2.2-4.3,2.2H40.9z"/>
</svg>
