<svg id="Capa_1" data-name="Capa 1" xmlns="http://www.w3.org/2000/svg" viewBox="0 0 183.86 67.38"><defs><style>.cls-1{fill:#4e0c81;}.cls-2{fill:#f7ca44;}.cls-3{fill:none;}.cls-4{fill:#f7f5d0;}</style></defs><title>color sin letras</title><path class="cls-1" d="M120.38,15.93c9.26,7.51,9.33,9.17,17.24,17.87-1.67,1.82-3.22,3.6-4.87,5.3-3.7,3.8-7.32,7.7-11.21,11.31a46.6,46.6,0,0,1-20.38,11.34l3.12,5.53a48.34,48.34,0,0,0,13.45-6.12c6.48-4.17,11.91-9.53,17.1-15.15,2.33-2.52,4.65-5,7.06-7.67,11.23,12.12,24.63,19.3,41.46,19.22l.06-6.15c-15.18.05-27.16-6.57-37.17-17.51,10.28-10.79,22.43-17.18,37.58-16.81,0-2.09,0-3.85,0-5.62a2.2,2.2,0,0,0-.13-.53C167,10.56,153.42,17.47,142,29.38l-6.33-7.14c-5.44-6.14-6.75-8-13.39-13.35C122.25,8.89,116.94,14,120.38,15.93Z" transform="translate(0 0.1)"/><path class="cls-1" d="M8.48,42.52,8.69,20.6l-6-.06L2.46,42.46Z" transform="translate(0 0.1)"/><path class="cls-1" d="M181.14,45.27l.2-22-5.94-.06-.2,22Z" transform="translate(0 0.1)"/><path class="cls-1" d="M166.77,39.63l.1-11.06-6-.05-.11,11.05Z" transform="translate(0 0.1)"/><path class="cls-1" d="M17.09,26.08,17,37.16l6,.06.11-11.08Z" transform="translate(0 0.1)"/><path class="cls-1" d="M119.72,7.14c7,4.51,10.48,9,15.92,15.1L142,29.38c11.45-11.91,25-18.82,41.76-18.44a2.2,2.2,0,0,1,.13.53c0,1.77,0,3.53,0,5.62-15.15-.37-27.3,6-37.58,16.81,10,10.94,22,17.56,37.17,17.51l-.06,6.15c-16.83.08-30.23-7.1-41.46-19.22-2.41,2.62-4.73,5.15-7.06,7.67-5.19,5.62-10.62,11-17.1,15.15a48.34,48.34,0,0,1-13.45,6.12l-3.12-5.53a46.6,46.6,0,0,0,20.38-11.34c3.89-3.61,7.51-7.51,11.21-11.31,1.65-1.7,3.2-3.48,4.87-5.3A266.33,266.33,0,0,0,117.22,13Z" transform="translate(0 0.1)"/><path class="cls-1" d="M41.86,36.33C30.39,48.25,16.91,55.1,0,54.77l0-3,0-3.15C15.25,49,27.35,42.54,37.61,31.8,27.61,20.93,15.67,14.23.38,14.31l0-3.14L.44,8c2.29.17,4.44.24,6.57.48a50.42,50.42,0,0,1,22.44,8.14c.44.3,3.77,2.57,4.64,3.36,2.61,2.38,5.26,4.72,8,7.18,7.09-7.5,13.72-15.58,22.11-21.32l5.5,3.72C60.64,15.4,53.72,23.84,46.14,32c4.64,5,9.2,10,13.77,14.87.78.85,5.82,5.72,9.07,7.64l-5.37,3.68C55.4,52.32,48.94,44.16,41.86,36.33Z" transform="translate(0 0.1)"/><path class="cls-1" d="M8.48,42.52l-6-.06.21-21.92,6,.06Z" transform="translate(0 0.1)"/><path class="cls-2" d="M181.14,45.27l-5.94-.06.2-22,5.94.06Z" transform="translate(0 0.1)"/><path class="cls-1" d="M166.77,39.63l-6-.06.11-11,6,.05Z" transform="translate(0 0.1)"/><path class="cls-2" d="M17.09,26.08l6,.06L23,37.22l-6-.06Z" transform="translate(0 0.1)"/><path class="cls-2" d="M105,22.84a16.88,16.88,0,0,1,.14,2.15c0,12-8.06,10.81-9,26.35H78.23c-.91-15.54-9-14.38-9-26.35A17.79,17.79,0,0,1,86.07,7.37L86,7.49,88.74,9a11.39,11.39,0,0,0,0,6.93L86,17.53l2.53,4.3,2.76-1.56a11.68,11.68,0,0,0,6.09,3.47v3.12h5V23.74A12.11,12.11,0,0,0,105,22.84Z" transform="translate(0 0.1)"/><path class="cls-2" d="M96.17,51.88H78.23a.53.53,0,0,1-.54-.51c-.47-7.95-2.78-11.36-5-14.64-2-3-4-5.85-4-11.74A18.37,18.37,0,0,1,86,6.83a14.07,14.07,0,0,1,1.6.12,1.43,1.43,0,0,1,.77.42L89,8.57a.53.53,0,0,1,.25.63,10.94,10.94,0,0,0-.51,3.31,10.78,10.78,0,0,0,.51,3.3.53.53,0,0,1-.24.63l-2.28,1.29,2,3.37L91,19.8a.56.56,0,0,1,.68.11,11.11,11.11,0,0,0,5.81,3.3.55.55,0,0,1,.43.53v2.58h3.94V23.74a.55.55,0,0,1,.43-.53,11.71,11.71,0,0,0,2.48-.85c.16-.08.24-.42.4-.34a1.67,1.67,0,0,1,.39.76A19,19,0,0,1,105.7,25c0,5.89-1.93,8.73-4,11.74-2.23,3.28-4.54,6.69-5,14.64A.55.55,0,0,1,96.17,51.88ZM78.75,50.8H95.66a25.92,25.92,0,0,1,5.16-14.67c2-3,3.78-5.57,3.78-11.14q0-.66-.06-1.35a12.17,12.17,0,0,1-1.58.52v2.7a.55.55,0,0,1-.55.54h-5a.55.55,0,0,1-.55-.54v-2.7A12.17,12.17,0,0,1,91.18,21L88.79,22.3a.54.54,0,0,1-.74-.2l-2.53-4.3a.51.51,0,0,1,0-.4.49.49,0,0,1,.25-.33l2.38-1.35a11.93,11.93,0,0,1,0-6.42L85.72,8l0,0A17.26,17.26,0,0,0,69.81,25c0,5.57,1.75,8.15,3.78,11.14A25.92,25.92,0,0,1,78.75,50.8Z" transform="translate(0 0.1)"/><path class="cls-3" d="M78.63,51.34H95.77a.67.67,0,0,1,.68.67v1.6a.68.68,0,0,1-.68.68H78.63a.7.7,0,0,1-.69-.68V52A.69.69,0,0,1,78.63,51.34Z" transform="translate(0 0.1)"/><path class="cls-1" d="M95.77,54.83H78.63a1.24,1.24,0,0,1-1.24-1.22V52a1.23,1.23,0,0,1,1.24-1.21H95.77A1.22,1.22,0,0,1,97,52v1.6A1.23,1.23,0,0,1,95.77,54.83Z" transform="translate(0 0.1)"/><path class="cls-1" d="M94.55,57.78H79.85a1.23,1.23,0,0,1-1.23-1.22V55a1.23,1.23,0,0,1,1.23-1.22h14.7A1.23,1.23,0,0,1,95.79,55v1.59A1.23,1.23,0,0,1,94.55,57.78Z" transform="translate(0 0.1)"/><path class="cls-3" d="M92.34,57.24c0,.13,0,.25,0,.39a5.15,5.15,0,0,1-10.29,0c0-.14,0-.26,0-.39Z" transform="translate(0 0.1)"/><path class="cls-1" d="M87.19,63.39a5.66,5.66,0,0,1-5.69-5.6c0-.12,0-.23,0-.35a.59.59,0,0,1,.55-.57H92.33a.55.55,0,0,1,.55.51c0,.18,0,.29,0,.41A5.65,5.65,0,0,1,87.19,63.39Z" transform="translate(0 0.1)"/><path class="cls-1" d="M90.4,51.65h0a.55.55,0,0,1-.53-.56L90.14,43l-8.5-7.18a.53.53,0,0,1-.06-.76.55.55,0,0,1,.77-.06l8.7,7.35a.52.52,0,0,1,.19.43l-.3,8.34A.54.54,0,0,1,90.4,51.65Z" transform="translate(0 0.1)"/><path class="cls-1" d="M93.94,51.62h0a.54.54,0,0,1-.54-.54l.1-10.9a.53.53,0,0,1,.56-.53.54.54,0,0,1,.54.54l-.1,10.9A.55.55,0,0,1,93.94,51.62Z" transform="translate(0 0.1)"/><path class="cls-1" d="M80.81,52.81h0a.49.49,0,0,1-.53-.43l.1-8.69a.47.47,0,0,1,.54-.42.48.48,0,0,1,.53.43l-.1,8.69A.49.49,0,0,1,80.81,52.81Z" transform="translate(0 0.1)"/><path class="cls-1" d="M86.24,51.88a.54.54,0,0,1-.54-.54V30a.55.55,0,0,1,1.09,0V51.34A.54.54,0,0,1,86.24,51.88Z" transform="translate(0 0.1)"/><path class="cls-1" d="M101.55,3.16A10.46,10.46,0,0,1,107,6.24l2.44-1.39,2.25,3.83-2.44,1.37a10.17,10.17,0,0,1,.47,3.08,10,10,0,0,1-.47,3.08l2.44,1.39-2.25,3.82L107,20a10.46,10.46,0,0,1-5.42,3.08v2.78H97.07V23.11A10.39,10.39,0,0,1,91.66,20l-2.45,1.39L87,17.6l2.44-1.39a10,10,0,0,1-.48-3.08,10.18,10.18,0,0,1,.48-3.08L87,8.68l2.24-3.83,2.45,1.39a10.39,10.39,0,0,1,5.41-3.08V.38h4.48Z" transform="translate(0 0.1)"/><path class="cls-1" d="M101.55,26.37H97.07a.48.48,0,0,1-.48-.48v-2.4a10.87,10.87,0,0,1-5-2.85l-2.12,1.2a.49.49,0,0,1-.66-.18l-2.25-3.82a.45.45,0,0,1,0-.36.44.44,0,0,1,.22-.29L88.83,16a10.65,10.65,0,0,1,0-5.71L86.72,9.09a.46.46,0,0,1-.22-.29.45.45,0,0,1,0-.36l2.25-3.83a.48.48,0,0,1,.66-.17l2.12,1.19a10.78,10.78,0,0,1,5-2.84V.38a.48.48,0,0,1,.48-.48h4.48a.49.49,0,0,1,.49.48V2.79a10.79,10.79,0,0,1,5,2.84l2.11-1.19a.44.44,0,0,1,.37-.05.46.46,0,0,1,.29.22l2.25,3.83a.5.5,0,0,1,0,.36.51.51,0,0,1-.23.29l-2.11,1.19a10.65,10.65,0,0,1,0,5.71l2.11,1.2a.48.48,0,0,1,.18.65l-2.25,3.82a.46.46,0,0,1-.29.22.48.48,0,0,1-.37-.05l-2.11-1.19a11,11,0,0,1-5,2.85v2.4A.49.49,0,0,1,101.55,26.37Zm-4-1h3.5v-2.3a.47.47,0,0,1,.39-.46,10,10,0,0,0,5.16-2.94.5.5,0,0,1,.61-.09l2,1.15,1.75-3-2-1.15a.47.47,0,0,1-.22-.56,9.59,9.59,0,0,0,0-5.87.48.48,0,0,1,.22-.56l2-1.14-1.76-3-2,1.15a.5.5,0,0,1-.61-.09,9.9,9.9,0,0,0-5.16-2.93.48.48,0,0,1-.39-.47V.86h-3.5v2.3a.48.48,0,0,1-.38.47A9.86,9.86,0,0,0,92,6.56a.5.5,0,0,1-.6.09l-2-1.15-1.76,3,2,1.14a.47.47,0,0,1,.22.56,9.8,9.8,0,0,0,0,5.87.47.47,0,0,1-.22.56l-2,1.15,1.76,3,2-1.15a.49.49,0,0,1,.6.09,9.94,9.94,0,0,0,5.16,2.94.47.47,0,0,1,.38.46Z" transform="translate(0 0.1)"/><path class="cls-4" d="M99.31,6.61a6.53,6.53,0,1,1-6.64,6.52A6.58,6.58,0,0,1,99.31,6.61Z" transform="translate(0 0.1)"/><path class="cls-1" d="M99.31,20.14a7,7,0,1,1,7.12-7A7.07,7.07,0,0,1,99.31,20.14Zm0-13a6,6,0,1,0,6.15,6A6.1,6.1,0,0,0,99.31,7.09Z" transform="translate(0 0.1)"/><path class="cls-1" d="M99.31,17.22a4.09,4.09,0,1,1,4.15-4.09A4.13,4.13,0,0,1,99.31,17.22Zm0-7.21a3.13,3.13,0,1,0,3.18,3.12A3.16,3.16,0,0,0,99.31,10Z" transform="translate(0 0.1)"/><path class="cls-2" d="M94,36a2.12,2.12,0,1,1-2.15,2.11A2.13,2.13,0,0,1,94,36Z" transform="translate(0 0.1)"/><path class="cls-1" d="M94,40.73a2.65,2.65,0,1,1,2.7-2.66A2.68,2.68,0,0,1,94,40.73Zm0-4.23a1.58,1.58,0,1,0,1.6,1.57A1.59,1.59,0,0,0,94,36.5Z" transform="translate(0 0.1)"/><path class="cls-2" d="M86.24,25.74a2.11,2.11,0,1,1,0,4.22,2.11,2.11,0,1,1,0-4.22Z" transform="translate(0 0.1)"/><path class="cls-1" d="M86.24,30.49a2.65,2.65,0,1,1,2.69-2.65A2.68,2.68,0,0,1,86.24,30.49Zm0-4.22a1.58,1.58,0,1,0,1.6,1.57A1.59,1.59,0,0,0,86.24,26.27Z" transform="translate(0 0.1)"/><path class="cls-1" d="M80.31,36.8A2.66,2.66,0,1,1,83,34.15,2.68,2.68,0,0,1,80.31,36.8Zm0-4.23a1.58,1.58,0,1,0,1.61,1.58A1.59,1.59,0,0,0,80.31,32.57Z" transform="translate(0 0.1)"/><path class="cls-2" d="M80.87,39.44a2.11,2.11,0,1,1-2.14,2.11A2.13,2.13,0,0,1,80.87,39.44Z" transform="translate(0 0.1)"/><path class="cls-1" d="M80.87,44.2a2.65,2.65,0,1,1,2.7-2.65A2.68,2.68,0,0,1,80.87,44.2Zm0-4.22a1.57,1.57,0,1,0,1.6,1.57A1.59,1.59,0,0,0,80.87,40Z" transform="translate(0 0.1)"/></svg>