<svg id="Capa_1" data-name="Capa 1" xmlns="http://www.w3.org/2000/svg" xmlns:xlink="http://www.w3.org/1999/xlink" viewBox="0 0 258.44 63.24"><defs><style>.cls-1{fill:none;}.cls-2,.cls-7{fill:#fff;}.cls-3,.cls-6{fill:#015989;}.cls-4{clip-path:url(#clip-path);}.cls-5,.cls-8{fill:#fad000;}.cls-6,.cls-7,.cls-8{stroke:#fff;stroke-miterlimit:10;stroke-width:0.75px;}</style><clipPath id="clip-path" transform="translate(-14.78 -3.38)"><polyline class="cls-1" points="125.86 12.53 162.88 12.53 162.88 55.6 125.86 55.6 125.86 12.53"/></clipPath></defs><title>logo de color</title><path class="cls-2" d="M151.63,14a16.34,16.34,0,0,1,8.78,6.62h0a7.92,7.92,0,0,1-.63.73,5.26,5.26,0,0,1-.86.68,6,6,0,0,1-1,.53l-.37.13a5.07,5.07,0,0,1-.82.17c-.36,0-.88.06-.88.06l-.28,0" transform="translate(-14.78 -3.38)"/><path class="cls-3" d="M137,54.54,134.32,44s-2.68-6.43-2.68-6.75,4.51-7.07,4.51-7.07l7-2.25,7.27,5,3.27,10.34-1.38,7.56-.57,4.3-14.65.2Z" transform="translate(-14.78 -3.38)"/><path class="cls-2" d="M152.33,55.61h0M162.88,29h0M143.17,12.53h0" transform="translate(-14.78 -3.38)"/><g class="cls-4"><path class="cls-5" d="M143.76,45.24V55.3a.8.8,0,0,1-.06.3h2.71a.59.59,0,0,1-.07-.31h0l.29-7.69-2.87-2.35m-5.12-.46h0a1.29,1.29,0,0,0-1.31,1.26h0a1.32,1.32,0,0,0,1.33,1.23h.06a1.28,1.28,0,1,0-.08-2.55h0m11.14-3.3h0a1.26,1.26,0,0,0-1.22,1.32A1.27,1.27,0,0,0,149.68,44h.18a1.27,1.27,0,0,0-.07-2.54M137.07,37.6h0a1.3,1.3,0,0,0-1.3,1.28h0a1.31,1.31,0,0,0,1.33,1.25h0a1.28,1.28,0,1,0,0-2.56m5.88-6h0a1.26,1.26,0,0,0-1.19,1.34,1.27,1.27,0,0,0,2.54-.1A1.31,1.31,0,0,0,143,31.52h0m.2-19h-.1c-9.45.05-17.22,7.62-17.22,16.46h0c0,5.57,2,8,4,11s5.78,7.71,6.33,15.61h1.57v-.08h0l.09-6.72a2.81,2.81,0,0,1,.76-5.54h0a2.79,2.79,0,0,1,.74,5.51v6.76h0v.08h3a.62.62,0,0,1-.07-.29h0V43.94l-3.39-2.77a3.08,3.08,0,0,1-1.71.53h0v-.25h0v.25a2.86,2.86,0,0,1-2.85-2.82v-.05h0a2.86,2.86,0,0,1,2.9-2.77h.06a2.84,2.84,0,0,1,2.84,2.81,2.89,2.89,0,0,1-.21,1l2.39,2v-6.4a2.84,2.84,0,0,1-2.06-2.7h0a2.86,2.86,0,0,1,2.9-2.78h0A2.88,2.88,0,0,1,146,32.81a2.84,2.84,0,0,1-2.22,2.72v7.7L148,46.69a.72.72,0,0,1,.29.58h0l-.3,8.06h0a1.13,1.13,0,0,1,0,.26h1a.8.8,0,0,1-.08-.33h0l.11-9.87a2.85,2.85,0,0,1-2.07-2.7v0h0a2.86,2.86,0,0,1,2.9-2.77h0a2.81,2.81,0,0,1,.67,5.54l-.09,9.87a.88.88,0,0,1-.07.32h1.93c.55-7.91,4.41-11.74,6.57-14.91,2-3,4-6.15,4-11.69v-.06c0-.46-.49-2.5-.53-3-.51.21-3,1-3.57,1.18l-.11,2.56c0,.17-.39.21-.78.21H155c-.37,0-.75,0-.75-.21l-.12-2.58a10.74,10.74,0,0,1-5.27-3l-1.19.58a5,5,0,0,1-1.27.52.2.2,0,0,1-.14-.05l-1.59-2.62a2.76,2.76,0,0,1-.29-.8,4.55,4.55,0,0,1,1-.74l1.26-.65a21.08,21.08,0,0,1-.6-4.17,5.41,5.41,0,0,1,.44-2.07l-1.31-.77a4.89,4.89,0,0,0-2-.76" transform="translate(-14.78 -3.38)"/></g><path class="cls-1" d="M136.76,55.84l15.49-.21a.56.56,0,0,1,.62.47h0v1.19a.56.56,0,0,1-.59.51h0L136.78,58a.59.59,0,0,1-.63-.49v-1.2A.58.58,0,0,1,136.76,55.84Z" transform="translate(-14.78 -3.38)"/><path class="cls-6" d="M151.78,58.22l-15.45.22a1,1,0,0,1-1.15-.83.25.25,0,0,1,0-.08V56.34a1,1,0,0,1,1.07-.93h0l15.48-.22a1,1,0,0,1,1.12.85v0h0v1.19a1,1,0,0,1-1.08.92h0Z" transform="translate(-14.78 -3.38)"/><path class="cls-6" d="M150.74,61.29l-13.25.24a1,1,0,0,1-1.13-.86V59.44a1,1,0,0,1,1.06-.94h0l13.25-.19a1,1,0,0,1,1.12.85v0h0v1.19a1,1,0,0,1-1.06.94h-.05Z" transform="translate(-14.78 -3.38)"/><path class="cls-6" d="M144.21,66.25c-2.8,0-5.12-1.79-5.18-4.11v-.26a.49.49,0,0,1,.49-.43l9.27-.13a.44.44,0,0,1,.49.37V62C149.33,64.32,147,66.22,144.21,66.25Z" transform="translate(-14.78 -3.38)"/><path class="cls-6" d="M158.26,30.22h-4.45a.48.48,0,0,1-.49-.47h0v-2.4a10.87,10.87,0,0,1-5-2.82l-2.12,1.2a.49.49,0,0,1-.66-.17l-2.28-3.81a.55.55,0,0,1,0-.36.55.55,0,0,1,.23-.29l2.11-1.2a10.61,10.61,0,0,1,0-5.7L143.47,13a.57.57,0,0,1-.2-.29.58.58,0,0,1,0-.32l2.24-3.86a.49.49,0,0,1,.67-.19h0l2.15,1.25a10.87,10.87,0,0,1,5-2.85V4.24a.47.47,0,0,1,.48-.48h4.47a.46.46,0,0,1,.48.43h0V6.64a10.83,10.83,0,0,1,5,2.85l2.17-1.15a.4.4,0,0,1,.37,0,.47.47,0,0,1,.29.23l2.24,3.77a.57.57,0,0,1-.23.66l-2.1,1.19a10.61,10.61,0,0,1,0,5.7l2.11,1.2a.49.49,0,0,1,.18.66h0l-2.24,3.84a.43.43,0,0,1-.29.22.47.47,0,0,1-.37,0l-2.11-1.22a10.8,10.8,0,0,1-5,2.86v2.29a.46.46,0,0,1-.44.47h-.08Z" transform="translate(-14.78 -3.38)"/><path class="cls-7" d="M156,22.48a5.5,5.5,0,1,1,.12,0Z" transform="translate(-14.78 -3.38)"/><path class="cls-1" d="M149.78,39.82a2.11,2.11,0,1,1-2.11,2.11A2.14,2.14,0,0,1,149.78,39.82Z" transform="translate(-14.78 -3.38)"/><path class="cls-1" d="M138.61,43.34a2.11,2.11,0,1,1-2.15,2.1A2.14,2.14,0,0,1,138.61,43.34Z" transform="translate(-14.78 -3.38)"/><path class="cls-8" d="M156,22.48a5.5,5.5,0,0,1-4.26-8.91c.11-.13,2.29.6,5,2.74a22.24,22.24,0,0,1,3.71,4,5.48,5.48,0,0,1-4.33,2.18Z" transform="translate(-14.78 -3.38)"/><path class="cls-3" d="M14.78,55.82V24.12H26a16.74,16.74,0,0,1,6.71,1.25,13.71,13.71,0,0,1,7.75,8.42,19,19,0,0,1,1,6.14,18.44,18.44,0,0,1-1.09,6.53,14.29,14.29,0,0,1-3.1,5,13.77,13.77,0,0,1-4.87,3.22A17.06,17.06,0,0,1,26,55.82Zm21.6-15.89a14.65,14.65,0,0,0-.69-4.6,10.07,10.07,0,0,0-2-3.6,9.54,9.54,0,0,0-3.26-2.34A10.81,10.81,0,0,0,26,28.54H19.78V51.4H26a10.79,10.79,0,0,0,4.44-.87,9.28,9.28,0,0,0,3.26-2.41,10.42,10.42,0,0,0,2-3.64A14.81,14.81,0,0,0,36.38,39.93Z" transform="translate(-14.78 -3.38)"/><path class="cls-3" d="M56.69,56.26a12.42,12.42,0,0,1-4.95-1,11.46,11.46,0,0,1-6.27-6.45,12.39,12.39,0,0,1-.87-4.64,12.57,12.57,0,0,1,.87-4.66,11.89,11.89,0,0,1,2.45-3.89A11.48,11.48,0,0,1,51.74,33a12.52,12.52,0,0,1,5-1,11.82,11.82,0,0,1,8.7,3.59,11.19,11.19,0,0,1,2.39,3.8A12.59,12.59,0,0,1,68.66,44c0,.35,0,.69,0,1s-.06.58-.09.78H49.82a7.87,7.87,0,0,0,.74,2.82,7.38,7.38,0,0,0,1.56,2.16,6.86,6.86,0,0,0,2.19,1.41,6.94,6.94,0,0,0,2.56.49,7.48,7.48,0,0,0,1.94-.25,6.9,6.9,0,0,0,1.77-.71A6.3,6.3,0,0,0,62,50.55a5.63,5.63,0,0,0,1-1.47l4.19,1.2a9.7,9.7,0,0,1-4,4.31A12.36,12.36,0,0,1,56.69,56.26Zm7.1-13.88a7.88,7.88,0,0,0-.73-2.72,7.28,7.28,0,0,0-1.54-2.12,6.85,6.85,0,0,0-2.19-1.36,7.11,7.11,0,0,0-2.64-.49,6.92,6.92,0,0,0-2.61.49,6.71,6.71,0,0,0-3.68,3.48,8.09,8.09,0,0,0-.72,2.72Z" transform="translate(-14.78 -3.38)"/><path class="cls-3" d="M83.25,56.26a12.42,12.42,0,0,1-5-1,11.58,11.58,0,0,1-3.82-2.61A11.83,11.83,0,0,1,72,48.85a12.39,12.39,0,0,1-.87-4.64A12.57,12.57,0,0,1,72,39.55a12.06,12.06,0,0,1,2.45-3.89A11.48,11.48,0,0,1,78.3,33a12.52,12.52,0,0,1,5-1A11.82,11.82,0,0,1,92,35.66a11,11,0,0,1,2.39,3.8A12.59,12.59,0,0,1,95.22,44c0,.35,0,.69,0,1s-.06.58-.09.78H76.38a7.87,7.87,0,0,0,.74,2.82,7.38,7.38,0,0,0,1.56,2.16,6.86,6.86,0,0,0,2.19,1.41,6.94,6.94,0,0,0,2.56.49,7.48,7.48,0,0,0,1.94-.25,6.9,6.9,0,0,0,1.77-.71,6.3,6.3,0,0,0,1.43-1.14,5.63,5.63,0,0,0,1-1.47l4.19,1.2a9.7,9.7,0,0,1-4,4.31A12.36,12.36,0,0,1,83.25,56.26Zm7.1-13.88a7.88,7.88,0,0,0-.73-2.72,7.28,7.28,0,0,0-1.54-2.12,6.85,6.85,0,0,0-2.19-1.36,7.11,7.11,0,0,0-2.64-.49,6.92,6.92,0,0,0-2.61.49A6.71,6.71,0,0,0,77,39.66a8.09,8.09,0,0,0-.71,2.72Z" transform="translate(-14.78 -3.38)"/><path class="cls-3" d="M112.49,56.26a9.09,9.09,0,0,1-4.95-1.34,9.91,9.91,0,0,1-3.39-3.48V65.33H99.23V32.47h4.33v4.2A10.26,10.26,0,0,1,107,33.32a9.34,9.34,0,0,1,4.8-1.25,10,10,0,0,1,4.42,1,11.3,11.3,0,0,1,3.49,2.64A12.2,12.2,0,0,1,122,39.52a12.93,12.93,0,0,1,.83,4.6,14.48,14.48,0,0,1-.76,4.76A11.8,11.8,0,0,1,120,52.71a10.43,10.43,0,0,1-3.28,2.59A9.15,9.15,0,0,1,112.49,56.26Zm-1.6-4.19a6.06,6.06,0,0,0,2.83-.67,7,7,0,0,0,2.19-1.79,8,8,0,0,0,1.4-2.54,9,9,0,0,0,.5-3,8.28,8.28,0,0,0-.56-3,8,8,0,0,0-1.52-2.5,7.07,7.07,0,0,0-2.3-1.7,6.72,6.72,0,0,0-2.9-.63,6,6,0,0,0-2,.36,8.28,8.28,0,0,0-1.92,1,8,8,0,0,0-1.56,1.45,5,5,0,0,0-.93,1.81V47a8.81,8.81,0,0,0,1.16,2,8.27,8.27,0,0,0,1.58,1.6,7.59,7.59,0,0,0,1.9,1.08A5.84,5.84,0,0,0,110.89,52.07Z" transform="translate(-14.78 -3.38)"/><path class="cls-3" d="M185.36,56.61a23.23,23.23,0,0,1-2.59,1,11,11,0,0,1-3.52.55,7.39,7.39,0,0,1-2.19-.31,5.29,5.29,0,0,1-1.81-.94A4.28,4.28,0,0,1,174,55.3a6.12,6.12,0,0,1-.44-2.44V38.26H170.5V34.47h3.08V26.79h4.91v7.68h5.09v3.79h-5.09v13a2.44,2.44,0,0,0,.78,1.81,2.65,2.65,0,0,0,1.72.56,5.41,5.41,0,0,0,2-.36c.63-.24,1.09-.43,1.39-.58Z" transform="translate(-14.78 -3.38)"/><path class="cls-3" d="M198.67,58.26a12,12,0,0,1-5-1,11.56,11.56,0,0,1-3.77-2.63,11.4,11.4,0,0,1-2.41-3.86,13,13,0,0,1,0-9.24,11.2,11.2,0,0,1,2.43-3.86,11.78,11.78,0,0,1,3.79-2.64,12.92,12.92,0,0,1,9.87,0,11.78,11.78,0,0,1,3.79,2.64,11.38,11.38,0,0,1,2.44,3.86,13.12,13.12,0,0,1,0,9.24,11.47,11.47,0,0,1-2.44,3.86,11.76,11.76,0,0,1-3.79,2.63A11.92,11.92,0,0,1,198.67,58.26Zm-7-12a8.83,8.83,0,0,0,.54,3.13,7.72,7.72,0,0,0,1.47,2.47,6.89,6.89,0,0,0,2.21,1.65,6.48,6.48,0,0,0,5.49,0,6.7,6.7,0,0,0,2.21-1.67,7.79,7.79,0,0,0,1.47-2.5,8.74,8.74,0,0,0,.54-3.12,8.88,8.88,0,0,0-.54-3.11,7.89,7.89,0,0,0-1.47-2.52,6.7,6.7,0,0,0-2.21-1.67,6.35,6.35,0,0,0-2.74-.61,6,6,0,0,0-2.7.63,6.93,6.93,0,0,0-2.21,1.7,8.11,8.11,0,0,0-1.5,2.52A8.61,8.61,0,0,0,191.7,46.21Z" transform="translate(-14.78 -3.38)"/><path class="cls-3" d="M225.54,58.26a12,12,0,0,1-5-1,11.41,11.41,0,0,1-6.18-6.49,13,13,0,0,1,0-9.24,11.35,11.35,0,0,1,2.43-3.86,11.83,11.83,0,0,1,3.8-2.64,12.19,12.19,0,0,1,13.66,2.64,11.51,11.51,0,0,1,2.43,3.86,13,13,0,0,1,0,9.24,11.61,11.61,0,0,1-2.43,3.86,11.87,11.87,0,0,1-8.73,3.61Zm-7-12a8.83,8.83,0,0,0,.54,3.13,7.9,7.9,0,0,0,1.47,2.47,6.89,6.89,0,0,0,2.21,1.65,6.25,6.25,0,0,0,2.75.61,6.18,6.18,0,0,0,2.74-.61,6.7,6.7,0,0,0,2.21-1.67,8,8,0,0,0,1.48-2.5,9,9,0,0,0,.53-3.12,9.11,9.11,0,0,0-.53-3.11,8.1,8.1,0,0,0-1.48-2.52,6.7,6.7,0,0,0-2.21-1.67,6.32,6.32,0,0,0-2.74-.61,6,6,0,0,0-2.7.63,6.93,6.93,0,0,0-2.21,1.7,8.11,8.11,0,0,0-1.5,2.52A8.61,8.61,0,0,0,218.57,46.21Z" transform="translate(-14.78 -3.38)"/><path class="cls-3" d="M242,25.23h4.91V51.08a2.89,2.89,0,0,0,.67,2,2.39,2.39,0,0,0,1.87.73,4.26,4.26,0,0,0,1.14-.17c.43-.12.84-.26,1.23-.41l.71,3.84a11,11,0,0,1-2.54.78,13.35,13.35,0,0,1-2.64.29,5.41,5.41,0,0,1-3.95-1.38,5.25,5.25,0,0,1-1.4-3.93Z" transform="translate(-14.78 -3.38)"/><path class="cls-3" d="M263.84,58.26a17.84,17.84,0,0,1-5.6-.91,14.23,14.23,0,0,1-4.8-2.61l2-3.13a18.17,18.17,0,0,0,4.15,2.3,11.75,11.75,0,0,0,4.2.78,6.13,6.13,0,0,0,3.46-.85,2.71,2.71,0,0,0,1.27-2.41,2.22,2.22,0,0,0-1.43-2.14,27.65,27.65,0,0,0-4.46-1.47c-1.46-.39-2.71-.76-3.75-1.12a9.54,9.54,0,0,1-2.54-1.25,4.27,4.27,0,0,1-1.43-1.65,5.21,5.21,0,0,1-.45-2.28,7,7,0,0,1,.69-3.17A6.78,6.78,0,0,1,257,36a8.67,8.67,0,0,1,2.88-1.45,12.37,12.37,0,0,1,3.57-.49,14.74,14.74,0,0,1,4.91.8,13,13,0,0,1,4.07,2.32l-2.1,3a10.94,10.94,0,0,0-6.92-2.59,5.93,5.93,0,0,0-3.15.78A2.69,2.69,0,0,0,259,40.81a2.42,2.42,0,0,0,.27,1.2,2.16,2.16,0,0,0,.87.85,6.85,6.85,0,0,0,1.56.65c.64.19,1.43.41,2.39.65,1.57.39,2.94.77,4.08,1.16A11.39,11.39,0,0,1,271,46.68a5.09,5.09,0,0,1,1.65,1.83,5.45,5.45,0,0,1,.53,2.52,6.32,6.32,0,0,1-2.52,5.29A10.91,10.91,0,0,1,263.84,58.26Z" transform="translate(-14.78 -3.38)"/></svg>