<?xml version="1.0" encoding="utf-8"?>
<!-- Generator: Adobe Illustrator 23.0.2, SVG Export Plug-In . SVG Version: 6.00 Build 0)  -->
<svg version="1.1" id="Capa_1" xmlns="http://www.w3.org/2000/svg" xmlns:xlink="http://www.w3.org/1999/xlink" x="0px" y="0px"
	 viewBox="0 0 612 792" style="enable-background:new 0 0 612 792;" xml:space="preserve">
<style type="text/css">
	.st0{fill:#FFFFFF;}
	.st1{fill:none;stroke:#FFFFFF;stroke-width:2;stroke-miterlimit:10;}
	.st2{fill:none;}
	.st3{fill:#FFFFFF;stroke:#FFFFFF;stroke-width:0.75;stroke-miterlimit:10;}
	.st4{fill:#FFFFFF;stroke:#FFFFFF;stroke-miterlimit:10;}
</style>
<g>
	<g>
		<path class="st0" d="M208.35,366.31c-0.75-0.04-1.36-0.31-1.85-0.83c-0.48-0.51-0.72-1.13-0.72-1.86v-33.76
			c0-0.33,0.07-0.65,0.22-0.96c0.15-0.3,0.34-0.57,0.58-0.8c0.24-0.23,0.52-0.4,0.84-0.53c0.33-0.13,0.67-0.19,1.02-0.19h0.21h14.18
			c1.48,0,2.87,0.29,4.18,0.87c1.31,0.58,2.45,1.36,3.43,2.35c0.98,0.98,1.74,2.19,2.3,3.6c0.56,1.42,0.84,2.87,0.84,4.37
			c0,1.6-0.31,3.05-0.93,4.36c-0.62,1.31-1.46,2.47-2.52,3.47c1.24,1.06,2.23,2.34,2.98,3.82c0.75,1.49,1.12,3.12,1.12,4.89
			c0,1.54-0.3,2.98-0.89,4.34c-0.59,1.36-1.39,2.54-2.39,3.56c-1,1.01-2.18,1.82-3.53,2.41c-1.35,0.59-2.79,0.89-4.33,0.89H208.35z
			 M219.63,346.52c0-0.35,0.07-0.69,0.21-1.02c0.14-0.33,0.33-0.61,0.58-0.86c0.25-0.25,0.53-0.44,0.86-0.59
			c0.32-0.15,0.67-0.22,1.05-0.22h0.71c0.73-0.02,1.41-0.17,2.04-0.46c0.63-0.29,1.18-0.66,1.65-1.14c0.47-0.47,0.84-1.02,1.11-1.65
			c0.27-0.63,0.4-1.3,0.4-2.01c0-0.83-0.16-1.58-0.47-2.26s-0.74-1.31-1.27-1.89c-0.53-0.58-1.16-1-1.88-1.27
			c-0.72-0.27-1.47-0.4-2.26-0.4h-11.19v28.18h11.93c0.77,0,1.5-0.16,2.19-0.47c0.69-0.31,1.28-0.74,1.79-1.27s0.9-1.15,1.2-1.86
			c0.3-0.71,0.44-1.45,0.44-2.22c0-0.79-0.15-1.54-0.44-2.24c-0.29-0.71-0.69-1.33-1.2-1.88c-0.5-0.54-1.1-0.97-1.79-1.3
			c-0.69-0.33-1.42-0.49-2.19-0.49h-0.77c-0.75,0-1.38-0.26-1.91-0.78S219.63,347.27,219.63,346.52z"/>
		<path class="st0" d="M238.5,331.37c0-0.41,0.08-0.8,0.24-1.15c0.16-0.35,0.37-0.66,0.64-0.93c0.27-0.27,0.58-0.48,0.94-0.63
			c0.36-0.16,0.75-0.24,1.17-0.24c0.41,0,0.8,0.08,1.15,0.24c0.35,0.16,0.67,0.37,0.95,0.63c0.28,0.27,0.49,0.58,0.65,0.93
			c0.16,0.35,0.24,0.74,0.24,1.15c0,0.41-0.08,0.8-0.24,1.15c-0.16,0.35-0.37,0.66-0.65,0.93c-0.28,0.27-0.59,0.48-0.95,0.63
			c-0.35,0.16-0.74,0.24-1.15,0.24c-0.41,0-0.8-0.08-1.17-0.24c-0.36-0.16-0.68-0.37-0.94-0.63c-0.27-0.27-0.48-0.58-0.64-0.93
			C238.58,332.17,238.5,331.78,238.5,331.37z M238.83,340.44c0-0.35,0.07-0.69,0.21-1.02c0.14-0.32,0.33-0.61,0.58-0.84
			c0.25-0.24,0.53-0.42,0.86-0.56c0.32-0.14,0.67-0.21,1.05-0.21c0.73,0,1.33,0.26,1.82,0.77c0.48,0.51,0.72,1.13,0.72,1.86v23.48
			c0,0.73-0.25,1.34-0.75,1.85c-0.5,0.5-1.11,0.75-1.82,0.75c-0.73,0-1.35-0.25-1.88-0.75c-0.52-0.5-0.78-1.12-0.78-1.85V340.44z"/>
		<path class="st0" d="M248.42,352.25c0-1.99,0.38-3.86,1.14-5.61c0.76-1.75,1.79-3.28,3.1-4.59c1.31-1.31,2.83-2.34,4.58-3.1
			c1.74-0.76,3.61-1.14,5.6-1.14c2.01,0,3.89,0.38,5.64,1.14c1.75,0.76,3.28,1.79,4.58,3.1c1.3,1.31,2.32,2.84,3.07,4.59
			c0.75,1.75,1.12,3.62,1.12,5.61s-0.37,3.86-1.12,5.61c-0.75,1.75-1.77,3.28-3.07,4.58c-1.3,1.3-2.82,2.33-4.58,3.09
			c-1.75,0.76-3.63,1.14-5.64,1.14c-1.99,0-3.85-0.38-5.6-1.14c-1.74-0.76-3.27-1.79-4.58-3.09c-1.31-1.3-2.34-2.82-3.1-4.58
			C248.8,356.11,248.42,354.24,248.42,352.25z M253.65,352.25c0,1.26,0.24,2.44,0.72,3.55c0.48,1.11,1.14,2.08,1.96,2.91
			c0.83,0.83,1.8,1.49,2.91,1.97c1.11,0.48,2.31,0.72,3.59,0.72c1.3,0,2.51-0.24,3.62-0.72c1.11-0.48,2.08-1.14,2.91-1.97
			c0.83-0.83,1.48-1.81,1.95-2.91c0.47-1.11,0.71-2.29,0.71-3.55c0-1.26-0.24-2.44-0.71-3.55c-0.47-1.11-1.12-2.08-1.95-2.9
			c-0.83-0.82-1.8-1.48-2.91-1.96c-1.11-0.48-2.32-0.72-3.62-0.72c-1.28,0-2.48,0.24-3.59,0.72c-1.11,0.48-2.08,1.13-2.91,1.96
			c-0.83,0.82-1.48,1.79-1.96,2.9C253.89,349.81,253.65,351,253.65,352.25z"/>
		<path class="st0" d="M300.85,346.43c0.37,0,0.72,0.07,1.05,0.22c0.33,0.15,0.61,0.35,0.86,0.59c0.25,0.25,0.44,0.53,0.58,0.86
			c0.14,0.33,0.21,0.67,0.21,1.03c0,0.36-0.07,0.69-0.21,1.01c-0.14,0.32-0.33,0.59-0.58,0.83c-0.25,0.24-0.53,0.43-0.86,0.56
			c-0.32,0.14-0.67,0.21-1.05,0.21h-17.63c-0.37,0-0.72-0.07-1.05-0.21c-0.32-0.14-0.6-0.33-0.84-0.56
			c-0.24-0.24-0.42-0.51-0.56-0.83c-0.14-0.32-0.21-0.65-0.21-1.01c0-0.75,0.26-1.39,0.77-1.92c0.51-0.52,1.14-0.79,1.89-0.79
			H300.85z"/>
		<path class="st0" d="M308.7,331.9c0-0.35,0.07-0.69,0.2-1.02c0.14-0.32,0.33-0.61,0.57-0.86c0.24-0.25,0.52-0.44,0.84-0.58
			c0.31-0.14,0.65-0.21,1-0.21c0.35,0,0.69,0.07,1.03,0.21c0.33,0.14,0.62,0.32,0.87,0.56c0.25,0.24,0.44,0.52,0.59,0.84
			c0.15,0.32,0.22,0.67,0.22,1.05v5.79h11.72c0.73,0,1.35,0.26,1.86,0.78c0.51,0.52,0.77,1.15,0.77,1.88c0,0.71-0.25,1.3-0.75,1.79
			c-0.5,0.48-1.13,0.72-1.88,0.72h-11.72v9.63c0,1.26,0.24,2.44,0.71,3.53c0.47,1.09,1.12,2.04,1.93,2.85
			c0.82,0.81,1.78,1.44,2.89,1.91s2.31,0.69,3.59,0.69c1.12,0,2.18-0.16,3.17-0.49c0.99-0.32,1.91-0.87,2.73-1.64
			c0.63-0.59,1.29-0.89,1.98-0.89c0.29,0,0.58,0.06,0.87,0.18c0.28,0.12,0.54,0.29,0.77,0.5c0.23,0.22,0.4,0.47,0.53,0.77
			c0.13,0.3,0.19,0.62,0.19,0.97c0,0.39-0.08,0.79-0.25,1.2c-0.17,0.4-0.4,0.75-0.69,1.05c-1.24,1.18-2.64,2.07-4.21,2.66
			c-1.57,0.59-3.26,0.89-5.09,0.89c-2.01,0-3.89-0.36-5.64-1.09c-1.75-0.73-3.28-1.73-4.59-3.01c-1.3-1.28-2.33-2.79-3.09-4.52
			c-0.75-1.73-1.13-3.6-1.13-5.61V331.9z"/>
		<path class="st0" d="M335.19,352.25c0-1.99,0.38-3.86,1.14-5.61c0.76-1.75,1.79-3.28,3.1-4.59c1.31-1.31,2.83-2.34,4.58-3.1
			c1.74-0.76,3.61-1.14,5.6-1.14c2.01,0,3.89,0.38,5.64,1.14c1.75,0.76,3.28,1.79,4.58,3.1c1.3,1.31,2.32,2.84,3.07,4.59
			c0.75,1.75,1.12,3.62,1.12,5.61s-0.37,3.86-1.12,5.61c-0.75,1.75-1.77,3.28-3.07,4.58c-1.3,1.3-2.82,2.33-4.58,3.09
			c-1.75,0.76-3.63,1.14-5.64,1.14c-1.99,0-3.85-0.38-5.6-1.14c-1.74-0.76-3.27-1.79-4.58-3.09c-1.31-1.3-2.34-2.82-3.1-4.58
			C335.57,356.11,335.19,354.24,335.19,352.25z M340.42,352.25c0,1.26,0.24,2.44,0.72,3.55c0.48,1.11,1.14,2.08,1.96,2.91
			c0.83,0.83,1.8,1.49,2.91,1.97c1.11,0.48,2.31,0.72,3.59,0.72c1.3,0,2.51-0.24,3.62-0.72c1.11-0.48,2.08-1.14,2.91-1.97
			c0.83-0.83,1.48-1.81,1.95-2.91c0.47-1.11,0.71-2.29,0.71-3.55c0-1.26-0.24-2.44-0.71-3.55c-0.47-1.11-1.12-2.08-1.95-2.9
			c-0.83-0.82-1.8-1.48-2.91-1.96c-1.11-0.48-2.32-0.72-3.62-0.72c-1.28,0-2.48,0.24-3.59,0.72c-1.11,0.48-2.08,1.13-2.91,1.96
			c-0.83,0.82-1.48,1.79-1.96,2.9C340.66,349.81,340.42,351,340.42,352.25z"/>
		<path class="st0" d="M366.62,352.25c0-1.99,0.38-3.86,1.14-5.61c0.76-1.75,1.79-3.28,3.1-4.59c1.31-1.31,2.83-2.34,4.58-3.1
			c1.74-0.76,3.61-1.14,5.6-1.14c2.01,0,3.89,0.38,5.64,1.14c1.75,0.76,3.28,1.79,4.58,3.1c1.3,1.31,2.32,2.84,3.07,4.59
			c0.75,1.75,1.12,3.62,1.12,5.61s-0.37,3.86-1.12,5.61c-0.75,1.75-1.77,3.28-3.07,4.58c-1.3,1.3-2.82,2.33-4.58,3.09
			c-1.75,0.76-3.63,1.14-5.64,1.14c-1.99,0-3.85-0.38-5.6-1.14c-1.74-0.76-3.27-1.79-4.58-3.09c-1.31-1.3-2.34-2.82-3.1-4.58
			C367,356.11,366.62,354.24,366.62,352.25z M371.84,352.25c0,1.26,0.24,2.44,0.72,3.55c0.48,1.11,1.14,2.08,1.96,2.91
			c0.83,0.83,1.8,1.49,2.91,1.97c1.11,0.48,2.31,0.72,3.59,0.72c1.3,0,2.51-0.24,3.62-0.72c1.11-0.48,2.08-1.14,2.91-1.97
			c0.83-0.83,1.48-1.81,1.95-2.91c0.47-1.11,0.71-2.29,0.71-3.55c0-1.26-0.24-2.44-0.71-3.55c-0.47-1.11-1.12-2.08-1.95-2.9
			c-0.83-0.82-1.8-1.48-2.91-1.96c-1.11-0.48-2.32-0.72-3.62-0.72c-1.28,0-2.48,0.24-3.59,0.72c-1.11,0.48-2.08,1.13-2.91,1.96
			c-0.83,0.82-1.48,1.79-1.96,2.9C372.09,349.81,371.84,351,371.84,352.25z"/>
		<path class="st0" d="M400.34,330.22c0-0.75,0.25-1.37,0.74-1.88c0.49-0.5,1.09-0.75,1.8-0.75c0.35,0,0.7,0.06,1.02,0.19
			c0.32,0.13,0.61,0.31,0.86,0.55c0.25,0.24,0.44,0.52,0.59,0.84c0.15,0.33,0.22,0.67,0.22,1.05v26.23c0,1.54,0.41,2.71,1.23,3.53
			c0.82,0.82,1.94,1.23,3.38,1.23c0.75,0,1.36,0.25,1.84,0.75c0.48,0.5,0.72,1.11,0.72,1.82c0,0.75-0.24,1.36-0.71,1.85
			c-0.47,0.48-1.08,0.72-1.83,0.72c-1.4,0-2.7-0.24-3.9-0.71c-1.2-0.47-2.24-1.15-3.13-2.02c-0.89-0.88-1.58-1.92-2.08-3.13
			c-0.5-1.21-0.75-2.55-0.75-4.03V330.22z"/>
		<path class="st0" d="M429.11,354.44h-3.66h-1.68c-1.18,0-2.27-0.23-3.28-0.7c-1-0.46-1.87-1.08-2.61-1.86
			c-0.74-0.78-1.31-1.68-1.73-2.71c-0.41-1.03-0.62-2.11-0.62-3.25c0-1.12,0.22-2.18,0.65-3.17c0.43-0.99,1.02-1.85,1.76-2.59
			c0.74-0.74,1.61-1.32,2.61-1.75c1-0.42,2.08-0.64,3.22-0.64h10.25c0.71,0,1.32,0.22,1.83,0.65c0.51,0.44,0.77,1.07,0.77,1.9
			c0,0.38-0.06,0.73-0.19,1.05c-0.13,0.33-0.3,0.61-0.53,0.86c-0.23,0.25-0.49,0.44-0.78,0.58c-0.29,0.14-0.61,0.21-0.95,0.21h-0.15
			h-10.22c-0.43,0-0.83,0.08-1.2,0.25c-0.37,0.17-0.69,0.39-0.96,0.68c-0.28,0.29-0.49,0.61-0.65,0.98
			c-0.16,0.36-0.24,0.75-0.24,1.17c0,0.45,0.08,0.87,0.24,1.24c0.16,0.37,0.38,0.69,0.67,0.96c0.29,0.27,0.61,0.48,0.98,0.63
			c0.36,0.16,0.75,0.24,1.17,0.24h1.72h4.23c1.2,0,2.32,0.23,3.34,0.69c1.03,0.46,1.91,1.09,2.65,1.88c0.74,0.79,1.32,1.7,1.75,2.75
			c0.42,1.04,0.64,2.14,0.64,3.28c0,1.16-0.21,2.26-0.64,3.29c-0.42,1.03-1.01,1.94-1.77,2.72c-0.75,0.78-1.65,1.39-2.68,1.85
			c-1.04,0.45-2.16,0.68-3.36,0.68h-12.26c-0.69,0-1.26-0.25-1.71-0.74c-0.45-0.49-0.68-1.13-0.68-1.92c0-0.79,0.23-1.41,0.68-1.86
			c0.45-0.45,1.02-0.68,1.71-0.68h11.81c0.43,0,0.87-0.07,1.3-0.22c0.43-0.15,0.83-0.37,1.18-0.66c0.35-0.3,0.64-0.65,0.86-1.08
			c0.22-0.42,0.32-0.92,0.32-1.49c0-0.55-0.1-1.02-0.31-1.42c-0.21-0.39-0.48-0.72-0.83-0.97c-0.35-0.26-0.73-0.45-1.17-0.59
			c-0.43-0.14-0.88-0.22-1.33-0.24h-0.06H429.11z"/>
	</g>
	<path class="st0" d="M357.34,245.44c8.81,5.72,13.29,11.36,20.2,19.15c2.63,2.97,5.27,5.94,8.03,9.06
		c14.53-15.1,31.71-23.87,52.98-23.39c0.08,0.31,0.17,0.49,0.17,0.67c-0.01,2.25-0.04,4.49-0.06,7.13
		c-19.21-0.47-34.63,7.64-47.67,21.33c12.7,13.88,27.9,22.28,47.15,22.22c-0.03,2.71-0.05,5.17-0.07,7.8
		c-21.35,0.1-38.35-9.02-52.6-24.39c-3.05,3.32-5.99,6.53-8.95,9.73c-6.59,7.13-13.47,13.94-21.7,19.22
		c-5.37,3.45-11.08,6.16-17.06,7.77c-1.36-2.41-2.65-4.7-3.95-7.02c9.72-2.45,18.38-7.45,25.85-14.39
		c4.93-4.58,9.52-9.52,14.22-14.35c2.09-2.15,4.07-4.41,6.18-6.72c-10.03-11.04-15.33-16.75-25.88-26.38L357.34,245.44z"/>
	<path class="st0" d="M258.56,281.5c-14.56,15.12-31.65,23.82-53.11,23.4c0.01-1.32,0.02-2.57,0.04-3.82c0.01-1.21,0.02-2.42,0.04-4
		c19.28,0.48,34.62-7.69,47.64-21.32c-12.69-13.8-27.83-22.3-47.23-22.19c0.01-1.46,0.03-2.72,0.04-3.99
		c0.01-1.21,0.02-2.42,0.04-3.99c2.9,0.2,5.63,0.3,8.34,0.6c10.31,1.17,19.82,4.59,28.47,10.33c0.56,0.37,4.78,3.26,5.89,4.26
		c3.31,3.02,6.66,5.98,10.16,9.1c9-9.51,17.41-19.77,28.04-27.05c2.43,1.65,4.66,3.16,6.98,4.73c-11.5,7.38-20.28,18.09-29.9,28.43
		c5.89,6.37,11.67,12.62,17.47,18.87c0.99,1.07,7.38,7.25,11.5,9.69c-2.13,1.46-4.38,3-6.81,4.67
		C275.74,301.79,267.54,291.44,258.56,281.5z"/>
	<path class="st0" d="M217.4,290.46c-2.54-0.02-5.02-0.05-7.64-0.07c0.09-9.21,0.17-18.42,0.26-27.81c2.47,0.02,4.99,0.05,7.64,0.07
		C217.57,271.87,217.49,281.02,217.4,290.46z"/>
	<path class="st0" d="M435.25,293.8c-2.58-0.02-5-0.05-7.54-0.07c0.09-9.31,0.18-18.56,0.26-27.91c2.5,0.02,4.96,0.05,7.54,0.07
		C435.43,275.21,435.34,284.41,435.25,293.8z"/>
	<path class="st0" d="M417.02,286.65c-2.61-0.02-5.07-0.05-7.63-0.07c0.04-4.71,0.09-9.29,0.13-14.02c2.55,0.02,5.01,0.05,7.63,0.07
		C417.11,277.24,417.07,281.86,417.02,286.65z"/>
	<path class="st0" d="M227.13,269.46c2.57,0.02,5.04,0.05,7.57,0.07c-0.04,4.73-0.09,9.33-0.13,14.06
		c-2.57-0.02-5.04-0.05-7.57-0.07C227.05,278.77,227.09,274.18,227.13,269.46z"/>
	<g>
		<g>
			<g>
				<path class="st1" d="M306.03,302.55l20.15-0.85c0.7-10.01,5.59-14.89,8.34-18.93c2.57-3.79,5.03-7.83,5.03-14.89
					c0-0.56-0.62-3.17-0.67-3.76c-0.65,0.26-3.84,1.33-4.53,1.5l-0.1,3.21c0,0.38-1.5,0.24-1.89,0.24h-1.91
					c-0.38,0-1.81,0.14-1.81-0.24l-0.14-3.27c-2.73-0.7-4.71-1.85-6.69-3.83l-1.55,0.71c0,0-1.59,0.91-1.78,0.59l-2.01-3.44
					c-0.09-0.16-0.42-0.84-0.37-1.02c0.05-0.18,1.08-0.85,1.24-0.94l1.61-0.82c-0.37-1.32-0.76-3.9-0.76-5.29
					c0-1.38,0.19-1.3,0.56-2.63l-1.61-0.92c-0.39-0.25-1.73-0.97-2.52-0.97c-12.06,0-21.97,9.63-21.97,20.88
					c0,7.07,2.47,10.14,5.05,13.93C300.42,285.84,305.32,292.53,306.03,302.55z"/>
			</g>
		</g>
		<g>
			<path class="st2" d="M305.21,301.31h21.74c0.48,0,0.87,0.38,0.87,0.85v2.03c0,0.47-0.39,0.86-0.87,0.86h-21.74
				c-0.48,0-0.88-0.38-0.88-0.86v-2.03C304.34,301.69,304.74,301.31,305.21,301.31z"/>
		</g>
		<path class="st0" d="M326.96,305.73h-21.74c-0.87,0-1.57-0.69-1.57-1.54v-2.03c0-0.85,0.71-1.54,1.57-1.54h21.74
			c0.86,0,1.56,0.69,1.56,1.54v2.03C328.52,305.04,327.82,305.73,326.96,305.73z"/>
		<g>
		</g>
		<g>
			<path class="st0" d="M325.41,309.47h-18.65c-0.87,0-1.57-0.69-1.57-1.54v-2.02c0-0.85,0.71-1.54,1.57-1.54h18.65
				c0.87,0,1.57,0.69,1.57,1.54v2.02C326.98,308.78,326.28,309.47,325.41,309.47z"/>
		</g>
		<g>
			<path class="st2" d="M322.6,308.79c0.01,0.16,0.02,0.32,0.02,0.49c0,3.54-2.92,6.42-6.54,6.42c-3.6,0-6.52-2.88-6.52-6.42
				c0-0.17,0.01-0.33,0.02-0.49H322.6z"/>
		</g>
		<g>
			<path class="st0" d="M316.08,316.6c-3.98,0-7.22-3.19-7.22-7.1c0-0.16,0.01-0.3,0.02-0.45c0.02-0.36,0.33-0.72,0.7-0.72h13.02
				c0.37,0,0.68,0.29,0.69,0.65c0.01,0.22,0.02,0.37,0.02,0.53C323.31,313.41,320.06,316.6,316.08,316.6z"/>
		</g>
		<g>
			<path class="st0" d="M320.14,301.69c-0.01,0-0.02,0-0.03,0c-0.38-0.01-0.68-0.33-0.67-0.71l0.37-10.25l-10.79-9.11
				c-0.29-0.25-0.32-0.68-0.07-0.96c0.25-0.29,0.69-0.32,0.98-0.07l11.04,9.33c0.16,0.14,0.25,0.33,0.24,0.54l-0.38,10.57
				C320.82,301.4,320.51,301.69,320.14,301.69z"/>
		</g>
		<g>
			<path class="st0" d="M323.36,301.66C323.36,301.66,323.36,301.66,323.36,301.66c-0.39,0-0.7-0.31-0.7-0.69l0.13-13.82
				c0-0.38,0.27-0.69,0.7-0.68c0.38,0,0.69,0.31,0.69,0.69l-0.13,13.82C324.05,301.36,323.74,301.66,323.36,301.66z"/>
		</g>
		<g>
			<path class="st0" d="M309.24,303.18C309.24,303.18,309.24,303.18,309.24,303.18c-0.38,0-0.68-0.25-0.68-0.55l0.13-11.02
				c0-0.3,0.26-0.55,0.68-0.54c0.37,0,0.67,0.25,0.67,0.55l-0.13,11.02C309.91,302.93,309.61,303.18,309.24,303.18z"/>
		</g>
		<g>
			<path class="st0" d="M314.87,301.99c-0.38,0-0.7-0.31-0.7-0.68v-27.13c0-0.38,0.31-0.68,0.7-0.68s0.7,0.31,0.7,0.68v27.13
				C315.56,301.68,315.25,301.99,314.87,301.99z"/>
		</g>
		<g>
			<g>
				<path class="st3" d="M334.29,269.62h-5.68c-0.34,0-0.62-0.27-0.62-0.61v-3.04c-2.43-0.62-4.61-1.86-6.36-3.62l-2.68,1.52
					c-0.29,0.17-0.67,0.07-0.84-0.22l-2.85-4.85c-0.08-0.14-0.1-0.3-0.06-0.46c0.04-0.16,0.15-0.29,0.29-0.37l2.68-1.52
					c-0.33-1.17-0.49-2.39-0.49-3.62c0-1.22,0.17-2.44,0.49-3.62l-2.68-1.51c-0.14-0.08-0.25-0.21-0.29-0.37
					c-0.04-0.16-0.02-0.32,0.06-0.46l2.85-4.85c0.17-0.29,0.55-0.39,0.84-0.22l2.69,1.52c1.76-1.77,3.95-3.01,6.36-3.61v-3.05
					c0-0.34,0.28-0.61,0.62-0.61h5.68c0.34,0,0.62,0.27,0.62,0.61v3.05c2.41,0.61,4.6,1.85,6.37,3.61l2.68-1.52
					c0.14-0.08,0.31-0.1,0.47-0.06c0.16,0.04,0.29,0.14,0.38,0.28l2.85,4.85c0.08,0.14,0.1,0.31,0.06,0.46
					c-0.04,0.16-0.15,0.29-0.29,0.37l-2.67,1.51c0.33,1.18,0.49,2.4,0.49,3.62c0,1.24-0.17,2.45-0.49,3.62l2.68,1.52
					c0.3,0.17,0.4,0.54,0.23,0.83l-2.85,4.85c-0.08,0.14-0.22,0.24-0.37,0.28c-0.16,0.04-0.33,0.02-0.47-0.06l-2.68-1.52
					c-1.76,1.76-3.95,3-6.37,3.62v3.04C334.91,269.35,334.63,269.62,334.29,269.62z M329.22,268.41h4.45v-2.91
					c0-0.28,0.2-0.53,0.48-0.59c2.53-0.55,4.8-1.84,6.56-3.73c0.2-0.21,0.51-0.26,0.76-0.11l2.56,1.46l2.23-3.79l-2.56-1.46
					c-0.25-0.14-0.37-0.44-0.28-0.71c0.38-1.19,0.58-2.45,0.58-3.73c0-1.26-0.19-2.52-0.58-3.73c-0.09-0.27,0.03-0.57,0.28-0.71
					l2.56-1.45l-2.23-3.8l-2.56,1.45c-0.25,0.14-0.57,0.1-0.76-0.11c-1.77-1.89-4.04-3.18-6.56-3.72c-0.28-0.06-0.49-0.31-0.49-0.59
					v-2.92h-4.45v2.92c0,0.29-0.2,0.53-0.49,0.59c-2.52,0.54-4.78,1.82-6.54,3.72c-0.2,0.21-0.51,0.26-0.76,0.12l-2.57-1.46
					l-2.23,3.8l2.56,1.45c0.25,0.14,0.37,0.44,0.28,0.71c-0.38,1.21-0.58,2.46-0.58,3.73c0,1.28,0.19,2.53,0.58,3.73
					c0.09,0.27-0.03,0.57-0.28,0.71l-2.56,1.46l2.23,3.79l2.57-1.46c0.25-0.14,0.57-0.09,0.76,0.12c1.75,1.88,4.01,3.17,6.54,3.72
					c0.28,0.06,0.48,0.31,0.48,0.59V268.41z"/>
			</g>
		</g>
		<g>
			<path class="st4" d="M331.24,260.31c-4.19,0-7.6-3.35-7.6-7.47c0-4.12,3.41-7.47,7.6-7.47c4.2,0,7.61,3.35,7.61,7.47
				C338.85,256.96,335.44,260.31,331.24,260.31z M331.24,247.12c-3.21,0-5.81,2.57-5.81,5.72c0,3.16,2.61,5.72,5.81,5.72
				c3.21,0,5.83-2.57,5.83-5.72C337.07,249.68,334.45,247.12,331.24,247.12z"/>
		</g>
		<g>
			<g>
				<path class="st2" d="M323.49,281.8c1.5,0,2.72,1.2,2.72,2.67c0,1.48-1.22,2.68-2.72,2.68c-1.51,0-2.73-1.2-2.73-2.68
					C320.77,283,321.99,281.8,323.49,281.8z"/>
			</g>
			<g>
				<path class="st0" d="M323.49,287.84c-1.89,0-3.42-1.51-3.42-3.37c0-1.85,1.54-3.36,3.42-3.36c1.89,0,3.42,1.51,3.42,3.36
					C326.91,286.33,325.38,287.84,323.49,287.84z M323.49,282.48c-1.12,0-2.03,0.89-2.03,1.99c0,1.1,0.91,2,2.03,2
					c1.12,0,2.03-0.9,2.03-2C325.52,283.38,324.61,282.48,323.49,282.48z"/>
			</g>
		</g>
		<g>
			<g>
				<path class="st2" d="M314.87,268.82c1.51,0,2.72,1.19,2.72,2.67c0,1.48-1.21,2.68-2.72,2.68c-1.5,0-2.73-1.2-2.73-2.68
					C312.14,270.01,313.37,268.82,314.87,268.82z"/>
			</g>
			<g>
				<path class="st0" d="M314.87,274.86c-1.89,0-3.42-1.51-3.42-3.37c0-1.85,1.54-3.35,3.42-3.35c1.88,0,3.41,1.5,3.41,3.35
					C318.28,273.35,316.75,274.86,314.87,274.86z M314.87,269.51c-1.12,0-2.03,0.89-2.03,1.99c0,1.1,0.91,2,2.03,2
					c1.11,0,2.02-0.9,2.02-2C316.89,270.4,315.98,269.51,314.87,269.51z"/>
			</g>
		</g>
		<g>
			<path class="st0" d="M307.35,282.86c-1.89,0-3.42-1.51-3.42-3.37c0-1.86,1.54-3.37,3.42-3.37c1.89,0,3.42,1.51,3.42,3.37
				C310.77,281.35,309.23,282.86,307.35,282.86z M307.35,277.49c-1.12,0-2.03,0.9-2.03,2c0,1.1,0.91,2,2.03,2s2.03-0.9,2.03-2
				C309.38,278.39,308.47,277.49,307.35,277.49z"/>
		</g>
		<g>
			<g>
				<path class="st2" d="M309.32,286.21c1.51,0,2.73,1.19,2.73,2.67c0,1.48-1.22,2.68-2.73,2.68c-1.5,0-2.72-1.2-2.72-2.68
					C306.6,287.4,307.82,286.21,309.32,286.21z"/>
			</g>
			<g>
				<path class="st0" d="M309.32,292.25c-1.88,0-3.41-1.51-3.41-3.37c0-1.85,1.53-3.36,3.41-3.36c1.89,0,3.42,1.51,3.42,3.36
					C312.74,290.74,311.21,292.25,309.32,292.25z M309.32,286.89c-1.12,0-2.02,0.89-2.02,1.99c0,1.1,0.91,2,2.02,2
					c1.12,0,2.03-0.9,2.03-2C311.35,287.78,310.44,286.89,309.32,286.89z"/>
			</g>
		</g>
	</g>
</g>
</svg>
