<svg id="Capa_1" data-name="Capa 1" xmlns="http://www.w3.org/2000/svg" xmlns:xlink="http://www.w3.org/1999/xlink" viewBox="0 0 229.78 70"><defs><style>.cls-1{fill:none;}.cls-2{isolation:isolate;font-size:47.68px;font-family:AristaProAlternate, Arista Pro Alternate;}.cls-2,.cls-3,.cls-5,.cls-6{fill:#fff;}.cls-4{clip-path:url(#clip-path);}.cls-5,.cls-6{stroke:#fff;stroke-miterlimit:10;}.cls-6{stroke-width:0.5px;}</style><clipPath id="clip-path" transform="translate(-9.53 -4.98)"><polyline class="cls-1" points="9.53 14 46.55 14 46.55 57.08 9.53 57.08 9.53 14"/></clipPath></defs><title>nuevo en fondo oscuro</title><text class="cls-2" transform="translate(43 54.52)">Bio-</text><text class="cls-2" transform="translate(124.62 54.52)">t</text><text class="cls-2" transform="translate(146.55 54.52)">ools</text><path class="cls-3" d="M36,57.08h0M46.55,30.42v0h0M26.84,14h0" transform="translate(-9.53 -4.98)"/><g class="cls-4"><path class="cls-3" d="M27.43,46.71V56.77a.73.73,0,0,1-.06.3h2.71a.64.64,0,0,1-.07-.31h0l.29-7.69-2.87-2.35m-5.12-.46h0A1.3,1.3,0,0,0,21,47.52v0h0a1.32,1.32,0,0,0,1.33,1.23h.06a1.29,1.29,0,0,0,1.27-1.28,1.31,1.31,0,0,0-1.35-1.27M33.45,42.9h0a1.27,1.27,0,0,0-.1,2.53h.18a1.27,1.27,0,1,0-.07-2.54M20.74,39.07h0a1.31,1.31,0,0,0-1.3,1.28h0v0a1.31,1.31,0,0,0,1.33,1.25h0a1.28,1.28,0,1,0,0-2.56M26.65,33h0A1.27,1.27,0,1,0,28,34.24,1.3,1.3,0,0,0,26.63,33m.2-19h-.1c-9.45.05-17.22,7.62-17.22,16.46h0c0,5.57,2,8,4,11s5.78,7.71,6.33,15.61h1.57a.24.24,0,0,0,0-.08v0l.09-6.72a2.81,2.81,0,0,1,.76-5.54h0a2.86,2.86,0,0,1,2.9,2.81A2.84,2.84,0,0,1,23,50.24L23,57h0s0,0,0,.08h3a.73.73,0,0,1-.07-.29h0V45.41l-3.39-2.77a3,3,0,0,1-1.71.53h0v-.25h0v.25a2.86,2.86,0,0,1-2.85-2.82V40.3h0a2.87,2.87,0,0,1,2.9-2.77h.06a2.84,2.84,0,0,1,2.84,2.81,2.66,2.66,0,0,1-.21,1l2.39,2V36.94a2.84,2.84,0,0,1-2.06-2.7v0h0a2.87,2.87,0,0,1,2.9-2.78h0a2.87,2.87,0,0,1,2.85,2.82A2.83,2.83,0,0,1,27.43,37v7.7l4.23,3.46a.72.72,0,0,1,.29.58v0l-.3,8.06h0a.71.71,0,0,1,0,.26h1a.76.76,0,0,1-.08-.33h0l.11-9.87a2.85,2.85,0,0,1-2.07-2.7v-.05h0a2.86,2.86,0,0,1,2.9-2.77h.05a2.81,2.81,0,0,1,.67,5.54l-.09,9.87a.71.71,0,0,1-.07.32H36c.55-7.91,4.41-11.74,6.57-14.91,2-3,4-6.15,4-11.69v-.06c0-.46-.49-2.5-.53-3-.51.21-3,1-3.57,1.18l-.11,2.56c0,.17-.39.21-.78.21l-.71,0H39.34l-.67,0c-.37,0-.75,0-.75-.21l-.12-2.58a10.67,10.67,0,0,1-5.27-3l-1.19.58a4.48,4.48,0,0,1-1.27.52.18.18,0,0,1-.14-.05L28.34,24a2.84,2.84,0,0,1-.29-.8,4.8,4.8,0,0,1,1-.74l1.26-.65a21.84,21.84,0,0,1-.6-4.17,5.45,5.45,0,0,1,.44-2.07l-1.31-.77a5.08,5.08,0,0,0-2-.76" transform="translate(-9.53 -4.98)"/></g><path class="cls-1" d="M20.43,57.31l15.49-.21a.56.56,0,0,1,.62.47h0v1.19a.55.55,0,0,1-.6.51l-15.49.22a.59.59,0,0,1-.63-.49v-1.2A.59.59,0,0,1,20.43,57.31Z" transform="translate(-9.53 -4.98)"/><path class="cls-5" d="M35.45,59.69,20,59.91A1,1,0,0,1,18.84,59l0-1.19a1,1,0,0,1,1.11-.92l15.48-.22a1,1,0,0,1,1.13.88h0v1.19a1,1,0,0,1-1.08.92Z" transform="translate(-9.53 -4.98)"/><path class="cls-5" d="M34.41,62.76,21.16,63a1,1,0,0,1-1.13-.9l0-1.19a1,1,0,0,1,1.1-.93h0l13.25-.19a1,1,0,0,1,1.13.88h0l0,1.19a1,1,0,0,1-1.11.94Z" transform="translate(-9.53 -4.98)"/><path class="cls-5" d="M27.88,67.72c-2.8,0-5.12-1.79-5.18-4.11v-.26a.5.5,0,0,1,.49-.43l9.27-.13a.44.44,0,0,1,.49.37v.31C33,65.79,30.69,67.69,27.88,67.72Z" transform="translate(-9.53 -4.98)"/><path class="cls-6" d="M41.93,31.69H37.48a.48.48,0,0,1-.49-.47h0v-2.4A10.8,10.8,0,0,1,32,26l-2.12,1.2a.49.49,0,0,1-.66-.17l-2.28-3.81a.55.55,0,0,1,0-.36.66.66,0,0,1,.23-.29l2.11-1.2a10.61,10.61,0,0,1,0-5.7l-2.14-1.2a.61.61,0,0,1-.2-.29.58.58,0,0,1,0-.32L29.18,10a.5.5,0,0,1,.67-.19h0L32,11.06a11,11,0,0,1,5-2.85V5.71a.49.49,0,0,1,.48-.48h4.47a.46.46,0,0,1,.48.44V8.11a10.91,10.91,0,0,1,5,2.85l2.17-1.15a.47.47,0,0,1,.37,0,.48.48,0,0,1,.29.23l2.24,3.77a.56.56,0,0,1-.23.66l-2.1,1.19a10.61,10.61,0,0,1,0,5.7l2.11,1.2a.49.49,0,0,1,.18.66h0l-2.24,3.84a.38.38,0,0,1-.29.22.47.47,0,0,1-.37,0l-2.11-1.22a10.7,10.7,0,0,1-5,2.86v2.29a.46.46,0,0,1-.46.48h0Zm-4-1h3.5V28.44a.49.49,0,0,1,.38-.47A9.76,9.76,0,0,0,47,25.06a.52.52,0,0,1,.6-.09l2,1.15,1.76-3.06-2-1.15a.47.47,0,0,1-.22-.55,9.83,9.83,0,0,0,0-5.88.5.5,0,0,1,.22-.56l2-1.13-1.76-3-2,1.15a.49.49,0,0,1-.6-.09,9.82,9.82,0,0,0-5.17-2.93.49.49,0,0,1-.38-.47V6.19h-3.5v2.3a.47.47,0,0,1-.39.47,9.9,9.9,0,0,0-5.11,2.93.51.51,0,0,1-.61.09l-2-1.17-1.76,3,2,1.13a.46.46,0,0,1,.22.56,10.55,10.55,0,0,0-.46,2.94,10.09,10.09,0,0,0,.46,2.94.45.45,0,0,1-.22.55l-2,1.13,1.76,3,2-1.15a.5.5,0,0,1,.61.1,9.81,9.81,0,0,0,5.15,2.93.46.46,0,0,1,.39.47Z" transform="translate(-9.53 -4.98)"/><path class="cls-3" d="M39.55,24.35a5.5,5.5,0,1,1,.12,0Z" transform="translate(-9.53 -4.98)"/><path class="cls-1" d="M33.45,41.29a2.11,2.11,0,1,1-2.11,2.11A2.16,2.16,0,0,1,33.45,41.29Z" transform="translate(-9.53 -4.98)"/><path class="cls-1" d="M22.28,44.81a2.11,2.11,0,1,1-2.15,2.1A2.15,2.15,0,0,1,22.28,44.81Z" transform="translate(-9.53 -4.98)"/></svg>