<svg xmlns="http://www.w3.org/2000/svg" xmlns:xlink="http://www.w3.org/1999/xlink" viewBox="0 0 258.44 64.39"><defs><style>.cls-1{fill:none;}.cls-2,.cls-4{fill:#fff;}.cls-3{clip-path:url(#clip-path);}.cls-4{stroke:#fff;stroke-miterlimit:10;stroke-width:0.5px;}</style><clipPath id="clip-path" transform="translate(-23.65 -10.5)"><polyline class="cls-1" points="135.81 19.52 172.83 19.52 172.83 62.6 135.81 62.6 135.81 19.52"/></clipPath></defs><title>logo en fondo oscuro</title><g id="Capa_2" data-name="Capa 2"><path class="cls-2" d="M162.28,62.61h0M172.83,36h0M153.12,19.53h0" transform="translate(-23.65 -10.5)"/><g class="cls-3"><path class="cls-2" d="M153.71,52.24V62.3a.8.8,0,0,1-.06.3h2.71a.7.7,0,0,1-.07-.31h0l.29-7.69-2.87-2.35m-5.12-.46h0a1.29,1.29,0,0,0-1.31,1.26h0a1.33,1.33,0,0,0,1.33,1.23h.06a1.28,1.28,0,1,0-.08-2.55h0m11.14-3.3h0a1.26,1.26,0,0,0-1.22,1.32A1.27,1.27,0,0,0,159.63,51h.18a1.27,1.27,0,0,0-.07-2.54M147,44.6h0a1.3,1.3,0,0,0-1.3,1.28h0a1.31,1.31,0,0,0,1.33,1.25h0a1.28,1.28,0,0,0,0-2.56m5.88-6h0a1.27,1.27,0,0,0-1.19,1.34,1.28,1.28,0,0,0,1.35,1.19,1.27,1.27,0,0,0,1.19-1.29,1.31,1.31,0,0,0-1.36-1.25h0m.2-19H153c-9.45,0-17.22,7.62-17.22,16.46h0c0,5.57,2,8,4,11s5.78,7.71,6.33,15.61h1.57v-.08h0l.09-6.72a2.81,2.81,0,0,1,.76-5.54h0a2.79,2.79,0,0,1,.74,5.51v6.76h0v.08h3a.77.77,0,0,1-.07-.29h0V50.94l-3.39-2.77a3.06,3.06,0,0,1-1.71.53h0v-.25h0v.25a2.86,2.86,0,0,1-2.85-2.82v-.05h0a2.86,2.86,0,0,1,2.9-2.77h.06a2.84,2.84,0,0,1,2.84,2.81,2.89,2.89,0,0,1-.21,1l2.39,2v-6.4a2.84,2.84,0,0,1-2.06-2.7h0a2.86,2.86,0,0,1,2.9-2.78h0a2.87,2.87,0,0,1,2.85,2.82,2.84,2.84,0,0,1-2.22,2.72v7.7l4.23,3.46a.72.72,0,0,1,.29.58h0l-.3,8.06h0a1.13,1.13,0,0,1,0,.26h1a.8.8,0,0,1-.08-.33h0l.11-9.87a2.87,2.87,0,0,1-2.07-2.7v0h0a2.86,2.86,0,0,1,2.9-2.77h.05a2.81,2.81,0,0,1,.67,5.54l-.09,9.87a.71.71,0,0,1-.07.32h1.93c.55-7.91,4.41-11.74,6.57-14.91,2-3,4-6.15,4-11.69v-.06c0-.46-.49-2.5-.53-3-.51.21-3,1-3.57,1.18l-.11,2.56c0,.17-.39.21-.78.21H165c-.37,0-.75,0-.75-.21l-.12-2.58a10.74,10.74,0,0,1-5.27-3l-1.19.58a4.85,4.85,0,0,1-1.27.52.24.24,0,0,1-.14-.05l-1.59-2.62a2.76,2.76,0,0,1-.29-.8,4.55,4.55,0,0,1,1-.74l1.26-.65a21.08,21.08,0,0,1-.6-4.17,5.41,5.41,0,0,1,.44-2.07l-1.31-.77a4.89,4.89,0,0,0-2-.76" transform="translate(-23.65 -10.5)"/></g><path class="cls-1" d="M146.71,62.84l15.49-.21a.56.56,0,0,1,.62.47h0v1.19a.56.56,0,0,1-.59.51h0L146.73,65a.59.59,0,0,1-.63-.49v-1.2A.58.58,0,0,1,146.71,62.84Z" transform="translate(-23.65 -10.5)"/><path class="cls-2" d="M161.73,66l-15.45.22a1,1,0,0,1-1.15-.83.19.19,0,0,1,0-.08V64.07a1,1,0,0,1,1.07-.93h0l15.48-.22a1,1,0,0,1,1.12.85v0h0V65a1,1,0,0,1-1.08.92h0Z" transform="translate(-23.65 -10.5)"/><path class="cls-2" d="M160.69,69.43l-13.25.24a1,1,0,0,1-1.13-.86V67.58a1,1,0,0,1,1.06-.93h0l13.25-.19a1,1,0,0,1,1.12.85v0h0v1.19a1,1,0,0,1-1,.94h-.06Z" transform="translate(-23.65 -10.5)"/><path class="cls-2" d="M154,74.9c-2.8,0-5.12-1.79-5.18-4.11v-.26a.5.5,0,0,1,.49-.43l9.27-.13a.43.43,0,0,1,.49.37v.31C159.15,73,156.84,74.87,154,74.9Z" transform="translate(-23.65 -10.5)"/><path class="cls-4" d="M168.21,37.22h-4.45a.48.48,0,0,1-.49-.47h0v-2.4a10.87,10.87,0,0,1-5-2.82l-2.12,1.2a.5.5,0,0,1-.66-.17l-2.28-3.81a.55.55,0,0,1,0-.36.66.66,0,0,1,.23-.29l2.11-1.2a10.61,10.61,0,0,1,0-5.7L153.42,20a.57.57,0,0,1-.2-.29.58.58,0,0,1,0-.32l2.24-3.86a.49.49,0,0,1,.67-.19h0l2.15,1.25a10.87,10.87,0,0,1,5-2.85v-2.5a.48.48,0,0,1,.48-.48h4.47a.45.45,0,0,1,.48.43h0v2.44a10.78,10.78,0,0,1,5,2.85l2.17-1.15a.4.4,0,0,1,.37,0,.44.44,0,0,1,.29.23l2.24,3.77a.56.56,0,0,1-.23.66l-2.1,1.19a10.61,10.61,0,0,1,0,5.7l2.11,1.2a.49.49,0,0,1,.18.66h0l-2.24,3.84a.39.39,0,0,1-.29.22.48.48,0,0,1-.37,0l-2.11-1.22a10.8,10.8,0,0,1-5,2.86v2.29a.46.46,0,0,1-.44.47h-.08Zm-4-1h3.5V34a.48.48,0,0,1,.38-.47,9.85,9.85,0,0,0,5.19-2.91.5.5,0,0,1,.6-.09l2,1.15,1.76-3.06-2-1.15a.46.46,0,0,1-.22-.55,9.83,9.83,0,0,0,0-5.88.49.49,0,0,1,.22-.56l2-1.13-1.76-3-2,1.15a.5.5,0,0,1-.6-.09,9.76,9.76,0,0,0-5.17-2.93.5.5,0,0,1-.38-.47V11.72h-3.5V14a.47.47,0,0,1-.39.47,9.79,9.79,0,0,0-5.11,2.93.52.52,0,0,1-.61.09l-2-1.17-1.76,3,2,1.13a.46.46,0,0,1,.22.56,10.43,10.43,0,0,0-.46,2.94,10.19,10.19,0,0,0,.46,2.94.46.46,0,0,1-.22.55l-2,1.13,1.76,3,2-1.15a.49.49,0,0,1,.61.1,9.87,9.87,0,0,0,5.15,2.93.45.45,0,0,1,.39.47Z" transform="translate(-23.65 -10.5)"/><path class="cls-2" d="M165.83,29.88a5.5,5.5,0,1,1,.12,0Z" transform="translate(-23.65 -10.5)"/><path class="cls-1" d="M159.73,46.82a2.11,2.11,0,1,1-2.11,2.11A2.14,2.14,0,0,1,159.73,46.82Z" transform="translate(-23.65 -10.5)"/><path class="cls-1" d="M148.56,50.34a2.11,2.11,0,1,1-2.15,2.1A2.14,2.14,0,0,1,148.56,50.34Z" transform="translate(-23.65 -10.5)"/><path class="cls-2" d="M23.65,63.57V31.88H34.9a16.65,16.65,0,0,1,6.72,1.25,13.72,13.72,0,0,1,4.82,3.39,14.23,14.23,0,0,1,2.93,5,19,19,0,0,1,1,6.14,18.54,18.54,0,0,1-1.1,6.54,14.33,14.33,0,0,1-3.1,5,13.84,13.84,0,0,1-4.86,3.21,17.15,17.15,0,0,1-6.39,1.14ZM45.26,47.68a14.65,14.65,0,0,0-.69-4.6,10.09,10.09,0,0,0-2-3.59,9.53,9.53,0,0,0-3.26-2.35,10.83,10.83,0,0,0-4.38-.85H28.65V59.15H34.9a10.73,10.73,0,0,0,4.44-.87,9.07,9.07,0,0,0,3.26-2.41,10.44,10.44,0,0,0,2-3.64A14.76,14.76,0,0,0,45.26,47.68Z" transform="translate(-23.65 -10.5)"/><path class="cls-2" d="M65.57,64a12.43,12.43,0,0,1-5-1,11.41,11.41,0,0,1-3.81-2.62,11.76,11.76,0,0,1-2.46-3.83A12.48,12.48,0,0,1,53.47,52a12.61,12.61,0,0,1,.87-4.66,11.87,11.87,0,0,1,2.46-3.88,11.32,11.32,0,0,1,3.81-2.64,12.56,12.56,0,0,1,5-1,12.13,12.13,0,0,1,4.94,1,11.85,11.85,0,0,1,3.77,2.62,11.15,11.15,0,0,1,2.39,3.79,12.58,12.58,0,0,1,.82,4.53c0,.36,0,.69,0,1s-.06.58-.09.79H58.69a8,8,0,0,0,.74,2.81A7.38,7.38,0,0,0,61,58.5a6.85,6.85,0,0,0,4.76,1.9,7.54,7.54,0,0,0,1.94-.25,6.69,6.69,0,0,0,1.76-.71,6.08,6.08,0,0,0,1.43-1.14,5.25,5.25,0,0,0,1-1.47l4.2,1.2a9.67,9.67,0,0,1-4,4.31A12.33,12.33,0,0,1,65.57,64Zm7.1-13.89a7.89,7.89,0,0,0-.74-2.72,6.93,6.93,0,0,0-1.54-2.12,6.8,6.8,0,0,0-2.19-1.36,7.06,7.06,0,0,0-2.63-.49,6.92,6.92,0,0,0-2.61.49,7,7,0,0,0-2.17,1.36,6.69,6.69,0,0,0-1.51,2.12,8.09,8.09,0,0,0-.72,2.72Z" transform="translate(-23.65 -10.5)"/><path class="cls-2" d="M92.13,64a12.43,12.43,0,0,1-5-1,11.41,11.41,0,0,1-3.81-2.62,11.76,11.76,0,0,1-2.46-3.83A12.48,12.48,0,0,1,80,52a12.61,12.61,0,0,1,.87-4.66,11.87,11.87,0,0,1,2.46-3.88,11.32,11.32,0,0,1,3.81-2.64,12.56,12.56,0,0,1,5-1,12.13,12.13,0,0,1,4.94,1,11.85,11.85,0,0,1,3.77,2.62,11.15,11.15,0,0,1,2.39,3.79,12.58,12.58,0,0,1,.82,4.53c0,.36,0,.69,0,1s-.06.58-.09.79H85.25A8,8,0,0,0,86,56.34a7.38,7.38,0,0,0,1.56,2.16,6.85,6.85,0,0,0,4.76,1.9,7.54,7.54,0,0,0,1.94-.25A6.69,6.69,0,0,0,96,59.44a5.89,5.89,0,0,0,1.43-1.14,5,5,0,0,0,1-1.47l4.2,1.2a9.67,9.67,0,0,1-4,4.31A12.33,12.33,0,0,1,92.13,64Zm7.1-13.89a7.89,7.89,0,0,0-.74-2.72A6.93,6.93,0,0,0,97,45.29a6.8,6.8,0,0,0-2.19-1.36,7.06,7.06,0,0,0-2.63-.49,6.92,6.92,0,0,0-2.61.49,7,7,0,0,0-2.17,1.36,6.69,6.69,0,0,0-1.51,2.12,8.09,8.09,0,0,0-.72,2.72Z" transform="translate(-23.65 -10.5)"/><path class="cls-2" d="M121.37,64a9.19,9.19,0,0,1-5-1.34A10.11,10.11,0,0,1,113,59.19V73.08h-4.91V40.22h4.33v4.2a10.26,10.26,0,0,1,3.46-3.35,9.29,9.29,0,0,1,4.8-1.25,10,10,0,0,1,4.42,1,11.3,11.3,0,0,1,3.48,2.64,12.16,12.16,0,0,1,2.3,3.84,12.88,12.88,0,0,1,.83,4.59,14.75,14.75,0,0,1-.76,4.76,11.79,11.79,0,0,1-2.15,3.84,10.46,10.46,0,0,1-3.28,2.59A9.07,9.07,0,0,1,121.37,64Zm-1.61-4.2a6,6,0,0,0,2.84-.67,7.09,7.09,0,0,0,2.18-1.79,8.18,8.18,0,0,0,1.41-2.54,8.91,8.91,0,0,0,.49-3,8.37,8.37,0,0,0-2.07-5.53,7.17,7.17,0,0,0-2.3-1.7A6.91,6.91,0,0,0,119.4,44a6.15,6.15,0,0,0-2,.35,8,8,0,0,0-1.92,1A7.43,7.43,0,0,0,114,46.81a4.83,4.83,0,0,0-.94,1.81v6.11a9.2,9.2,0,0,0,1.16,2,9,9,0,0,0,1.59,1.61,8,8,0,0,0,1.89,1.07A5.71,5.71,0,0,0,119.76,59.82Z" transform="translate(-23.65 -10.5)"/><path class="cls-2" d="M194.24,64.36a24,24,0,0,1-2.59,1,11,11,0,0,1-3.53.56,7.37,7.37,0,0,1-2.18-.32,5.27,5.27,0,0,1-1.81-.93,4.32,4.32,0,0,1-1.23-1.63,5.94,5.94,0,0,1-.45-2.44V46h-3.08v-3.8h3.08V34.55h4.91v7.67h5.09V46h-5.09v13a2.42,2.42,0,0,0,.78,1.81,2.69,2.69,0,0,0,1.72.56,5.46,5.46,0,0,0,2-.36c.62-.24,1.08-.43,1.38-.58Z" transform="translate(-23.65 -10.5)"/><path class="cls-2" d="M207.54,66a12.1,12.1,0,0,1-5-1,11.56,11.56,0,0,1-3.77-2.63,11.72,11.72,0,0,1-2.41-3.86,13,13,0,0,1,0-9.24,11.61,11.61,0,0,1,2.43-3.86,12.19,12.19,0,0,1,17.46,0,11.45,11.45,0,0,1,2.43,3.86,13,13,0,0,1,0,9.24,11.45,11.45,0,0,1-2.43,3.86A11.93,11.93,0,0,1,207.54,66Zm-7-12.06a9,9,0,0,0,.53,3.13,7.79,7.79,0,0,0,1.48,2.48,6.78,6.78,0,0,0,2.21,1.65,6.31,6.31,0,0,0,2.74.6,6.39,6.39,0,0,0,2.75-.6,6.8,6.8,0,0,0,2.21-1.68A8.05,8.05,0,0,0,214,57a9.39,9.39,0,0,0,0-6.22,8.21,8.21,0,0,0-1.47-2.53,6.91,6.91,0,0,0-2.21-1.67,6.39,6.39,0,0,0-2.75-.6,6.14,6.14,0,0,0-2.7.62,7,7,0,0,0-2.21,1.7,8.28,8.28,0,0,0-1.49,2.52A8.4,8.4,0,0,0,200.58,54Z" transform="translate(-23.65 -10.5)"/><path class="cls-2" d="M234.41,66a12,12,0,0,1-5-1,11.39,11.39,0,0,1-6.19-6.49,13.12,13.12,0,0,1,0-9.24,11.47,11.47,0,0,1,2.44-3.86,11.94,11.94,0,0,1,3.79-2.64,12.17,12.17,0,0,1,13.66,2.64,11.3,11.3,0,0,1,2.43,3.86,13,13,0,0,1,0,9.24,11.3,11.3,0,0,1-2.43,3.86A11.89,11.89,0,0,1,234.41,66Zm-7-12.06a8.79,8.79,0,0,0,.54,3.13,7.59,7.59,0,0,0,1.47,2.48,6.78,6.78,0,0,0,2.21,1.65,6.58,6.58,0,0,0,5.49,0,6.7,6.7,0,0,0,2.21-1.68,7.86,7.86,0,0,0,1.47-2.5,9.23,9.23,0,0,0,0-6.22,8,8,0,0,0-1.47-2.53,6.8,6.8,0,0,0-2.21-1.67,6.36,6.36,0,0,0-2.75-.6,6.14,6.14,0,0,0-2.7.62,7.15,7.15,0,0,0-2.21,1.7A8.28,8.28,0,0,0,228,50.86,8.61,8.61,0,0,0,227.45,54Z" transform="translate(-23.65 -10.5)"/><path class="cls-2" d="M250.84,33h4.91V58.83a2.94,2.94,0,0,0,.67,2,2.42,2.42,0,0,0,1.88.74,4.3,4.3,0,0,0,1.13-.18,11.84,11.84,0,0,0,1.23-.4l.72,3.84a12.41,12.41,0,0,1-2.55.78,14,14,0,0,1-2.63.29,5.36,5.36,0,0,1-3.95-1.39,5.25,5.25,0,0,1-1.41-3.93Z" transform="translate(-23.65 -10.5)"/><path class="cls-2" d="M272.71,66a17.9,17.9,0,0,1-5.6-.92,14.23,14.23,0,0,1-4.8-2.61l2-3.13a17.8,17.8,0,0,0,4.15,2.3,11.53,11.53,0,0,0,4.2.78,6.18,6.18,0,0,0,3.45-.84,2.74,2.74,0,0,0,1.28-2.41A2.24,2.24,0,0,0,275.93,57a29.63,29.63,0,0,0-4.47-1.47c-1.45-.39-2.7-.76-3.75-1.12a9.39,9.39,0,0,1-2.54-1.25,4.37,4.37,0,0,1-1.43-1.65,5.19,5.19,0,0,1-.44-2.27,7,7,0,0,1,.69-3.17,6.82,6.82,0,0,1,1.92-2.35,8.67,8.67,0,0,1,2.88-1.45,12.73,12.73,0,0,1,3.57-.49,14.58,14.58,0,0,1,4.91.81A12.66,12.66,0,0,1,281.33,45l-2.1,2.94a11,11,0,0,0-6.92-2.59,5.87,5.87,0,0,0-3.14.78,2.71,2.71,0,0,0-1.28,2.48,2.49,2.49,0,0,0,.27,1.21,2.29,2.29,0,0,0,.87.85,7.36,7.36,0,0,0,1.56.64c.64.2,1.44.41,2.39.65,1.58.39,2.94.77,4.09,1.16a11.31,11.31,0,0,1,2.83,1.36,4.92,4.92,0,0,1,1.65,1.83,5.45,5.45,0,0,1,.54,2.52,6.3,6.3,0,0,1-2.52,5.29A10.94,10.94,0,0,1,272.71,66Z" transform="translate(-23.65 -10.5)"/></g></svg>